<svg height="58.5" width="391.3" xmlns="http://www.w3.org/2000/svg"><g fill="#fff"><path d="M65 35.2c-.3-.1-.6-.3-.6-.6 0-.1 0-.2.1-.4.5-1 .8-2 .8-2.5l.1-1.8v-.1c0-.4-.2-.8-.9-.8h-1.4l-.1 7.1c0 .5-.3.7-.8.8l-5.2.4h-.1c-.3 0-.5-.3-.5-.6l.1-7.7h-2.1l-.2 5.6c0 .7-.2.9-.8.9h-4.5c-.6 0-.8-.3-.8-.8v-.1l.4-9.5c0-.9.6-1.7 1.7-1.7h.1l5.4.1v-2.4l-7.2.2c-.6 0-.8-.2-.8-.7V16c0-.5.2-.7.7-.7l7.4-.2v-3l-3.2.2-.3 1.2c-.1.5-.6.8-1 .8h-.2l-2.8-.5c-.5-.1-.8-.4-.8-.9 0-.1 0-.3.1-.4L50 3.1c.1-.5.4-.7.8-.7.1 0 .2 0 .4.1L54 3c.5.1.8.4.8.9v.3l-.3 1.4 1.6-.1V1.3c0-.4.3-.6.7-.6l6.5.3c.5 0 .8.4.8.8v3.1l3.6-.2h.1c.5 0 .6.2.7.7l.3 5v.2c0 .4-.2.6-.6.7l-4.1.3v3.3l4.7-.2c.6 0 .8.2.8.8v4.3c0 .6-.2.9-.8.9l-4.8.1v2.8h2.4c2.4 0 3.8 1.2 3.8 3.9v.4l-.2 4.3c0 .8-.4 2.1-.9 3.1-.2.5-.6.7-1 .7-.2 0-.4 0-.6-.1zm6.8-10h-.2c-.5 0-.7-.4-.7-.8V7.1c0-.5.2-.8.7-.8h.1l2.4.1c.5 0 .8.3.8.8v16.5c0 .6-.3.9-.8 1zm2.7 10.9c-.4-.1-.8-.4-.8-.9 0-.2 0-.4.2-.7 1.1-2 2.4-4.4 2.5-5.8l.4-26.3c0-.6.3-.9.8-.9h.1l6 .6c.6 0 1 .4 1 1l-.4 27.1c0 1.9-.9 4.1-2 6.4-.4.8-1 1.2-1.9 1.2-.2 0-.4 0-.6-.1zM97.7 34h-.3c-.6 0-.9-.3-.9-.9l-.9-13.5-3.7-.8c-.6-.1-.8-.5-.8-.9 0-.2 0-.4.1-.6l6.6-15.2c.2-.4.5-.6.8-.6.2 0 .4 0 .6.1l6.5 2.6c.4.2.6.5.6.8 0 .2-.1.4-.2.6l-4.9 10.6 1.8-.1h.1c.6 0 1 .4 1.1 1l1 14.2v.2c0 .8-.4 1.3-1.1 1.4zm21.2-1l-.2 3.3c0 .6-.3 1.2-1.2 1.2l-6.6.4h-.1c-.7 0-.9-.3-.9-.7v-.1l1-21.6-4.7-1.3c-.4-.1-.8-.5-.8-1 0-.1 0-.2.1-.4L111.3.7c.2-.4.5-.5.8-.5.2 0 .4 0 .5.1l6.4 2.2c.4.1.6.4.6.8 0 .2 0 .4-.1.5l-1.2 2.6 10.1.8c.5 0 .8.4.8.8l-.5 5.6c0 .4-.4.7-.9.7h-.1l-7.9-.6-.2 4.4 6.2.5c.4 0 .8.2.8.8v.1l-.4 4.1c0 .4-.3.7-.8.7h-.1l-6-.5-.2 3.4 7.2-.2c.5 0 .8.2.8.7V32c0 .4-.1.9-.7.9zm49.8 4.9l-25.4-.5c-1.1 0-1.9-.8-1.9-1.8l.1-4.7-.3-.1-5.1-2.8c-.4-.2-.5-.5-.5-.8 0-.2.1-.5.4-.7l7.7-5.5-7.2.2c-.8 0-.9-.3-.9-.8l-.1-4.1c0-.5.3-.7.8-.7l9.8-.3-.3-4-7.6.5h-.1c-.6 0-.8-.4-.8-.8l-.3-5.4c0-.5.4-.7.8-.8l7.6-.5-.2-2.8v-.1c0-.4.4-.8.9-.8L154 0h.1c.7 0 1 .4 1 .8l.2 2.8 11.8-.8h.1c.4 0 .9.3.9.7l.3 5.4V9c0 .4-.2.8-.9.8l-11.8.8.3 4.4 1.9-.1 3.4-3.7c.3-.3.8-.5 1.3-.5h.3l6.4 1.1c.4 0 .6.4.6.7 0 .2 0 .4-.2.5l-1.4 1.6 3.7-.1c.5 0 .8.2.8.7l.1 4.4c0 .5-.3.8-.8.8l-16.1.4-2.7 2.2H166c4 0 5.8 2 5.8 4.7v.5l-.6 7.6c-.1 1.5-1.1 2.1-2.1 2.1zm-6.7-9.3v-.3c0-1-.6-1.4-1.6-1.5l-10.3-.4V28l8.6 1c.4 0 .6.3.6.6 0 .1 0 .2-.1.3l-.4 1c-.2.6-.4.7-.8.7h-.3l-7.7-.9-.1 2.5h11.6zm24.4 6.6c-.4 0-.8-.3-.8-.8l-.5-6.7v-.2c0-.4.1-.7.6-.7l12.6-.4c.8-.1.9-.3 1-.8.3-1.4 1.6-8.4 1.6-9.2 0-.7-.4-.9-.7-1l-14.5-1.2c-.4 0-.7-.4-.7-.8v-.1l.6-6.4c0-.4.4-.7.8-.7h.1l21 1.6c2.4.2 4.2 1.9 4.2 4.1 0 .2 0 .5-.1.7-1.2 7-2.1 13.1-3.2 20.2-.2.9-.7 1.5-1.9 1.6zm63.8-6.1c-.4.6-.9.8-1.3.8-.3 0-.5-.1-.8-.3l-4-2.9c-3.8 4.1-9.6 10-11 10-.3 0-.6-.1-.9-.3l-5-3.4c-.2-.1-.3-.4-.3-.6 0-.3.1-.5.3-.7 2.5-2.4 5.8-6.3 9.2-10.5-2.5-1.8-4.6-3.2-5.2-3.6-.5-.3-.8-.8-.8-1.2 0-.2 0-.3.2-.5l3.3-3.8c.4-.4.8-.8 1.4-.8 1.2 0 5.6 2.2 6.6 2.6 2.8-3.7 5.1-7.2 6.5-9.4.2-.4.6-.6 1-.6.2 0 .4.1.6.2l6.6 3.5c.4.2.6.5.6 1 0 .7-1.6 4.1-6.3 10.2 3 1.8 4.4 2.9 4.4 3.8 0 .2-.1.4-.3.6zm28.9-11.3c-.4.3-.7.4-1 .4s-.5-.2-.8-.5c-6-6.1-6.8-7-6.8-7.6 0-.2.1-.4.3-.5l5.4-3.6c.4-.3.8-.5 1.2-.5 1.2 0 8.4 4.9 8.4 7 0 .3-.1.6-.4.8zm23.6 5.5c.1.1.1.2.1.3 0 .3-.2.6-.4.8-7.2 5.7-14.9 9.7-22.8 12-.1 0-.2.1-.4.1-.3 0-.6-.2-.7-.4l-4-7.1c0-.1-.1-.2-.1-.4 0-.3.2-.6.4-.7 6.3-2.4 18.3-8 23.3-11.2.1 0 .2-.1.3-.1.3 0 .6.2.7.4zm20 13.8c-.4 0-.8-.3-.8-.8V2.6c0-.4.4-.8.8-.8h7.9c.4 0 .8.4.8.8v13.7l2.1-2.9c.3-.4.6-.5 1-.5 1.2 0 7.6 1.6 11 3.5.4.2.6.5.6.8 0 .4-.2.6-4.5 7.7-.2.3-.5.4-.8.4s-.6-.1-.8-.2c-2-1.2-6.1-3.4-8.8-4.7v15.9c0 .4-.3.8-.8.8z"/><circle cx="188.7" cy="54" r="4.5"/><circle cx="165.1" cy="54" r="4.5"/><circle cx="212.3" cy="54" r="4.5"/><circle cx="236" cy="54" r="4.5"/><path d="M384.4 25.7c-6.6-.3-12-5.5-12.4-12.1-.2-3 .7-5.9 2.3-8.2.5-.7-.2-1.6-1-1.4-7.1 1.9-12.2 8.6-11.5 16.5.7 7.4 6.8 13.4 14.2 13.9 6.6.5 12.4-3.1 15.1-8.6.4-.8-.4-1.6-1.1-1.2-1.6.8-3.5 1.2-5.6 1.1zm-361.8 0c-6.6-.3-12-5.5-12.4-12.1-.2-3 .7-5.9 2.3-8.2.5-.7-.2-1.6-1-1.4C4.5 5.9-.7 12.7.1 20.6.8 28 6.8 33.9 14.3 34.5c6.6.5 12.4-3.1 15.1-8.6.4-.8-.4-1.6-1.1-1.2-1.8.7-3.7 1.1-5.7 1z"/></g></svg>