<svg height="58.3" width="265.5" xmlns="http://www.w3.org/2000/svg"><g fill="#55291e"><path d="M75.5 34.6c-.3-.2-.5-.4-.5-.7 0-.2.1-.5.3-.7l1.1-1.4-5.8.4.1 4c0 .5-.4 1.1-1 1.1l-7.1.6h-.1c-.6 0-.7-.2-.7-.7v-4.5l-5.2.3.6.9c.1.2.2.4.2.5 0 .3-.2.6-.5.8l-4.2 2.2c-.2.1-.5.2-.7.2-.4 0-.8-.1-1-.5l-2.2-3.6c-.2-.2-.2-.4-.2-.6 0-.3.2-.6.5-.7l2.4-1-.3-2.2v-.3c0-.6.3-.7.8-.7l6.4-.2-1.9-1.6c-.7-.6-1-1.4-1-2.1 0-.9.4-1.8 1.2-2.4l-7 .1c-.6 0-.8-.3-.8-.8l-.1-3.3c0-.6.3-.8.8-.8l9.5-.1-.2-1.8-5.8.2H53c-.6 0-.7-.3-.8-.8l-.1-2v-.1c0-.5.3-.7.8-.7l5.7-.2-.2-2-7.6.4h-.1c-.6 0-.8-.2-.8-.8l-.2-4.6v-.6c0-.6.3-.7.8-.8l7.4-.4-.1-.7v-.2c0-.6.3-.8.8-.9l8.1-.8h.1c.5 0 .8.3.9.8l.1 1.2L81 1.2h.1c.5 0 .7.2.8.7l.3 4.8v.1c0 .4-.3.7-.7.7l-13.1.7.2 2.1 10.1-.3h.1c.5 0 .7.2.8.7l.1 2.2v.1c0 .5-.3.7-.8.7l-10 .4.2 2.2 14.2-.3c.5 0 .8.2.8.7l.1 3.5c0 .5-.2.8-.8.8l-10.2.1 1.6 1c.2.1.3.4.3.6s-.1.4-.3.6L70 27l5.1-.2-.3-1.8c0-.3.2-.5.5-.6l4.4-.5h.2c.4 0 .6.2.7.6l.7 4.2v.4c0 .5-.1.9-.5 1.4l2.4 1.1c.4.2.6.5.6.8 0 .2-.1.4-.2.7L81 36.8c-.1.2-.4.4-.7.4-.2 0-.4 0-.5-.1zm-11-13.4c0 .1-.1.2-.2.3l-2.1 1.7 2.2 2.2 4.4-4.2zM98 37h-.2c-.7 0-1.2-.5-1.2-1.1l-.2-9-4.7-.6c-.4-.1-.7-.4-.7-.8v-.1l1.6-7c.1-.3.4-.5.8-.5h.2l2.7.6v-3.2l-3 .1c-.7 0-1.1-.3-1.1-.9L92 9.8c0-.7.4-1 .9-1l2.8-.1-.1-6.2c0-.6.4-1 1-1l7.4.2c.6 0 1 .4 1 1l.1 5.6h2.3c.5 0 1 .4 1 1v4.8c0 .6-.3 1-.9 1h-2.4v3.3l1.8-1.2c.1-.1.2-.1.4-.1s.4 0 .5.2l1.9 2.4c.1.1.2.3.2.4 0 .2-.2.5-.4.7l-2.1 1.5c-.1.1-.3.1-.4.1-.3 0-.5-.1-.6-.3l-1.3-2.1.3 14.7c0 .7-.6 1.3-1.2 1.4zm17.3-1.1c-.4-.1-.8-.4-.8-.9 0-.2.1-.4.2-.8 1-2 2.3-4.4 2.4-5.8l.2-4.4-4.1 5.7c-.3.4-.8.6-1.3.6-.4 0-.7-.1-1-.3l-4.1-2.7c-.4-.2-.5-.5-.5-.8 0-.2.1-.5.3-.7l6-7.3c.2-.3.5-.4.8-.4.2 0 .4.1.6.2l3.4 2.4.2-4.9-6.7-.4c-.7 0-1-.4-1-.9v-.2l.4-5.8c0-.7.3-.9.9-.9h.2l6.5.3.2-6.8c0-.6.3-.8.9-.8h.1l6.8.4c.6 0 1 .4 1 1l-.2 6.7 2 .1c.6 0 .9.3.9.9v.1l-.4 5.9c0 .6-.4.9-1 .9h-.2l-1.6-.1-.4 13.7c0 1.9-.8 4.2-1.9 6.5-.4.8-1.1 1.2-2 1.2-.2 0-.6 0-.8-.1zm22.5-.7c-.8-.1-1-.4-1-.8 0-.2 0-.4.1-.6.9-2.5 1.6-5.1 1.6-6.9l-.3.1h-.4c-.6 0-1-.3-1.2-.8l-1.5-5.2c0-.2-.1-.4-.1-.6 0-.4.2-.6.6-.7l2.7-.5-.1-4.8h-1.5c-.6 0-.9-.2-1-.8l-.4-5.3v-.1c0-.6.4-.9.9-.9h1.8l-.1-4.2c0-.7.3-1.1 1-1.1l6.6-.1c.7 0 1 .2 1 .9l.1 4.4h1.2c.6 0 .9.2.9.8l.2 5.4c0 .6-.2 1-.8 1h-1.4v3.3l1.4-.2h.3c.4 0 .5.2.6.6l.5 5.6v.2c0 .4-.1.6-.6.8l-2 .4v2.1c0 2.3-.4 4.8-1.3 7.9-.2.8-1 1.2-1.7 1.2h-.3zm32.1 2.5c-4.3-.4-9.3-1.2-10.4-1.5L155 35l-.8 2c-.2.6-.8.8-1.3.8-.3 0-.7-.1-1-.2l-3.3-1.3c-.2-.1-.4-.3-.4-.5 0-.1 0-.2.1-.3 1.2-2.2 1.7-3.8 1.9-4.8l.8-3.8c0-.2.2-.5.6-.5h.2l4.1.7c.4.1.6.3.6.6v.2l-.3 1.8 2.6.6-.3-5.3-6.3.2h-.2c-.7 0-.9-.4-1-1l-.2-3.4v-.1c0-.6.4-.8 1-.9l19.3-.8h.1c.6 0 .9.2 1 .8l.2 3.7v.1c0 .6-.4.8-1 .9l-5.4.2.1 1.9 4.4-.7h.2c.4 0 .6.2.7.6l.4 1.8v.3c0 .4-.2.6-.7.6l-4.9.8.1 1.1 5.8.3c.4 0 .6.3.6.6v.2l-1.1 4.5c-.2.7-.8 1.1-1.6 1.1h-.1zm-17.3-19.9c-1.1 0-1.8-.6-1.8-1.5L150.2 3c0-.8.6-1.6 1.6-1.6L166.6.3h.5c2.6 0 4.6 1.6 4.7 4.4l.2 10.6v.1c0 1.4-1 2-1.9 2zm10.6-9.5c0-.8-.3-1.4-1.1-1.4h-.1l-4.7.3.1 2.1 4 .2c.4 0 .6.2.6.5v.3l-.3 1.2c-.1.4-.4.5-.7.5h-.2l-3.2-.2.1 2 5.7-.3zm43 25.9c-.4-.2-.6-.6-.6-1 0-.2 0-.4.2-.6l2.2-4-7.6.1 2.6 3.2c.2.2.2.5.2.7 0 .4-.2.7-.4.9l-6.8 4.1c-.3.2-.6.2-1 .2s-.8-.1-1.1-.4l-3.3-4c-.1-.2-.2-.3-.2-.5h-.1l-6.4.9h-.3c-.6 0-.9-.3-.9-.9l-.9-13.5-2.3-.4c-.6-.1-.9-.6-.9-1 0-.1 0-.3.1-.4l5.9-15c.2-.4.5-.6.9-.6.1 0 .3 0 .5.1l6.2 2.3c.4.2.6.5.6.9 0 .2 0 .4-.1.5l-4.2 10.8h1c.6 0 1.1.5 1.2 1.1l.9 13.7 4.7-2.7h-2c-.7 0-1.2-.4-1.2-1l-.4-5.1v-.1c0-.7.4-1 1-1l11-.1.2-6-2.3.1.2 2.5v.1c0 .6-.4 1-.9 1.1l-5.4 1.3h-.4c-.5 0-.9-.3-1-.8l-.2-4h-.9c-.6 0-1-.4-1-.9l-.2-5.2c0-.7.4-.9 1-1h.6l-.3-5c0-.6.3-.9.9-1l5.8-.2h.1c.6 0 .9.4 1 .9l.3 5 2.9-.1.2-7.1c0-.6.4-.8.9-.8h.1l6.7.2c.6 0 1 .4 1 1l-.2 6.3 1.6-.1h.1c.6 0 .9.4.9.9l.2 5.2c0 .6-.3 1-.9 1l-2 .1-.2 6.3h2.6c.6 0 1 .4 1 1l.2 5.2v.1c0 .6-.5.9-1.1.9h-3.8l4.5 1.9c.5.2.8.7.8 1.1 0 .2-.1.4-.2.6l-2.8 4.9c-.3.5-.8.8-1.2.8-.2 0-.3 0-.5-.1z"/><circle cx="121.7" cy="53.8" r="4.5"/><circle cx="98.1" cy="53.8" r="4.5"/><circle cx="145.3" cy="53.8" r="4.5"/><circle cx="169" cy="53.8" r="4.5"/><path d="M22.6 25.6c-6.6-.3-12-5.5-12.4-12.1-.2-3 .7-5.9 2.3-8.2.5-.7-.2-1.6-1-1.4C4.5 5.8-.7 12.6.1 20.4c.7 7.4 6.8 13.4 14.2 13.9 6.6.5 12.4-3.1 15.1-8.6.4-.8-.4-1.6-1.1-1.2-1.8.8-3.7 1.1-5.7 1.1zm236 0c-6.6-.3-12-5.5-12.4-12.1-.2-3 .7-5.9 2.3-8.2.5-.7-.2-1.6-1-1.4-7.1 1.9-12.2 8.6-11.5 16.5.7 7.4 6.8 13.4 14.2 13.9 6.6.5 12.4-3.1 15.1-8.6.4-.8-.4-1.6-1.1-1.2-1.7.8-3.6 1.1-5.6 1.1z"/></g></svg>