<svg height="70" width="70" xmlns="http://www.w3.org/2000/svg"><path clip-rule="evenodd" d="M35 0C15.7 0 0 15.7 0 35s15.7 35 35 35 35-15.7 35-35S54.3 0 35 0zm17.4 27.1v1.1c0 11.4-8.7 24.5-24.5 24.5-4.9 0-9.4-1.4-13.2-3.9.7.1 1.4.1 2.1.1 4 0 7.8-1.4 10.7-3.7-3.8-.1-7-2.6-8-6 .5.1 1.1.2 1.6.2.8 0 1.5-.1 2.3-.3-3.9-.8-6.9-4.3-6.9-8.4v-.1c1.2.6 2.5 1 3.9 1.1-2.3-1.5-3.8-4.2-3.8-7.2 0-1.6.4-3.1 1.2-4.3 4.2 5.2 10.6 8.6 17.8 9-.1-.6-.2-1.3-.2-2 0-4.8 3.9-8.6 8.6-8.6 2.5 0 4.7 1 6.3 2.7 2-.4 3.8-1.1 5.5-2.1-.6 2-2 3.7-3.8 4.8 1.7-.2 3.4-.7 4.9-1.4-1.3 1.8-2.8 3.3-4.5 4.5z" fill="#fff" fill-rule="evenodd"/></svg>