<svg width="32" height="32" fill="none" xmlns="http://www.w3.org/2000/svg"><mask id="a" maskUnits="userSpaceOnUse" x="5" y="3" width="22" height="29"><path d="M23.583 7.583h-3.25V5.958a2.708 2.708 0 00-2.708-2.708h-3.25a2.709 2.709 0 00-2.708 2.708v1.625h-3.25a3.25 3.25 0 00-3.25 3.25V19.5a3.25 3.25 0 003.25 3.25h15.166a3.25 3.25 0 003.25-3.25v-8.667a3.25 3.25 0 00-3.25-3.25zm-9.75-1.625a.542.542 0 01.542-.541h3.25a.541.541 0 01.542.541v1.625h-4.334V5.958zM24.667 19.5a1.083 1.083 0 01-1.084 1.083H8.417A1.083 1.083 0 017.333 19.5v-8.667A1.083 1.083 0 018.417 9.75h15.166a1.083 1.083 0 011.084 1.083V19.5z" fill="#FFB973"/><path d="M16 11.375a3.792 3.792 0 100 7.585 3.792 3.792 0 000-7.585zm0 5.417a1.625 1.625 0 110-3.25 1.625 1.625 0 010 3.25zM7.527 30.59c.453-.336.82-.705 1.102-1.108a2.55 2.55 0 00.486-1.26H7.727v-.826h1.43c.007-.359-.009-.769-.048-1.23h.92c.04.621.055 1.031.047 1.23h1.87c.019.25.029.71.029 1.377 0 .383-.02.711-.059.985-.035.27-.084.486-.146.65a.971.971 0 01-.252.381.869.869 0 01-.323.182 1.72 1.72 0 01-.404.04h-.773l-.082-.825h.673c.114 0 .2-.028.258-.082.063-.055.111-.172.147-.352.039-.184.058-.45.058-.797 0-.344-.006-.588-.017-.732h-1.043c-.02.316-.09.633-.211.949a3.856 3.856 0 01-.446.855 5.002 5.002 0 01-.574.692c-.203.207-.414.38-.633.521l-.62-.65zm6.944-2.444l.404-.69c.457.187.842.374 1.154.562a6.059 6.059 0 00.487-1.74l.908.251a8.1 8.1 0 01-.656 1.963c.246.164.55.406.914.727l-.528.668a6.39 6.39 0 00-.814-.674 4.915 4.915 0 01-2.08 1.775l-.58-.685c.851-.414 1.498-.934 1.94-1.559a8.722 8.722 0 00-1.15-.598zm5.707-.878v-.827h3.398v.827h-3.398zm-.463 1.318v-.832h3.797l.515.556c-.109.774-.404 1.43-.884 1.97-.48.534-1.163.907-2.045 1.118l-.47-.773c.231-.059.433-.117.604-.176.172-.058.364-.142.575-.252.21-.11.388-.232.533-.369a2.382 2.382 0 00.674-1.242h-3.3z" fill="#FFB973"/></mask><g mask="url(#a)"><path fill="url(#paint0_linear)" d="M0 0h32v32H0z"/></g><defs><linearGradient id="paint0_linear" x1="0" y1="0" x2="35.593" y2="27.318" gradientUnits="userSpaceOnUse"><stop stop-color="#FF8CA0"/><stop offset="1" stop-color="#FFD74B"/></linearGradient></defs></svg>