<svg width="32" height="32" fill="none" xmlns="http://www.w3.org/2000/svg"><mask id="a" maskUnits="userSpaceOnUse" x="1" y="3" width="30" height="29"><circle cx="16" cy="10" r="6" stroke="#FFB973" stroke-width="2"/><circle cx="12" cy="16" r="6" stroke="#FFB973" stroke-width="2"/><circle cx="20" cy="16" r="6" stroke="#FFB973" stroke-width="2"/><path d="M1.861 27.62v-.833h3.832l.498.598a3.593 3.593 0 01-.27 1.19 3.603 3.603 0 01-.58.978c-.23.273-.493.52-.79.738a4.423 4.423 0 01-1.81.803l-.464-.75a6.891 6.891 0 001.131-.41 3.98 3.98 0 00.809-.487 2.67 2.67 0 00.838-1.177c.066-.2.113-.416.14-.65H1.861zm5.977 1.81c.254-.114.494-.233.72-.358.227-.125.42-.234.58-.328.16-.098.323-.215.487-.351.168-.137.293-.24.375-.311.086-.07.191-.176.316-.316l.235-.264.21-.27.159-.21.68.51a9.325 9.325 0 01-1.096 1.236v2.513h-.885v-1.834c-.36.254-.8.485-1.324.692l-.457-.71zm5.502 1.101c.344-.32.595-.674.756-1.06.16-.387.24-.83.24-1.33v-1.243h.902v1.243c0 1.16-.392 2.13-1.178 2.912l-.72-.522zm2.408.059v-3.932h.908v3.223a6.899 6.899 0 001.606-1.524l.533.692a6.403 6.403 0 01-1.277 1.26c-.493.367-.913.623-1.26.767l-.51-.486zm5.244-1.834l.486-.692c.32.137.674.329 1.061.575.16-.27.273-.547.34-.832h-1.565c-.214.457-.607.922-1.177 1.394l-.686-.539c.45-.36.781-.724.996-1.096.219-.375.432-.886.639-1.535l.809.276c-.063.23-.14.453-.229.668h1.623l.516.55a5.242 5.242 0 01-.563 1.594c.008.004.092.067.252.188a8.5 8.5 0 00.252.187l-.539.697a6.555 6.555 0 01-.229-.175 19.678 19.678 0 01-.222-.182c-.516.621-1.178 1.125-1.986 1.512l-.534-.692c.739-.347 1.34-.785 1.805-1.312a9.67 9.67 0 00-1.049-.586zm4.746-.281v-.815h4.53v.815h-4.53z" fill="#FFB973"/></mask><g mask="url(#a)"><path fill="url(#paint0_linear)" d="M0 0h32v32H0z"/></g><defs><linearGradient id="paint0_linear" x1="0" y1="0" x2="35.593" y2="27.318" gradientUnits="userSpaceOnUse"><stop stop-color="#FF8CA0"/><stop offset="1" stop-color="#FFD74B"/></linearGradient></defs></svg>