<svg width="38" height="32" fill="none" xmlns="http://www.w3.org/2000/svg"><mask id="a" maskUnits="userSpaceOnUse" x="1" y="0" width="36" height="32"><path d="M15.615 11.76a1.046 1.046 0 00-1.48 1.48l3.125 3.125a1.043 1.043 0 00.74.302 1.043 1.043 0 00.75-.355l7.292-8.333a1.042 1.042 0 00-1.563-1.375L18 14.104l-2.385-2.344z" fill="#FFB973"/><path d="M27.375 11.458a1.042 1.042 0 00-1.042 1.042 8.333 8.333 0 01-12.956 6.93 8.334 8.334 0 01-1.283-12.805A8.26 8.26 0 0118 4.167c.666.004 1.33.08 1.98.229a1.042 1.042 0 10.489-2.021A10.98 10.98 0 0018 2.083a10.417 10.417 0 00-7.292 17.802A10.344 10.344 0 0018 22.917 10.417 10.417 0 0028.417 12.5a1.042 1.042 0 00-1.042-1.042zM2.536 25.93c-.312.852-.858 1.704-1.416 2.244.12.174.318.558.384.732.156-.162.306-.342.456-.534v3.138h.678v-4.182c.216-.384.402-.792.558-1.182l-.66-.216zm1.458.876h1.758v.804H3.994v-.804zm2.766 2.622v-.648H5.212v-.54h1.254v-2.064h-3.15v2.064h1.176v.54H2.92v.648h1.23c-.372.528-.906 1.014-1.446 1.296.162.138.384.396.492.57.474-.306.93-.762 1.296-1.29v1.518h.72v-1.548c.342.534.78 1.02 1.218 1.332.114-.18.342-.432.504-.57-.504-.294-1.02-.786-1.374-1.308h1.2zm5.91-2.052v-.684H9.772c.078-.198.144-.402.204-.6l-.762-.174a6.771 6.771 0 01-.246.774H7.342v.684h1.326c-.366.72-.876 1.374-1.53 1.8.12.18.282.504.354.702.192-.132.366-.27.534-.426v2.058h.72v-2.862a7.06 7.06 0 00.744-1.272h3.18zm.084 1.974h-1.41v-.162c.39-.294.798-.684 1.092-1.026l-.444-.36-.15.042h-2.28v.642h1.686c-.132.132-.27.264-.408.372h-.222v.492H9.1v.666h1.518v.726c0 .078-.03.096-.126.102-.096.006-.45.006-.75-.012.084.198.174.48.198.69.48 0 .834-.006 1.08-.114.258-.102.324-.288.324-.648v-.744h1.41v-.666zm2.713-.846a.49.49 0 01.152-.37.517.517 0 01.381-.152c.152 0 .28.051.38.153.106.097.16.22.16.369a.5.5 0 01-.16.375.517.517 0 01-.38.152.517.517 0 01-.533-.527zm4.928-1.57l.492-.71a7.77 7.77 0 011.424.962l-.557.662a4.797 4.797 0 00-.557-.434 12.25 12.25 0 00-.802-.48zm-.727 1.26l.492-.698c.512.266.992.584 1.442.955l-.54.68a10.19 10.19 0 00-.732-.533 6.09 6.09 0 00-.662-.405zm.492 2.226c.89-.262 1.643-.608 2.256-1.037.613-.43 1.129-1.008 1.547-1.735l.685.545a4.92 4.92 0 01-.779 1.09 5.38 5.38 0 01-1.014.856 9.052 9.052 0 01-1.101.603 8.722 8.722 0 01-1.149.434l-.445-.756zm5.819.182v-.797h1.558v-1.319h-1.242v-.802h3.351v.802h-1.242v1.319h1.612v.797h-4.037zm5.537-3.088v-.826h4.271l.504.58a4.456 4.456 0 01-.72.925 6.632 6.632 0 01-1.003.832l-.468-.638c.398-.297.71-.588.937-.873h-3.521zm.515 3.158c.203-.117.373-.233.51-.346.14-.117.275-.264.404-.44.133-.179.233-.394.3-.644.066-.25.099-.537.099-.861v-.692h.908v.657c0 1.422-.543 2.408-1.629 2.959l-.592-.633z" fill="#FFB973"/></mask><g mask="url(#a)"><path fill="url(#paint0_linear)" d="M0 0h38v32H0z"/></g><defs><linearGradient id="paint0_linear" x1="0" y1="0" x2="36.689" y2="33.438" gradientUnits="userSpaceOnUse"><stop stop-color="#FF8CA0"/><stop offset="1" stop-color="#FFD74B"/></linearGradient></defs></svg>