<svg width="24" height="24" fill="none" xmlns="http://www.w3.org/2000/svg"><path d="M16.91 14.08l1.44 1.44a6 6 0 00-.07-7.15 1.003 1.003 0 10-1.56 1.26 4.001 4.001 0 01.19 4.45z" fill="#fff"/><path d="M21 12a6.51 6.51 0 01-1.78 4.39l1.42 1.42A8.53 8.53 0 0023 12a8.75 8.75 0 00-3.36-6.77 1.001 1.001 0 10-1.28 1.54A6.8 6.8 0 0121 12zm-6 .17V4a1 1 0 00-1.57-.83L9 6.2l6 5.97zM4.74 7.57H2a1 1 0 00-1 1v6.86a1 1 0 001 1h5l6.41 4.4c.176.114.38.173.59.17a1 1 0 001-1v-2.17L4.74 7.57zm-.03-4.28a1.004 1.004 0 10-1.42 1.42l16 16a1 1 0 001.42 0 1.002 1.002 0 000-1.42l-16-16z" fill="#fff"/></svg>