<svg width="24" height="24" fill="none" xmlns="http://www.w3.org/2000/svg"><path d="M18.28 8.37a1.003 1.003 0 1 0-1.56 1.26 4 4 0 0 1 0 4.74A1 1 0 0 0 17.5 16a1 1 0 0 0 .78-.37 6 6 0 0 0 0-7.26z" fill="#fff"/><path d="M19.64 5.23a1.001 1.001 0 1 0-1.28 1.54A6.8 6.8 0 0 1 21 12a6.8 6.8 0 0 1-2.64 5.23.997.997 0 0 0-.13 1.41 1 1 0 0 0 1.41.13A8.751 8.751 0 0 0 23 12a8.75 8.75 0 0 0-3.36-6.77zm-5.17-2.11a1 1 0 0 0-1 0L7 7.57H2a1 1 0 0 0-1 1v6.86a1 1 0 0 0 1 1h5l6.41 4.4c.176.113.38.173.59.17a1 1 0 0 0 1-1V4a1 1 0 0 0-.53-.88z" fill="#fff"/></svg>