<svg width="24" height="24" fill="none" xmlns="http://www.w3.org/2000/svg"><path fill-rule="evenodd" clip-rule="evenodd" d="M5.594 4.902a4 4 0 0 0-.54 1.445l4.6 4.6a4 4 0 0 0 1.444-.541L5.594 4.902zm6.566 4.55L6.547 3.84a4 4 0 0 1 5.613 5.613zm-3.945 1.47L5.078 7.785a4 4 0 0 0 3.137 3.137zm10.452 1.572a3 3 0 1 1-3.333-4.987 3 3 0 0 1 3.333 4.987zm-3.587 1.893a5 5 0 0 0-1.14.663 6.998 6.998 0 0 0-1.03-.847L18.707 20h1.985l-5.612-5.613zm6.886 4.872l-5.247-5.247A5 5 0 0 1 22 19c0 .088-.012.175-.034.259zm-4.673.74l-6.838-6.837A7 7 0 0 0 2 20a1 1 0 0 0 1 1h12a1 1 0 0 0 1-1h1.293z" fill="#fff"/><path fill-rule="evenodd" clip-rule="evenodd" d="M4.384 3.08c.122.051.233.125.326.218l16 16a1.001 1.001 0 0 1 0 1.42 1.002 1.002 0 0 1-1.42 0l-16-16a1.004 1.004 0 0 1 1.094-1.637z" fill="#fff"/></svg>