<svg width="64" height="64" fill="none" xmlns="http://www.w3.org/2000/svg"><path d="M14.463 20.249a4.339 4.339 0 100-8.678 4.339 4.339 0 000 8.678z" fill="#FFB374"/><path fill-rule="evenodd" clip-rule="evenodd" d="M8.678 0H43.39a8.678 8.678 0 018.678 8.678v27.979a11.713 11.713 0 00-8.721 1.34l-10.11-8.608a2.256 2.256 0 00-2.69 0l-20.25 16.893h27.11a13.78 13.78 0 00-.345 3.074c0 .93.092 1.837.267 2.712H8.678A8.678 8.678 0 010 43.39V8.678A8.678 8.678 0 018.678 0zM43.39 5.785H8.678a2.893 2.893 0 00-2.893 2.893v33.844l21.059-17.558a8.013 8.013 0 0110.182 0l9.256 7.897V8.678a2.893 2.893 0 00-2.892-2.893z" fill="#FFB374"/><path d="M53.695 47.91h-2.893v-2.893a1.446 1.446 0 00-2.892 0v2.892h-2.893a1.446 1.446 0 100 2.893h2.893v2.893a1.446 1.446 0 102.892 0v-2.893h2.893a1.447 1.447 0 000-2.892z" fill="#FFB374"/><circle cx="49.356" cy="49.356" r="12.144" stroke="#FFB374" stroke-width="5"/></svg>