<svg width="32" height="30" fill="none" xmlns="http://www.w3.org/2000/svg"><mask id="a" maskUnits="userSpaceOnUse" x="0" y="0" width="32" height="30"><path fill-rule="evenodd" clip-rule="evenodd" d="M21.525 20.63c.154.08.325.12.498.12.24.011.476-.058.672-.195a1.084 1.084 0 00.433-1.083l-1.083-6.1 4.463-4.333a1.083 1.083 0 00.271-1.083 1.083 1.083 0 00-.877-.737l-6.175-.899L16.975.773a1.083 1.083 0 00-1.95 0l-2.72 5.558-6.174.899a1.083 1.083 0 00-.878.737 1.083 1.083 0 00.271 1.083l4.464 4.333-1.084 6.1a1.083 1.083 0 001.571 1.148L16 17.738l5.525 2.893zm-5.027-5.07a.997.997 0 00-.498-.118.997.997 0 00-.542.043l-4.084 2.167.78-4.507a1.085 1.085 0 00-.314-.964L8.59 9.007l4.55-.672a1.084 1.084 0 00.813-.585L16 3.687l2.047 4.063a1.083 1.083 0 00.77.607l4.55.671-3.25 3.175a1.083 1.083 0 00-.315.964l.78 4.56-4.084-2.166zM1.088 25.974v-.689h2.444l.368-.317c.244.202.505.485.781.85l-.376.341a6.804 6.804 0 00-.454-.535v.35H1.087zm-.684 1.133v-.689H4.54v.688H3.036c0 .98-.342 1.718-1.026 2.212l-.586-.454c.127-.1.235-.197.323-.288.088-.091.174-.205.258-.342.088-.14.153-.302.196-.488.045-.189.068-.402.068-.64H.404zm3.638-2.198l.395-.337c.244.202.505.485.781.85l-.376.342a7.453 7.453 0 00-.4-.47 3.8 3.8 0 00-.4-.385zm1.222 3.677v-.689h2.607v-1.352H5.27v-.693h3.364v2.959h-.762v-.225H5.264zm4.924-3.267v3.335l.405.381c.436-.1.82-.22 1.152-.356.332-.14.624-.306.874-.498.254-.196.463-.378.625-.547a9.95 9.95 0 00.567-.67l-.528-.492c-.28.43-.636.797-1.069 1.103-.433.306-.854.518-1.265.635v-2.89h-.761zm3.927 1.577v-.678h3.775v.678h-3.775zm5.407-1.875l-.41.591c.296.166.52.3.669.4.153.102.308.222.464.362l.464-.552a6.478 6.478 0 00-1.187-.8zm-.605 1.06l-.41.581a5.1 5.1 0 01.551.337c.225.15.428.298.61.444l.45-.566a6.8 6.8 0 00-1.201-.796zm1.88 1.572c-.511.358-1.138.646-1.88.865l.37.63a7.274 7.274 0 001.876-.865 4.48 4.48 0 00.845-.713 4.1 4.1 0 00.649-.908l-.571-.454c-.349.605-.778 1.087-1.29 1.445zm2.765 1.206v-.673h1.86v-.43H23.67v-.67h1.753v-.419h-1.86v-.664h2.598v3.071h-.738v-.215h-1.86zm4.494-3.51l-.464.537c.466.283.87.605 1.216.967l.508-.518a6.345 6.345 0 00-.6-.518 7.611 7.611 0 00-.66-.468zm1.567 2.412c-.54.319-1.235.477-2.085.473l.142.68c.905.035 1.688-.16 2.349-.587a4.203 4.203 0 001.523-1.777l-.63-.361c-.322.729-.755 1.253-1.299 1.572z" fill="#FFB973"/></mask><g mask="url(#a)"><path fill="url(#paint0_linear)" d="M0-2h32v32H0z"/></g><defs><linearGradient id="paint0_linear" x1="0" y1="-2" x2="35.593" y2="25.318" gradientUnits="userSpaceOnUse"><stop stop-color="#FF8CA0"/><stop offset="1" stop-color="#FFD74B"/></linearGradient></defs></svg>