<svg width="32" height="32" fill="none" xmlns="http://www.w3.org/2000/svg"><mask id="a" maskUnits="userSpaceOnUse" x="4" y="3" width="24" height="29"><path d="M4.861 27.62v-.833h3.832l.498.598a3.593 3.593 0 0 1-.27 1.19 3.603 3.603 0 0 1-.58.978 4.55 4.55 0 0 1-.79.738 4.423 4.423 0 0 1-1.81.803l-.464-.75a6.891 6.891 0 0 0 1.131-.41 3.98 3.98 0 0 0 .809-.487 2.67 2.67 0 0 0 .838-1.177c.066-.2.113-.416.14-.65H4.861zm6.504 2.964v-4.002h.914v3.469c.492-.14.998-.395 1.518-.762s.947-.809 1.283-1.324l.633.592a11.97 11.97 0 0 1-.68.802 6.796 6.796 0 0 1-.75.657c-.3.23-.65.43-1.049.597a8.926 8.926 0 0 1-1.382.428l-.487-.457zm5.373-2.11v-.814h4.53v.815h-4.53zm5.514 1.237c.379.004.629.004.75 0 .25-.484.518-1.066.803-1.746a27.5 27.5 0 0 0 .709-1.87l.879.282a27.49 27.49 0 0 1-.65 1.658c-.29.684-.54 1.24-.75 1.67.64-.023 1.3-.062 1.98-.117a9.304 9.304 0 0 0-.486-.592 14.761 14.761 0 0 1-.2-.234l.75-.51c.277.293.582.668.914 1.125.336.457.582.834.738 1.13l-.779.475c-.039-.058-.105-.162-.2-.31a6.913 6.913 0 0 0-.187-.299c-1.011.098-2.365.146-4.06.146l-.211-.808zm.248-6.961h-13a3.25 3.25 0 0 1-3.25-3.25v-13A3.25 3.25 0 0 1 9.5 3.25h13a3.25 3.25 0 0 1 3.25 3.25v13a3.25 3.25 0 0 1-3.25 3.25zM9.5 5.417A1.083 1.083 0 0 0 8.417 6.5v13A1.083 1.083 0 0 0 9.5 20.583h13a1.083 1.083 0 0 0 1.083-1.083v-13A1.083 1.083 0 0 0 22.5 5.417h-13z" fill="#FFB973"/><path fill="#FFB973" d="M8 16.6h16v5H8z"/></mask><g mask="url(#a)"><path fill="url(#b)" d="M0 0h32v32H0z"/></g><defs><linearGradient id="b" x1="0" y1="0" x2="35.593" y2="27.318" gradientUnits="userSpaceOnUse"><stop stop-color="#FF8CA0"/><stop offset="1" stop-color="#FFD74B"/></linearGradient></defs></svg>