<svg width="512" height="512" fill="none" xmlns="http://www.w3.org/2000/svg"><path d="M127.568 288.568c-2.26-4.744-5.952-7.678-11.079-8.763-1.059-.224-1.33-.459-.875-1.593 2.181-5.439 1.629-10.592-1.85-15.387-.644-.887-1.402-1.205-2.468-1.081-4.433.519-8.079 2.448-10.789 6.017-.615.81-1.077.897-1.919.287-3.06-2.217-6.505-3.075-10.273-2.755-1.002.086-1.57.542-2.01 1.402-1.989 3.9-2.378 7.94-.898 12.054.44 1.226.318 1.659-.905 2.199-4.424 1.957-7.234 5.367-8.498 10.045-.225.833-.313 1.603.354 2.324 2.43 2.623 5.36 4.335 8.914 4.856 2.747.403 2.753.36 2.55 3.491-.128 3.804 1.25 7.363 3.955 10.475.873 1.004 1.805 1.202 3.027.914 3.483-.82 6.412-2.524 8.628-5.35.536-.685.942-.835 1.714-.337 2.216 1.429 4.683 2.064 7.312 2.218 1.286.076 2.132-.319 2.809-1.438 1.73-2.856 2.605-5.91 2.333-9.244-.071-.874.188-1.185 1.033-1.395 3.677-.915 6.517-3.051 8.698-6.131.66-.932.721-1.794.237-2.808zM231.881 447.961l-.426-1.758c-1.468-6.059-5.055-10.479-10.466-13.464-.832-.459-.979-.91-.302-1.587 3.559-3.562 5.3-7.963 5.941-12.872.163-.87.161-1.741.002-2.612-.353-1.953-.572-3.933-1.331-5.797-.333-.821-.831-1.335-1.726-1.582-1.511-.417-3.062-.543-4.594-.802a3.9 3.9 0 00-1.823 0c-3.905.324-7.611 1.354-10.772 3.702-1.155.858-1.515.608-2.149-.391-.981-1.546-2.235-2.861-3.651-4.042-2.546-2.125-5.533-3.307-8.647-4.253-.435-.143-.869-.161-1.301.013-.902.104-1.173.964-1.733 1.471-3.156 2.859-4.921 6.471-5.645 10.629-.248.431.036.946-.218 1.375l-.052.99a7.211 7.211 0 000 2.612c-.024.978-.624 1.184-1.452 1.084-.531.251-1.13-.036-1.663.206-.334.093-.664.216-1.005.272-5.92.984-10.331 4.162-13.495 9.2-.479.761-.57 1.557-.318 2.315.293.887.754 1.739 1.255 2.535 2.592 4.119 6.011 7.241 10.73 8.781.645.21 1.053.519.534 1.4-1.372 2.324-2.283 4.835-2.465 7.564a21.273 21.273 0 000 4.449c.064 2.331.941 4.451 1.793 6.559.307.759.828 1.382 1.829 1.594 1.938.41 3.873.121 5.804.237.425-.26.935.021 1.364-.214.352-.19.745-.071 1.132-.179a23.46 23.46 0 006.467-2.939c.717-.466 1.34-.565 1.93.21 2.23 2.928 5.243 4.807 8.521 6.337 1.184.553 2.213.586 3.352-.256 3.935-2.904 6.431-6.747 7.675-11.425.192-.723.412-1.034 1.194-.999 1.35.059 2.704.012 4.057.009.433-.246.942.018 1.378-.207a21.64 21.64 0 008.534-3.648c1.045-.739 1.851-1.537 1.951-2.87-.261-.524.036-1.12-.209-1.647z" fill="#FEFEFE"/><path d="M153.288 363.866c-3.207-1.388-6.537-2.282-10.023-2.552-.692-.053-.693-.337-.431-.83.265-.499.517-1.005.775-1.508 3.943.91 7.504 2.637 10.755 5.028-.405.354-.77-.006-1.076-.138zm-21.416-38.624c-8.06 1.886-14.171 6.472-18.729 13.269-1.174 1.749-1.002 1.42-2.184.246-.886-.88-2.193-1.261-2.837-2.419 4.684-7.973 11.544-12.891 20.63-14.669.983-.192 1.989-.261 2.972-.447 1.49-.284 2.66.101 3.465 1.445.335.558.731 1.079 1.099 1.617-1.408.602-2.947.614-4.416.958zm-28.449 8.961c-4.67-2.019-9.567-2.521-14.588-2.3-1.71.076-2.863.736-3.686 2.363-2.683 5.31-3.896 10.895-3.472 16.815.164 2.296.737 4.537 1.284 6.773-2.25.676-2.46.594-3.31-1.577-3.469-8.866-2.942-17.506 1.479-25.929.432-.824.966-1.456 1.943-1.558 7.823-.812 15.016.828 21.421 5.519-.395.401-.77.024-1.071-.106zm-9.152 90.917c-.369-.063-.62-.315-.863-.562-6.859-6.978-9.795-15.333-8.79-25.068.032-.301.136-.595.207-.892 1.312 0 2.627.057 3.934-.021.895-.053.917.368.735 1.001-.807 2.805-.791 5.679-.773 8.561.037 5.912 1.999 11.18 5.26 16.031.186.276.755.465.29.95zm-23.352-53.47c-3.822 4.197-6.108 9.165-7.347 14.658-.124.549.17 1.022.227 1.536-1.428-.959-2.589-2.209-3.754-3.451-.498-.531-.782-1.154-.62-1.915 2.889-13.606 13.032-21.252 23.544-23.552 1.153.972 1.384 2.428 1.88 3.728.127.331-.474.399-.784.506-5.076 1.757-9.514 4.501-13.146 8.49zm94.809 4.927c-1.271-2.987-2.749-5.848-5.148-8.123-4.404-5.006-9.799-8.456-16.199-10.333-.561-.439-1.199-.684-1.901-.804-.73-.126-1.457-.275-2.191-.384-.785-.116-1.082-.482-.685-1.254.28-.543.495-1.117.724-1.683 3.919-9.693 3.527-19.151-1.556-28.35-.299-.541-.66-1.025-1.223-1.322-.273-.379-.544-.759-.82-1.136-1.043-1.427-1.997-2.972-4.048-3.071-.532.246-1.125-.023-1.661.196-2.077.403-4.168.688-6.21 1.317-7.155 2.203-12.72 6.43-16.687 12.773-.379.607-.934.596-1.485.292-.341-.187-.629-.47-.941-.709-6.488-4.948-13.839-6.84-21.914-6.246-1.74.128-2.872.872-3.676 2.462-4.418 8.738-4.89 17.626-1.22 26.717.67 1.662.565 1.883-1.165 2.595-10.084 4.151-16.445 11.515-19.08 22.102-.37 1.488-.048 2.685 1.036 3.823 2.744 2.881 5.922 5.153 9.382 7.066a15.686 15.686 0 004.24 1.953c2.978.884 6.017 1.358 9.124 1.343 1-.004 1.477.314 1.24 1.387-.1.456-.21.945.071 1.397-.01.305 0 .612-.034.914-1.102 9.771 1.895 18.148 8.58 25.275.635.676 1.292 1.309 2.262 1.461.736.001 1.463.252 2.203.1 5.131-1.057 9.776-3.141 13.868-6.452a29.552 29.552 0 005.448-5.802c.564-.785 1.129-.981 1.965-.388 1.206.854 2.492 1.581 3.878 2.115 4.107 2.192 8.555 2.889 13.141 3.117 2.005.099 3.33-.734 4.341-2.34 3.987-6.331 6.053-13.14 5.144-20.683-.125-1.039.161-1.62 1.278-1.848 3.109-.632 6.005-1.849 8.743-3.443 4.395-2.557 7.864-6.073 10.637-10.302.754-1.151 1.107-2.396.539-3.732" fill="#8E6549"/><path d="M0 295.148c3.161-1.672 6.32-3.357 9.777-4.355 10.982-3.17 21.723-2.958 32.044 2.444 5.54 2.901 9.794 7.221 13.402 12.271 4.691 6.566 7.9 13.755 9.478 21.669.145.726.292 1.453.387 2.187.048.366.207.859-.26 1.051-.4.165-.596-.275-.815-.518-1.407-1.555-2.747-3.172-4.204-4.677-8.183-8.449-17.415-15.5-27.994-20.7-8.722-4.288-17.89-7.153-27.568-8.274-1.42-.165-2.87-.085-4.247-.573v-.525zM116.079 439.037l2.084-.053a13.255 13.255 0 013.383.004l1.821.048c.501.298 1.088-.036 1.594.221 5.83.891 11.46 2.506 16.9 4.766a61.912 61.912 0 0116.142 9.792c1.034.868 2.072 1.731 3.09 2.617.314.275.784.558.549 1.075-.219.483-.755.484-1.159.377-2.712-.72-5.495-1.05-8.252-1.498-3.349-.543-6.729-.95-10.121-1.044-5.595-.154-11.196-.227-16.782.243-11.838.996-23.237 3.783-34.156 8.48-5.276 2.269-10.252 5.091-15.022 8.284-.37.247-.745.793-1.263.422-.61-.437-.104-.982.073-1.408 5.975-14.389 16.095-24.553 30.763-30.031 2.823-1.054 5.776-1.648 8.759-2.073.507-.26 1.096.075 1.597-.222z" fill="#ADCD98"/><path d="M365.716 321.961c.625 2.775 1.971 5.292 2.844 7.979.174.538.393 1.061.584 1.595.787 2.201 1.948 2.858 4.242 2.429 6.146-1.149 12.3-2.264 18.439-3.453 1.145-.222 1.893.253 2.155 1.158.292 1.004-.446 1.611-1.43 1.799-4.174.794-8.351 1.574-12.526 2.366-1.747.332-3.5.643-5.236 1.031-1.927.431-2.838 2.007-2.167 3.818a905.999 905.999 0 004.95 13.07c.908 2.34.659 2.984-1.709 3.779-1.24.416-2.479.83-3.727 1.22-1.547.485-2.047.262-2.606-1.208a3490.771 3490.771 0 01-5.899-15.602c-.811-2.162-1.936-2.721-4.277-2.278-5.497 1.04-11.007 2.009-16.511 3.011-.427.077-.849.182-1.274.274a2.376 2.376 0 01-1.562-.005c-.591-.415-1.159-.91-.967-1.696.207-.849.864-1.114 1.748-1.269 5.561-.974 11.105-2.049 16.658-3.07 2.503-.461 3.45-2.072 2.573-4.398a933.402 933.402 0 01-3.172-8.555c-.647-1.768-2.065-2.531-3.9-2.109-5.296 1.219-10.596 2.421-15.895 3.628-1.142.26-2.057-.22-2.264-1.179-.182-.838.507-1.613 1.549-1.85 4.958-1.129 9.92-2.245 14.864-3.436 2.178-.525 2.999-2.195 2.199-4.323a972.01 972.01 0 00-4.901-12.781c-.515-1.315-.312-2.461 1.336-2.832 1.61-.363 3.183-.895 4.764-1.38 1.141-.35 1.832.068 2.237 1.152 1.817 4.852 3.648 9.699 5.475 14.546.728 1.931 1.981 2.561 4.023 2.092 7.245-1.665 14.495-3.308 21.738-4.982.979-.226 1.585.194 2.092.931.168.435.18.868-.007 1.301-.641.918-1.69 1.024-2.641 1.246-6.54 1.525-13.088 3.012-19.634 4.514-1.139.261-1.985.836-2.162 2.095-.198.457-.189.914-.003 1.372zM258.363 117.696c-.61-.155-.848-.601-.734-1.158.113-.549.547-.856 1.109-.925.298-.037.6-.028.901-.04.409.232.855.12 1.283.121 4.41.009 8.819.009 13.229 0 .428-.001.874.111 1.284-.121 1.179-.257 1.859-1.07 2.344-2.101.296-1.978.045-3.969.135-5.952.042-.903-.127-1.815.106-2.711.046-.379.216-.724.615-.734 1.78-.045 3.564-.152 5.34.065.229.028.433.266.648.408.246 2.245.033 4.497.112 6.745.016.469-.121.954.122 1.404.111 1.668.844 2.561 2.356 2.873.452.245.941.122 1.411.123 4.925.011 9.849.003 14.773.012.472.001.959-.11 1.416.111.486.474.537.981.374 1.66-1.987 8.295-5.727 15.642-11.481 21.986-1.975 2.178-4.149 4.086-6.441 5.889-1.084.853-1.685 1.84-1.657 3.342.09 4.982.037 9.967.032 14.951-.001 1.732-.314 2.036-2.07 2.042-1.093.004-2.186-.004-3.279.003-.488.003-.98.04-1.23-.516-.229-3.031-.03-6.067-.104-9.099-.012-.469.121-.956-.124-1.406-.721-2.177-2.407-3.064-4.553-2.367-2.804.911-5.63 1.71-8.594 1.889-.411.243-.916-.067-1.32.224-.83.001-1.66-.014-2.49.008-.625.016-1.205-.148-1.354-.775-.157-.664.461-.996.926-1.278 1.596-.97 3.247-1.85 4.828-2.841 3.753-2.354 7.237-5.06 10.599-7.95 4.686-4.03 8.606-8.716 12.128-13.752a55.281 55.281 0 003.267-5.338c1.02-1.881.059-3.802-2.137-4.567-.453-.242-.943-.122-1.414-.123-9.644-.008-19.288-.004-28.931-.01-.475 0-.96.09-1.425-.092zM206.091 310.662l.036 3.927a11.834 11.834 0 010 3.388l-.036 3.928c-.327.677.061 1.431-.228 2.112l-.033 1.567c-.311.494.043 1.085-.232 1.585-.099 2.34.686 3.164 3.03 3.165 7.089.001 14.178-.001 21.266.002.564 0 1.144-.087 1.655.258.262.425.164.863.042 1.3-.377.706-1.05.509-1.635.51-7.432.008-14.863.005-22.295.006-2.413 0-2.893.4-3.376 2.688-.976 4.628-2.446 9.068-4.915 13.144-3.044 5.025-7.384 8.249-13.114 9.577-.378.087-.779.071-1.17.102-.412.254-.921-.06-1.328.228-1.204-.36-.745-.937-.172-1.484 2.144-2.051 4.141-4.209 5.728-6.75 2.848-4.556 4.672-9.5 5.823-14.712.348-1.579-.845-2.781-2.703-2.789-3.887-.016-7.774-.005-11.661-.005-3.625 0-7.249.005-10.874-.006-.463-.002-.971.153-1.368-.248-.125-.612-.226-1.222.052-1.822l24.536.001c2.749 0 3.169-.407 3.559-3.173.794-5.625 1.029-11.277 1.087-16.954.022-2.151-1.514-3.252-3.184-2.968-2.693.457-5.405.191-8.109.231-.965.014-1.881-.268-2.813-.453-.327-.065-.792-.075-.805-.514-.013-.437.46-.458.77-.56a186.721 186.721 0 0010.198-3.664c5.4-2.118 10.618-4.616 15.734-7.333.787-.418 1.421-.451 2.14.139 1.547 1.27 3.147 2.475 4.714 3.722.965.767.95 1.18-.115 1.86a33.623 33.623 0 01-7.799 3.649c-2.765.889-2.781 1.584-2.629 3.973.285.771-.106 1.606.224 2.373zM204.498 262.604c.126-.766.802-1.11 1.258-1.618 4.251-4.741 3.182-9.065-1.092-12.74-3.188-2.741-6.983-4.49-10.924-5.91-.484-.174-1.007-.367-1.051-1.021-.2-.462-.1-.948-.101-1.422-.007-7.901-.003-15.801-.011-23.701 0-.472.114-.961-.116-1.417a.533.533 0 00-.04-.23c-.844-.294-1.716-.105-2.573-.127-3.594-.09-7.191.139-10.782-.12-.511-.035-.766-.328-.826-.817-.15-.869-.174-1.736.013-2.603.241-.844.937-.782 1.588-.783 3.66-.004 7.32-.001 10.98-.003.561 0 1.141.086 1.627-.31.248-.406.128-.855.129-1.283.01-4.113.003-8.226.011-12.338 0-.432-.09-.876.099-1.296.098-3.141.098-3.141 3.32-3.141 1.138.001 2.276-.018 3.412.005 1.456.03 1.948.537 1.95 1.993.005 4.943.038 9.887-.023 14.83-.016 1.224.374 1.61 1.579 1.564 2.14-.082 4.287 0 6.43-.034.976-.015 2.009.026 2.18 1.156.165 1.095.501 2.426-.983 3.07-2.506.229-5.018.036-7.526.108-.468.013-.954-.123-1.403.124-.428.389-.243.903-.244 1.359-.012 7.253.015 14.506-.033 21.759-.007 1.09.424 1.601 1.32 2.124 4.586 2.681 8.846 5.758 11.576 10.489 2.864 4.965 1.47 9.689-3.593 12.4-1.472.788-3.051 1.268-4.613 1.814-.74.259-1.145-.067-1.528-.588-.174-.43-.159-.861-.01-1.293zM358.13 148.089c-.224-1.398-1.428-1.932-2.409-2.589-2.683-1.799-5.036-3.992-7.46-6.099-.716-.622-1.268-1.429-1.912-2.137-.523-.576-.23-1.095.165-1.509a122.045 122.045 0 013.433-3.431c.462-.448.902-.499 1.466.006 3.409 3.048 6.936 5.953 10.663 8.612 1.371.978 2.954.947 4.136-.271 1.823-1.878 3.247-4.078 4.76-6.195a185.837 185.837 0 0011.793-18.796c.492-.898.999-1.327 2.052-.694 1.157.697 2.406 1.241 3.619 1.844 1.021.508 1.344 1.094.748 2.273-3.57 7.051-7.411 13.94-11.853 20.481-1.027 1.512-2.052 3.036-3.213 4.443-1.38 1.672-.973 4.249 1.175 5.394 3.699 1.972 7.401 3.935 11.157 5.794.459.227 1.033.402.869 1.107-.171.736-.76.732-1.351.718-.525-.012-1.05-.002-1.575-.002-.404-.29-.913.025-1.323-.227-4.74-.332-9.119-2-13.501-3.649-1.462-.55-2.705-.494-3.947.652-4.5 4.153-9.319 7.843-15.275 9.712-1.49.468-3.003.871-4.584.902a8.5 8.5 0 01-2.864-.007c-.812-.801-.256-1.379.397-1.773 5.256-3.165 9.706-7.285 13.946-11.661.369-.382.692-.781.878-1.281.212-.538.197-1.077.01-1.617zM382.022 262.097c-3.096-.102-5.525-1.617-7.703-3.652-3.221-3.01-5.828-6.604-9.077-9.584-1.534-1.406-3.126-2.682-5.292-3.144-3.534-.754-7.387 1.889-7.892 5.481-.338 2.402-.867 4.778-1.286 7.17-.164.938-.694 1.367-1.625 1.326-1.521-.067-2.985-.472-4.466-.774-.781-.159-1.026-.701-1.006-1.45.06-2.262.621-4.453.93-6.68.53-3.809 1.134-7.607 1.72-11.407.565-3.671 1.158-7.338 1.718-11.01.573-3.759 1.115-7.523 1.681-11.282.451-2.991.913-5.98 1.382-8.968.408-2.602.853-5.199 1.234-7.805.094-.638.224-1.191.798-1.549a1.83 1.83 0 011.29-.004c1.234.235 2.465.477 3.7.701 1.079.196 1.447.865 1.283 1.888-.67 4.187-1.367 8.371-2.016 12.562-.661 4.276-1.273 8.561-1.918 12.84-.374 2.481-.946 4.934-1.047 7.454-.183.45-.213.899.007 1.347.25 1.354 1.134 1.926 2.431 1.84 4.477-.295 7.946 1.715 11.058 4.671 4.09 3.883 7.336 8.475 10.861 12.83 1.558 1.924 3.44 3.431 5.487 4.774 1.222.802 1.23 1.401.084 2.423a5.926 5.926 0 01-2.336.002z" fill="#FEDDA5"/><path d="M484.41 213.737l-.034-1.303c-.253-.411.064-.919-.229-1.322l-.03-1.04c-.26-.408.063-.919-.233-1.322-.624-4.276-1.163-8.568-1.891-12.827-.999-5.85-2.365-11.626-3.891-17.36-.703-2.639-1.374-5.292-2.341-7.855.124-.156.191-.421.485-.255 1.911 5.686 3.656 11.422 5.082 17.249 1.329 5.435 2.509 10.904 3.327 16.442.577 3.902 1.074 7.816 1.607 11.724.276.5-.078 1.092.232 1.587l.038 1.566c.245.413-.064.919.224 1.324l.035 1.826c.276.593-.088 1.264.226 1.852l.037 2.349c.298.949-.111 1.953.227 2.899l.036 6.291a6.952 6.952 0 010 2.6l-.035 6.293c-.338.945.067 1.947-.225 2.895l-.038 2.618c-.329.676.061 1.431-.23 2.111l-.032 1.566c-.308.495.037 1.083-.227 1.583l-.038 1.561c-.287.407.027.917-.229 1.329-.69 6.084-1.544 12.144-2.708 18.155-1.905 9.837-4.477 19.496-7.822 28.943a216.42 216.42 0 01-7.05 17.442c-5.128 11.265-11.241 21.963-18.3 32.123-3.927 5.651-8.117 11.097-12.619 16.31-3.938 4.559-7.94 9.056-12.267 13.244-7.804 7.552-16.052 14.575-24.923 20.863a218.062 218.062 0 01-24.028 14.78c-10.891 5.771-22.251 10.384-33.994 14.08-2.484.782-4.95 1.66-7.536 2.085-.275.11-.311-.017-.245-.246 4.741-1.602 9.515-3.117 14.214-4.836 3.346-1.223 6.604-2.691 9.878-4.104a175.204 175.204 0 0012.153-5.807A235.774 235.774 0 00388.5 411a213.37 213.37 0 0017.967-12.889c3.562-2.844 6.988-5.862 10.361-8.941a217.76 217.76 0 0012.394-12.254c5.989-6.417 11.52-13.236 16.652-20.379a211.732 211.732 0 0019.213-32.478 195.096 195.096 0 007.504-17.932c2.84-7.894 5.314-15.895 7.201-24.071 1.373-5.948 2.607-11.922 3.322-17.992.212-1.802.512-3.593.771-5.39.294-.403-.029-.914.233-1.324l.029-1.04c.293-.403-.023-.911.228-1.32l.037-1.301c.306-.497-.042-1.087.229-1.589l.034-1.561c.303-.496-.04-1.086.226-1.588l.036-2.089c.323-.677-.056-1.428.224-2.11l.038-3.404c.247-.499.117-1.031.119-1.546.012-4.234.01-8.469.001-12.703-.001-.428.112-.875-.122-1.283l-.036-3.145c-.28-.681.1-1.433-.225-2.11l-.032-1.826c-.283-.592.087-1.264-.229-1.852l-.033-1.56c-.274-.5.078-1.091-.232-1.586zM76.914 178.039c1.265-5.403 3.007-10.665 4.855-15.887 3.05-8.617 6.72-16.974 10.932-25.087a204.142 204.142 0 0120.599-32.007c3.665-4.673 7.558-9.147 11.596-13.507a195.869 195.869 0 0112.293-12.178 209.145 209.145 0 0121.542-17.047 203.967 203.967 0 0128.57-16.498 205.7 205.7 0 0130.072-11.46 207.03 207.03 0 0126.247-5.888c4.857-.766 9.738-1.41 14.658-1.68 2.393-.13 4.78-.348 7.17-.527 1.127-.299 2.301.108 3.426-.228h12.818c1.124.34 2.3-.076 3.426.231l2.091.03c.675.33 1.427-.057 2.107.228l1.826.036c.497.306 1.087-.041 1.588.229l1.56.035c.407.286.916-.027 1.329.228 1.14.057 2.253.426 3.409.292.4.3.91-.026 1.317.233l12.068 1.878c.073.693-.615.167-.777.484l-7.589-1.032c-.401-.296-.908.022-1.316-.228l-1.306-.036c-.494-.311-1.085.043-1.585-.231l-1.305-.03c-.584-.324-1.254.049-1.843-.23l-1.827-.035c-.677-.327-1.431.059-2.112-.228l-2.615-.034c-1.3-.352-2.647.084-3.949-.23l-11.05.001c-1.303.31-2.649-.121-3.95.228l-2.877.036c-.68.285-1.433-.1-2.108.228l-1.83.035c-.503.264-1.091-.078-1.589.225l-1.561.035c-.499.27-1.089-.08-1.583.23-2.542.267-5.093.474-7.626.812-4.21.562-8.405 1.238-12.573 2.063-6.783 1.343-13.497 2.97-20.125 4.943-9.619 2.864-18.972 6.418-28.088 10.62a212.256 212.256 0 00-26.338 14.506 203.505 203.505 0 00-16.542 11.889c-4.528 3.614-8.938 7.38-13.125 11.403-1.7 1.633-3.432 3.235-5.092 4.91a217.921 217.921 0 00-22.141 26.155 210.805 210.805 0 00-17.514 29.028c-5.391 10.804-9.878 21.979-13.313 33.565-.462.017-.398-.225-.25-.508zM177.46 165.702c-.416-.134-1.031.264-1.243-.4-.216-.679.248-.986.746-1.34 4.243-3.017 7.913-6.645 11.385-10.513 6.993-7.792 12.648-16.492 17.688-25.623 2.447-4.432 4.654-8.986 6.787-13.576.691-1.487.761-1.477 2.269-.747 1.611.779 3.218 1.566 4.852 2.294.8.356 1.026.811.694 1.64-3.851 9.612-8.168 18.987-13.936 27.631-2.375 3.558-4.98 6.953-7.996 9.972-4.971 4.976-10.604 8.913-17.715 10.26-.567.107-1.128.075-1.683.176-.592.275-1.261-.091-1.848.226zM273.074 216.918c2.459.011 2.497.042 2.627 2.102.269.501-.079 1.091.228 1.587l.036 1.564c.266.501-.079 1.09.227 1.585l.035 1.565c.268.501-.08 1.09.228 1.585.003.554.013 1.108.008 1.661-.006.54.173.915.779.947.584.27 1.202.121 1.802.124 3.793.016 7.586.012 11.379.002.427-.001.873.115 1.28-.125 2.163-2.816 3.767-5.94 4.946-9.271.368-1.039.92-1.393 1.933-1.213l4.354.772c.954.169 1.233.677.856 1.59-1.247 3.016-2.745 5.827-5.637 7.643-1.443.907-1.36 1.538.175 2.362 2.28 1.226 3.988 2.961 4.638 5.539.959 3.808-1.462 6.533-3.827 7.988-.972.598-2.045.979-3.135 1.29-.496.142-1.094.295-1.467-.18-.395-.503-.17-1.013.145-1.557.763-1.312 1.515-2.646 1.738-4.19a3.722 3.722 0 00.004-2.135c-.543-2.733-2.425-3.968-4.981-4.448-.984-.273-1.988-.112-2.982-.12-3.227-.024-6.455-.013-9.682-.003-.427.002-.874-.114-1.28.124l-.254.257a2.197 2.197 0 00-.005 1.609l.037 1.565c.264.5-.083 1.087.228 1.58l.03 1.306c.272.501-.076 1.093.23 1.589l.036 1.563c.266.5-.081 1.089.228 1.583l.032 1.304c.27.502-.076 1.093.228 1.59l.035 1.561c.271.5-.08 1.09.23 1.585l.036 1.567c.246.414-.06.92.223 1.328l.036 1.559c.27.501-.078 1.09.229 1.585l.037 1.566c.134.525.208 1.048-.053 1.56-.581.614-1.355.497-2.084.549-.501.279-1.094-.076-1.591.232-.923-.078-2.207.418-2.097-1.312-.278-.501.076-1.094-.232-1.589l-.038-1.565c-.247-.412.063-.919-.224-1.324l-.032-1.299c-.276-.501.076-1.093-.231-1.59l-.038-1.563c-.246-.412.063-.919-.224-1.325l-.039-1.563c-.246-.412.063-.919-.224-1.325l-.03-1.297c-.278-.501.074-1.095-.232-1.592l-.038-1.562c-.247-.413.061-.92-.224-1.326l-.039-1.562c-.247-.413.062-.92-.224-1.327l-.037-1.56c-.25-.413.061-.921-.225-1.328.057-.453-.079-.813-.496-1.041-2.339-.263-4.687-.037-7.029-.122-.907-.034-1.823.14-2.721-.113-.341-.025-.52-.215-.557-.549a8.468 8.468 0 01.004-2.863l.298-.299c2.595-.232 5.196-.033 7.794-.107.469-.014.955.119 1.406-.122.759-.159 1.099-.554.894-1.376-.123-.493-.109-1.021-.156-1.532-.248-.414.06-.921-.224-1.329l-.037-1.559c-.268-.501.079-1.09-.228-1.585l-.036-1.566c-.248-.413.06-.921-.224-1.328.009-2.007.009-2.007 1.838-2.099.502-.267 1.091.078 1.587-.227z" fill="#FEDDA5"/><path d="M490.167 52.625c-.011 11.895-.012 23.79-.054 35.684-.004.984.464 1.016 1.201 1.015 6.385-.016 12.771.02 19.155-.035 1.163-.01 1.536.247 1.531 1.487-.05 12.638-.031 25.278-.03 37.917-.411.23-.858.121-1.287.121-26.159.006-52.318.006-78.477.005-1.488 0-1.491-.002-1.491-1.475-.001-11.243.002-22.485-.002-33.727-.001-1.735.176-1.553-1.534-1.553-40.244-.002-80.488 0-120.733-.011-.504 0-1.048.19-1.516-.176l-.008-39.3c.398-.277.85-.145 1.275-.145 60.243-.007 120.485-.007 180.727.002.414 0 .877-.18 1.243.19z" fill="#D6996F"/><path d="M276.73 326.381c-.498-.862-1.285-1.063-2.22-1.058-3.707.021-7.414.01-11.12.008-.609-.001-1.278.091-1.391-.789-.157-.52-.171-1.04.01-1.558.434-.674 1.1-.771 1.828-.771 11.823.005 23.646.001 35.468.009.779.001 1.583.019 2.11.76.189.52.175 1.04.011 1.562-.373.754-1.036.8-1.774.797-4.231-.019-8.462-.011-12.693-.007-.798.001-1.611.004-1.842 1.031-.185.278-.122.592-.122.893-.003 5.984-.003 11.968 0 17.952 0 .301-.064.615.125.891.147.886.835 1.003 1.534 1.022.983.027 1.966-.009 2.95-.018 3.666-.165 7.333-.162 11-.003.357.199.633.477.833.832.128.525.204 1.047-.054 1.558l-.508.539c-.324.189-.682.114-1.025.114-12.09.003-24.179.003-36.268 0-.344 0-.701.073-1.027-.112l-.541-.542c-.191-.517-.167-1.037-.018-1.558.112-.876.775-.796 1.388-.797 3.708-.001 7.416-.012 11.125.008.933.005 1.727-.184 2.219-1.056.197-.273.131-.588.131-.887.003-5.978.003-11.955 0-17.932 0-.3.066-.615-.129-.888z" fill="#FEDDA5"/><path d="M161.191 466.557c4.202.661 8.21 1.877 11.855 4.133.111.069.272.092.341.187.316.425 1.283.395 1.046 1.125-.193.593-.922.345-1.418.334-14.39-.335-27.418 3.941-39.431 11.644-1.137.73-2.203 1.571-3.314 2.343-.305.212-.627.629-1.031.335-.419-.304-.099-.739.039-1.072 1.233-2.961 2.857-5.695 4.934-8.143 5.107-6.014 11.671-9.447 19.378-10.763 1.974-.338 3.992-.402 6.004-.337.503.291 1.088-.031 1.597.214z" fill="#ADCD98"/><path d="M306.898 155.989l-4.154-.002c-.406-.288-.915.026-1.327-.227-2.751-.21-5.375-.903-7.848-2.125-1.208-.596-1.322-1.041-.634-2.131.951-1.506 1.947-2.984 2.848-4.52.438-.746.93-.841 1.61-.451 4.502 2.583 9.26 4.612 14.077 6.516.472.186.995.344.966 1.056-.029.717-.561.793-1.052.956-1.031.34-2.058.696-3.163.7-.411.252-.919-.064-1.323.228z" fill="#FEDDA5"/><path d="M277.521 442.73c-5.38-.525-10.68-5.327-11.347-11.33-.186-.443.045-.944-.188-1.381l.004-1.394c.224-.447-.012-.959.2-1.408.784-5.258 4.789-10.069 10.832-10.992 7.56-1.156 14.125 3.194 15.553 10.694.974 5.114-.498 9.686-5.365 13.395-1.715 1.307-3.65 2.07-5.764 2.414a16.158 16.158 0 01-3.925.002z" fill="#8E6549"/><path d="M47.223 213.11c.031-7.434 6.022-13.332 13.505-13.295 7.396.036 13.352 6.1 13.296 13.536-.056 7.301-6.129 13.277-13.473 13.259-7.41-.018-13.36-6.044-13.328-13.5z" fill="#8E654A"/><path d="M263.896 452.144c-.71 2.668-2.059 4.833-4.651 6.075-5.108 2.448-10.781-.909-11.44-5.813-.201-.448.031-.956-.195-1.4v-.333c.227-.445-.008-.954.197-1.401.572-3.616 3.467-6.185 7.359-6.529 3.358-.297 7.009 1.972 8.153 5.076.208.566.384 1.143.575 1.715.155.87.152 1.74.002 2.61zM81.4 236.798c.02-4.441 3.685-8.072 8.141-8.066 4.44.005 8.098 3.664 8.108 8.108.01 4.487-3.716 8.179-8.214 8.139-4.434-.04-8.056-3.728-8.035-8.181zM275.915 461.084c.552-2.694 2.605-4.477 5.398-4.69 2.643-.201 5.193 1.47 6.073 3.98.909 2.593.01 5.309-2.254 6.868a8.03 8.03 0 01-1.848.947c-.442.24-.96-.021-1.403.214l-.073.001c-.442-.232-.954.014-1.399-.204-2.638-.614-4.037-2.238-4.511-4.768-.125-.784-.159-1.567.017-2.348z" fill="#8E664A"/><path d="M68.41 247.854c3.367-.019 5.984 2.586 5.977 5.949-.008 3.302-2.59 5.898-5.885 5.917-3.323.019-6.013-2.647-6.006-5.956.006-3.252 2.647-5.892 5.914-5.91z" fill="#8F664B"/><path d="M262.555 350.034c12.773-.002 25.547-.002 38.321-.003-.393.417-.904.244-1.363.245-11.865.009-23.73.009-35.594 0-.46-.001-.97.171-1.364-.242zM258.363 117.696c10.219-.005 20.438-.011 30.657-.012.383 0 .796-.095 1.112.237-10.175.002-20.351.006-30.526.001-.421 0-.884.142-1.243-.226zM192.462 214.775c.354.364.229.824.229 1.247.004 8.431.001 16.862-.002 25.293-.349-.311-.237-.728-.237-1.108-.001-8.477.005-16.954.01-25.432zM285.12 346.101c-.342-.309-.249-.723-.249-1.105-.005-5.841-.005-11.682 0-17.524 0-.382-.093-.795.246-1.106l.003 19.735zM276.73 326.381c.343.309.245.722.245 1.103.005 5.834.005 11.668 0 17.502 0 .38.098.794-.247 1.102l.002-19.707M304.813 115.816c-5.409.001-10.819.005-16.229-.004-.463-.001-.97.15-1.37-.242 5.455-.002 10.911-.006 16.367 0 .419.001.884-.144 1.232.246zM275.434 115.573c-.272.295-.634.242-.977.241-4.611-.002-9.223-.007-13.835-.014-.343 0-.704.057-.983-.227h15.795zM485.197 225.816c.286.277.233.638.233.981.003 4.523.003 9.046.001 13.569 0 .343.052.703-.232.982l-.002-15.532zM192.687 194.865c.003 4.653.009 9.306.007 13.959 0 .333.103.708-.246.958 0-4.518-.005-9.036.007-13.554.002-.458-.167-.964.232-1.363zM291.703 229.515c-.226.27-.537.243-.84.243l-12.775-.009c-.303-.001-.614.025-.846-.235l14.461.001zM277.501 233.706c.221-.273.533-.254.837-.254l12.262.006c.304 0 .614-.007.845.247l-13.944.001zM179.066 214.298c4.044-.003 8.089-.01 12.134-.002.415.001.881-.156 1.222.249-3.999 0-7.998.006-11.997-.007-.457-.002-.966.169-1.359-.24zM300.604 347.103l-11 .002c.191-.225.452-.235.717-.235h9.564c.265 0 .527.008.719.233zM311.636 29.95l.777-.485 5.661 1.082-.047.286-6.391-.883zM278.833 154.668c.358.36.232.818.233 1.24.006 3.088-.001 6.177-.004 9.266-.371-.357-.228-.819-.229-1.237-.009-3.09-.002-6.179 0-9.269zM260.715 233.459c2.836-.003 5.673-.01 8.508-.003.423.001.883-.125 1.242.238-2.882.006-5.765.015-8.648.013-.38 0-.797.111-1.102-.248zM269.66 229.52c-.634.445-1.352.207-2.026.217-2.391.032-4.783.012-7.174.011.445-.418.995-.225 1.496-.228 2.568-.018 5.136-.004 7.704 0zM201.623 214.54c.35-.382.812-.244 1.231-.245 2.566-.005 5.132.007 7.698.013-.535.448-1.171.219-1.756.225-2.391.027-4.782.009-7.173.007zM278.02 104.809c.006 2.521.015 5.042.014 7.562 0 .381.085.794-.255 1.101-.001-2.477-.008-4.955.003-7.432.002-.418-.142-.88.238-1.231zM476.246 170.453l-.485.255-1.352-4.741c-.069-.262.041-.327.278-.252l1.559 4.738zM284.857 112.697c-.477-.992-.181-2.045-.214-3.067-.056-1.693-.019-3.388-.02-5.082.497.714.21 1.519.227 2.277.043 1.956.01 3.914.007 5.872zM76.914 178.039c.023.199.04.402.25.508l-1.3 4.499c.114-1.726.406-3.406 1.05-5.007zM334.771 435.897l.245.246c-1.336.577-2.747.836-4.196.949 1.315-.415 2.56-1.042 3.951-1.195z" fill="#FEDDA5"/><path d="M474.687 165.715l-.277.253c-.524-.896-.745-1.888-.814-2.943l1.091 2.69zM286.189 27.634c1.316.085 2.657-.273 3.949.23-1.314-.119-2.659.293-3.949-.23zM271.189 27.864c1.292-.503 2.634-.147 3.95-.228-1.291.518-2.636.111-3.95.228zM268.874 26.045c-1.114.49-2.284.152-3.426.228 1.113-.518 2.286-.119 3.426-.228zM206.127 317.977v-3.389a5.135 5.135 0 010 3.389zM285.118 26.277c-1.142-.083-2.311.26-3.425-.233 1.139.113 2.313-.293 3.425.233zM487.281 229.271c-.475-.935-.155-1.932-.227-2.899.504.933.119 1.935.227 2.899zM260.162 230.047l-.004 2.864c-.376-.956-.381-1.91.004-2.864zM342.899 164.421l2.864.007c-.956.371-1.91.382-2.864-.007zM487.057 247.35c.07-.965-.249-1.96.225-2.895-.109.963.273 1.963-.225 2.895zM178.253 210.878l-.013 2.603c-.369-.87-.388-1.738.013-2.603zM487.317 238.162v-2.6c.379.867.38 1.734 0 2.6zM206.091 310.662c-.445-.757-.176-1.58-.224-2.374.472.754.135 1.584.224 2.374zM382.022 262.097l2.336-.002c-.779.369-1.557.365-2.336.002zM289.316 26.534c-.705-.053-1.445.22-2.107-.228.701.093 1.448-.245 2.107.228zM486.789 252.079c.056-.706-.22-1.448.23-2.11-.094.701.248 1.45-.23 2.11zM266.204 28.128c.662-.45 1.403-.175 2.108-.228-.66.473-1.407.135-2.108.228zM292.753 27.899c.707.053 1.448-.222 2.112.228-.702-.092-1.451.247-2.112-.228zM484.936 220.561c.449.664.174 1.404.225 2.11-.469-.661-.134-1.408-.225-2.11zM296.426 238.154c.372.712.372 1.423-.004 2.134l.004-2.134zM205.862 324.017c.057-.706-.219-1.448.23-2.111-.093.701.248 1.451-.23 2.111zM485.161 244.752c-.051.706.224 1.446-.225 2.11.09-.702-.244-1.449.225-2.11zM296.692 28.162c.619.042 1.273-.204 1.843.23-.614-.082-1.276.227-1.843-.23zM168.583 330.333l-.052 1.822c-.354-.618-.425-1.228.052-1.822zM487.017 224.023c-.43-.574-.184-1.231-.226-1.852.457.571.15 1.235.226 1.852zM177.46 165.702c.573-.425 1.229-.18 1.848-.226-.57.455-1.232.148-1.848.226zM484.675 216.883c.432.573.185 1.231.229 1.853-.462-.57-.152-1.236-.229-1.853zM277.242 235.572c-.341-.537-.39-1.073.005-1.608l-.005 1.608zM261.996 347.933l.018 1.558c-.386-.515-.375-1.035-.018-1.558zM301.383 349.492l.054-1.558c.342.532.39 1.054-.054 1.558zM276.192 223.756c-.407-.481-.197-1.05-.227-1.585.433.477.162 1.055.227 1.585zM275.929 220.607c-.407-.482-.196-1.052-.229-1.587.437.477.164 1.056.229 1.587zM273.075 216.918c-.483.407-1.053.196-1.588.227.478-.434 1.057-.163 1.588-.227zM486.494 217.455c-.408-.481-.198-1.052-.233-1.587.441.476.166 1.057.233 1.587zM484.641 252.1c-.033.536.18 1.107-.23 1.588.065-.531-.208-1.11.23-1.588zM272.535 252.065c.409.482.197 1.055.232 1.591-.442-.478-.167-1.059-.232-1.591zM269.908 222.138c.409.48.198 1.05.229 1.585-.435-.477-.163-1.055-.229-1.585zM484.41 213.737c.41.48.198 1.051.232 1.586-.439-.476-.165-1.056-.232-1.586zM292.731 26.799c-.536-.033-1.107.178-1.588-.229.531.064 1.11-.208 1.588.229zM262.785 28.388c.483-.407 1.053-.197 1.589-.225-.479.432-1.057.163-1.589.225zM278.556 250.797c-.409-.48-.197-1.05-.231-1.585.438.477.164 1.056.231 1.585zM279.064 259.963l.052-1.56c.347.532.396 1.054-.052 1.56zM259.641 28.653c.48-.409 1.05-.197 1.584-.23-.476.436-1.055.163-1.584.23zM484.901 248.951c-.029.536.182 1.106-.226 1.588.063-.531-.208-1.11.226-1.588zM277.767 241.612c-.409-.482-.198-1.053-.23-1.589.439.477.165 1.058.23 1.589zM277.507 238.717c-.409-.479-.199-1.047-.228-1.58.431.476.16 1.052.228 1.58zM301.426 324.544l-.011-1.562c.385.518.379 1.039.011 1.562zM278.291 247.652c-.407-.482-.198-1.054-.229-1.59.438.478.166 1.058.229 1.59zM273.06 257.843c.409.481.197 1.053.232 1.589-.442-.477-.167-1.058-.232-1.589zM271.748 243.4c.409.482.197 1.055.232 1.592-.443-.477-.168-1.059-.232-1.592zM205.598 327.168c.034-.534-.177-1.104.232-1.584-.067.53.207 1.109-.232 1.584zM275.389 260.744c.482-.409 1.055-.197 1.591-.233-.477.444-1.059.168-1.591.233zM299.841 28.422c.534.033 1.104-.178 1.583.232-.529-.068-1.108.206-1.583-.232zM262.01 322.985l-.011 1.557c-.362-.522-.368-1.041.011-1.557zM278.031 244.757c-.408-.479-.198-1.048-.228-1.582.433.476.161 1.054.228 1.582zM358.13 148.089c.361.541.371 1.08-.01 1.618l.01-1.618zM279.08 256.837c-.408-.48-.197-1.05-.229-1.585.436.476.164 1.056.229 1.585zM486.53 255.228c.029-.534-.18-1.102.227-1.582-.066.528.204 1.106-.227 1.582zM276.455 226.906c-.408-.48-.197-1.05-.229-1.585.435.477.163 1.056.229 1.585zM340.006 342.944l1.562.005c-.522.373-1.043.376-1.562-.005zM354.428 198.765l-1.29.004c.429-.355.859-.353 1.29-.004zM278.815 253.693c-.373-.393-.211-.875-.223-1.328.399.388.179.88.223 1.328zM272.798 254.954c.374.391.211.872.224 1.324-.399-.386-.179-.878-.224-1.324zM270.174 225.283c.373.392.211.874.224 1.328-.401-.388-.18-.881-.224-1.328zM231.591 331.894l-.042-1.3c.426.42.39.855.042 1.3zM484.375 254.99c-.014.45.149.932-.228 1.32.049-.445-.173-.936.228-1.32zM486.263 258.118c.017-.453-.147-.937.228-1.328-.044.448.178.942-.228 1.328zM484.118 257.35c-.018.452.146.936-.233 1.324.049-.446-.175-.94.233-1.324zM204.498 262.604l.01 1.293c-.365-.428-.36-.859-.01-1.293zM271.223 237.623c.374.392.212.875.224 1.327-.399-.387-.179-.879-.224-1.327zM270.961 234.735c.374.392.21.875.225 1.328-.401-.387-.181-.88-.225-1.328zM183.758 358.149c.392-.371.876-.21 1.328-.228-.386.405-.88.183-1.328.228zM354.437 235.557c-.365-.447-.356-.896-.007-1.347l.007 1.347zM390.156 312.734l.007-1.301c.366.436.371.87-.007 1.301zM269.648 219.244c.374.392.211.875.225 1.328-.401-.388-.18-.88-.225-1.328zM486.756 220.345c-.374-.391-.212-.872-.225-1.324.398.387.178.878.225 1.324zM383.07 156.81c.451.018.933-.146 1.323.228-.446-.047-.938.175-1.323-.228zM365.716 321.961c-.353-.458-.356-.915.003-1.372l-.003 1.372zM306.898 155.989c.39-.374.872-.211 1.323-.229-.385.402-.877.181-1.323.229zM301.417 155.76c.452.016.935-.147 1.326.227-.447-.046-.94.176-1.326-.227zM295.619 27.062c-.453-.016-.937.147-1.329-.228.449.045.942-.177 1.329.228zM264.367 154.414c.389-.373.869-.211 1.319-.225-.385.396-.875.177-1.319.225zM300.345 27.588c-.449-.019-.931.145-1.317-.234.443.052.936-.172 1.317.234zM302.731 28.69c.449.013.929-.15 1.316.227-.443-.05-.934.17-1.316-.228zM272.01 246.289c.374.391.212.873.225 1.325-.399-.387-.179-.878-.225-1.325zM484.147 211.112c.377.389.214.871.229 1.322-.402-.385-.18-.877-.229-1.322zM271.486 240.512c.373.391.212.874.224 1.326-.4-.387-.18-.879-.224-1.326zM272.273 249.177c.374.391.211.873.224 1.325-.399-.387-.179-.878-.224-1.325zM483.884 208.75c.379.388.214.871.233 1.322-.407-.383-.183-.876-.233-1.322z" fill="#FEDDA5"/><path d="M398.547 53.374h88.606c1.979 0 1.979 0 1.979 1.914 0 11.202.019 22.404-.028 33.605-.004 1.164.296 1.46 1.454 1.45 6.431-.06 12.864-.003 19.296-.053 1.092-.01 1.389.293 1.385 1.386-.038 11.639-.038 23.278.001 34.917.003 1.066-.328 1.3-1.337 1.299-25.598-.026-51.195-.029-76.793.006-1.186.001-1.458-.361-1.454-1.491.039-11.333.003-22.666.053-33.998.006-1.245-.378-1.502-1.548-1.5-40.124.028-80.249.024-120.373.02-2.076 0-1.847.237-1.849-1.787-.006-11.377.019-22.754-.033-34.13-.006-1.302.281-1.674 1.64-1.672 29.667.044 59.334.034 89.001.034z" fill="#FEFEFE"/><path d="M227.356 448.783c-3.764 2.756-7.92 4.16-12.608 3.918-1.817-.094-1.866-.118-1.815-1.883.013-.436.002-.873.002-1.309.014-4.863-1.405-9.273-4.221-13.235-.828-1.166-.782-1.368.509-1.844 2.271-.837 4.382-1.966 6.253-3.499.709-.581 1.303-.659 2.119-.213 6.269 3.424 9.931 8.607 10.788 15.738.124 1.026-.178 1.705-1.027 2.327zm-22.402 15.973c-1.141.973-2.112 1.155-3.53.567-7.717-3.2-12.34-10.399-12.214-19.219.02-1.402.14-2.793.397-4.172.249-1.332.022-1.534-1.338-1.166-3.965 1.075-7.94 1.179-11.917.1-5.836-1.584-10.014-5.142-12.631-10.593-.44-.917-.347-1.593.184-2.41 5.279-8.118 15.563-11.052 25.069-7.122 1.705.704 3.3 1.601 4.785 2.696 1.265.933 1.469.814 1.85-.702 2.096-8.336 7.048-14.02 15.467-16.353 3.139-.869 6.324-.644 9.474.112.705.17 1.105.579 1.338 1.278.708 2.135 1.13 4.308 1.092 6.228-.002 8.96-6.101 16.972-14.799 19.774-1.967.633-2.008.77-.737 2.408 7.007 9.03 5.904 21.418-2.49 28.574zm-14.687-5.666c-3.202 2.078-6.689 3.161-10.518 3.1-4.574-.178-4.14.226-5.579-4.234-1.639-5.079-.885-10 1.596-14.696.484-.917 1.116-1.252 2.116-1.083 3.134.532 6.26.51 9.371-.198 1.011-.23 1.369.184 1.226 1.192-.699 4.907.079 9.57 2.394 13.96.474.898.175 1.453-.606 1.959zm-8.91-42.452c.049-.519.008-1.047.008-1.571.13-5.334 2.217-9.79 6.015-13.503.682-.667 1.345-.828 2.237-.59 4.835 1.289 8.707 3.917 11.518 8.093.546.811.468 1.345-.218 2.029-2.904 2.892-4.942 6.321-5.956 10.301-.326 1.28-.798 1.142-1.691.551-3.146-2.082-6.609-3.33-10.373-3.685-1.035-.097-1.65-.47-1.54-1.625zm47.877 28.694l-.426-1.758c-1.467-6.06-5.055-10.479-10.466-13.464-.832-.459-.979-.91-.302-1.588 3.559-3.561 5.301-7.962 5.941-12.871.164-.87.161-1.741.002-2.612-.353-1.953-.572-3.933-1.33-5.797-.334-.821-.832-1.335-1.727-1.582-1.511-.417-3.062-.543-4.594-.802a3.9 3.9 0 00-1.823 0c-3.904.324-7.611 1.354-10.772 3.702-1.155.858-1.515.608-2.149-.392-.981-1.545-2.235-2.86-3.651-4.041-2.546-2.125-5.533-3.307-8.646-4.253-.436-.142-.87-.161-1.302.013-.902.104-1.173.964-1.732 1.471-3.157 2.86-4.922 6.471-5.646 10.629-.247.43.037.945-.218 1.375l-.052.989a7.239 7.239 0 000 2.613c-.024.978-.623 1.184-1.452 1.084-.531.251-1.13-.036-1.662.206-.335.092-.665.216-1.006.272-5.92.984-10.331 4.162-13.495 9.199-.479.762-.57 1.558-.318 2.316.293.887.754 1.738 1.255 2.534 2.593 4.12 6.011 7.241 10.73 8.782.646.21 1.053.519.534 1.399-1.371 2.325-2.282 4.836-2.465 7.565a21.273 21.273 0 000 4.449c.064 2.331.941 4.451 1.794 6.559.306.759.827 1.382 1.828 1.594 1.938.41 3.873.12 5.804.237.425-.26.935.021 1.364-.214.352-.19.745-.071 1.133-.18a23.436 23.436 0 006.466-2.938c.718-.466 1.34-.565 1.93.21 2.231 2.928 5.244 4.807 8.521 6.337 1.185.553 2.213.586 3.353-.256 3.934-2.904 6.43-6.747 7.674-11.425.193-.723.412-1.034 1.194-1 1.35.06 2.705.012 4.057.01.433-.246.942.018 1.378-.207a21.658 21.658 0 008.535-3.648c1.044-.739 1.85-1.537 1.95-2.87-.261-.524.036-1.12-.209-1.647M120.612 291.417c-1.474 1.534-3.379 2.455-5.416 3.086-.944.293-1.513.199-1.832-.927-1.072-3.784-3.223-6.861-6.439-9.146-.72-.511-.707-.824-.032-1.356a15.785 15.785 0 003.435-3.763c.301-.459.643-.845 1.284-.754 3.912.589 7.323 2.24 9.622 5.506 2.897 4.118 2.858 3.731-.622 7.354zm-9.552 13.825c-.743 1.298-1.652 1.567-3.001 1.385-7.017-.946-11.89-5.761-13.217-13.125-.277-1.539-.483-1.631-1.8-.808-6.577 4.113-14.034 3.546-19.082-1.39-.764-.747-.921-1.427-.628-2.422 1.888-6.412 7.66-10.548 14.79-10.545 1.676-.022 3.302.254 4.901.752 1.306.406 1.545.175 1.37-1.222-1.014-8.055 4.331-15.479 12.229-16.989 1.976-.378 2.234-.269 3.323 1.407 4.234 6.516 2.472 15.445-4.016 20.343-1.591 1.201-1.591 1.201.041 2.289 6.836 4.56 9.027 13.456 5.09 20.325zm-12.01-.12c-2.268 2.803-5.198 4.456-8.723 5.136-.714.138-1.05-.274-1.429-.689-2.485-2.728-3.774-5.933-3.8-9.63 0-.262-.012-.525.002-.787.135-2.65.137-2.647 2.668-3.214 1.671-.374 3.274-.95 4.74-1.835.931-.563 1.405-.601 1.664.67.69 3.38 2.291 6.306 4.813 8.678.646.609.547 1.076.066 1.671zm-17.197-33.211c-.05-2.446.563-4.604 1.582-6.676.326-.664.755-.995 1.5-1.037 3.53-.201 6.736.668 9.628 2.736.76.544.847 1.048.448 1.865a15.9 15.9 0 00-1.61 8.001c.055.959-.213 1.287-1.175 1.06-2.676-.629-5.366-.671-8.048-.039-.742.175-1.126-.074-1.376-.782-.602-1.703-1.011-3.433-.95-5.128zm42.048 14.67c-2.26-4.744-5.953-7.679-11.079-8.763-1.059-.224-1.33-.459-.876-1.593 2.182-5.439 1.629-10.592-1.849-15.387-.644-.887-1.402-1.206-2.468-1.081-4.433.518-8.08 2.448-10.79 6.017-.614.81-1.076.897-1.918.287-3.06-2.217-6.505-3.076-10.273-2.755-1.002.086-1.57.541-2.01 1.402-1.989 3.9-2.379 7.94-.898 12.054.44 1.226.318 1.659-.905 2.199-4.424 1.957-7.234 5.367-8.498 10.045-.225.833-.314 1.603.354 2.324 2.43 2.623 5.359 4.335 8.914 4.856 2.747.403 2.754.359 2.55 3.491-.128 3.804 1.25 7.363 3.954 10.475.873 1.004 1.806 1.202 3.028.914 3.483-.82 6.412-2.524 8.627-5.35.537-.685.943-.835 1.715-.337 2.216 1.429 4.682 2.064 7.312 2.218 1.286.076 2.131-.319 2.809-1.438 1.729-2.857 2.605-5.911 2.333-9.244-.071-.874.188-1.185 1.033-1.395 3.678-.915 6.517-3.051 8.697-6.131.66-.932.721-1.794.238-2.808" fill="#8E6549"/><path d="M279.526 416.966c6.847.016 12.42 5.61 12.412 12.46-.009 6.825-5.629 12.445-12.451 12.45-6.881.006-12.501-5.653-12.469-12.554.032-6.849 5.622-12.372 12.508-12.356zM60.507 225.621c-6.852-.036-12.463-5.695-12.382-12.49.082-6.857 5.679-12.407 12.511-12.407 6.884 0 12.441 5.649 12.398 12.601-.043 6.871-5.607 12.332-12.527 12.296zM255.847 457.981c-3.984.01-7.182-3.148-7.197-7.107-.014-3.949 3.181-7.149 7.148-7.159 3.954-.01 7.194 3.184 7.213 7.111.019 3.924-3.205 7.145-7.164 7.155zM89.492 229.719c4.008-.016 7.163 3.127 7.165 7.137.002 3.949-3.105 7.095-7.042 7.13-4.025.035-7.201-3.073-7.228-7.073-.028-4.02 3.092-7.178 7.105-7.194zM286.777 462.305c.019 2.789-2.162 5.026-4.928 5.057-2.716.029-5.037-2.245-5.068-4.964-.031-2.727 2.227-5.007 4.976-5.025 2.812-.018 5.001 2.132 5.02 4.932zM68.516 258.756c-2.805.032-5.008-2.124-5.031-4.923a5.01 5.01 0 014.923-5.073c2.677-.057 5.03 2.248 5.072 4.966.042 2.735-2.192 4.998-4.964 5.03z" fill="#FEFEFE"/><path d="M322.375 79.383l-.992-.005c-.3.006-.725.353-.789-.288.716-.398.794-1.085.833-1.801.237-4.236.246-8.472-.057-13.01l11.098 11.859c0-1.449.032-2.602-.006-3.753-.077-2.313.101-4.636-.243-6.936-.079-.526.1-.583.53-.57.786.023 1.572.006 2.735.006-2.017.746-2.053 2.195-2.056 3.695-.007 3.658-.097 7.316.2 11.358L322.513 67.91c0 3.366-.013 6.664.014 9.962.004.47.173.952.653 1.217-.07.639-.501.295-.805.295zM384.653 79.318c.596-.376.829-.919.817-1.617-.019-1.135.01-2.271.005-3.407-.003-.622-.012-1.255-.993-1.49l2.12-1.001c.353.328.29.818.504 1.28.54-.375 1-.811 1.546-1.045.822-.351 1.66-.018 2.106.633.644.939 1.142.457 1.666.024.839-.695 1.687-1.086 2.719-.412.942.615 1.218 1.563 1.254 2.6.029.83-.028 1.66-.022 2.49.007.83.008 1.677 1.16 1.983-.253.127-.317.188-.38.186-2.236-.06-2.235-.06-2.1-2.312.057-.963.028-1.922-.163-2.871-.148-.736-.433-1.377-1.325-1.34-.886.038-1.815.43-1.942 1.272-.207 1.361-.265 2.777.013 4.17.1.506.538.635.933 1.012h-2.551c.193-1.528.248-3.072.126-4.613-.07-.888-.192-1.81-1.398-1.849-1.041-.033-1.903.755-1.918 1.882-.019 1.382-.355 2.789.202 4.145-.707.829-1.567.345-2.379.28zM448.627 79.577c-.861-.05-1.94.186-2.509-.247-.383-.292-.03-1.53-.038-2.343-.008-.83.011-1.668-.105-2.485-.108-.757-.423-1.493-1.373-1.48-.955.012-2.01.274-2.245 1.248-.344 1.431-.246 2.942-.013 4.417.064.405.547.412.719.833-1.099-.03-2.164-.275-3.353-.003 1.33-.458 1.133-1.492 1.136-2.441.012-3.452.014-6.905.037-10.357.004-.803-.088-1.506-1.303-1.643l2.701-.88c0 2.042.001 4.064-.001 6.087 0 .13-.032.26-.031.391.009.742-.271 1.824.104 2.15.622.54 1.194-.49 1.829-.763 1.207-.52 2.828.405 3.199 1.881.229.908.071 1.828.066 2.743-.006 1.113-.115 2.274 1.18 2.892zM453.972 100.108c.768.034 1.568-.948 2.12-.38.352.365-.018 1.405-.022 2.142-.013 2.14-.005 4.28-.005 6.474.508.025.9-.311 1.208-.606 1.516-1.45 3.76.144 3.91 1.763.104 1.126.054 2.267.06 3.402.005.845.193 1.555 1.601 1.722-.528.115-.627.156-.726.156-2.392-.012-2.37-.012-2.28-2.445.033-.869-.032-1.748-.129-2.614-.09-.808-.518-1.492-1.401-1.446-.957.051-2.089.294-2.255 1.404-.198 1.324-.055 2.701-.038 4.055.006.489.335.763.762.985h-3.16c.942-.331.954-1.128.962-1.924.031-3.497.071-6.993.078-10.489.002-.591.08-1.241-.446-1.712-.131-.137-.412-.201-.239-.487zM356.756 79.335c.577-.524.854-1.162.829-1.954-.028-.917-.006-1.835.002-2.753.008-.813-.026-1.6-1.194-1.887l2.401-.915.319 1.118c.442.103.723-.184.936-.4 1.602-1.64 4.055.11 4.087 2.065.015.917.007 1.835-.01 2.753-.017.916.062 1.764 1.297 1.978-.201.136-.257.208-.311.206-.819-.035-1.872.211-2.391-.205-.506-.407.064-1.465.06-2.245-.005-.875.009-1.746-.161-2.61-.156-.794-.477-1.444-1.393-1.468-.987-.025-2.038.32-2.192 1.289-.246 1.558-.482 3.192.136 4.759-.73.767-1.594.318-2.415.269zM468.651 79.073c1.002-1.64.752-5.514-.437-6.391l2.183-.861.423 1.258c.351-.212.646-.383.933-.566 1.836-1.166 3.835-.157 3.979 2.043.063.957.029 1.923-.003 2.883-.029.906.217 1.62 1.177 1.917-.084.091-.131.186-.175.184-.821-.028-1.871.224-2.395-.189-.51-.402.114-1.452.069-2.235-.05-.869.04-1.742-.148-2.61-.195-.905-.587-1.594-1.639-1.487-1.014.104-1.973.487-2.059 1.642-.116 1.554-.287 3.133.187 4.672-.713.035-1.485.544-2.095-.26zM341.81 75.844c.005-2.413 1.744-4.146 4.129-4.117 2.326.029 3.994 1.702 3.963 3.975-.033 2.314-1.908 4.107-4.248 4.063-2.285-.044-3.849-1.638-3.844-3.92zM461.927 79.51c-.845-.276-1.869.57-2.476-.545-.116-.214-.303.013-.444.073-.32.138-.621.323-.948.436-1.485.51-2.839.019-3.185-1.139-.312-1.045.438-1.937 2.024-2.391.377-.108.769-.166 1.139-.291.637-.217 1.572-.052 1.465-1.228-.082-.9-.309-1.69-1.283-1.881-.945-.186-1.567.35-1.929 1.203-.084.2-.164.401-.253.617-.742-1.562-.658-1.77.911-2.311 2.475-.852 3.929.17 3.926 2.767-.002.785-.055 1.57-.044 2.355.012.914.066 1.83 1.097 2.335zM484.384 110.89c-.629 1.129-.475 2.958.335 3.856h-3.379c.916-.362 1.276-.773 1.29-1.463.076-3.76.241-7.52.062-11.28-.033-.696.008-1.499-1.241-1.461.257-.197.347-.31.461-.348 2.293-.75 2.284-.748 2.237 1.679a405.44 405.44 0 00-.095 7.478c0 .416-.304.989.353 1.245.06.103.055.201-.023.294zM378.003 78.046c-.799 1.397-2.053 1.858-3.606 1.635-1.526-.22-2.387-1.162-2.76-2.6-.593-2.284.779-4.745 2.926-5.27 1.237-.302 2.463.17 3.12 1.117.355.512.274.727-.298.933-1.188.427-2.338.963-3.537 1.353-.835.27-.932.762-.752 1.492.547 2.23 2.704 2.797 4.907 1.34zM410.003 78.361c-1.293 1.752-4.007 1.88-5.39.26-1.866-2.188-.629-6.13 2.155-6.797 1.186-.284 2.239-.02 3.049.982.452.56.41.852-.324 1.104-1.234.423-2.424.972-3.651 1.419-.569.207-.691.496-.577 1.084.389 2.001 2.008 2.93 3.906 2.203.266-.102.479-.417.832-.255zM474.412 114.226c-1.608 1.061-3.356 1.053-4.593-.02-1.25-1.083-1.556-3.223-.711-4.964.782-1.61 2.335-2.446 3.947-2.144.441.083.844.23 1.185.515.337.282.754.608.75 1.03-.004.546-.62.505-1.001.661-1.049.43-2.093.875-3.162 1.251-.616.217-.781.53-.664 1.176.348 1.928 1.664 2.689 3.943 2.214.294-.116.344.036.306.281zM432.947 78.815c-1.72 1.297-3.784 1.23-5.059-.162-1.307-1.427-1.226-3.892.182-5.513 1.196-1.378 3.603-1.76 5.022-.795.349.236.349.236.041 1.63-1.251-1.517-2.46-1.866-3.647-1.052-.985.675-1.369 2.328-.89 3.83.43 1.35 1.492 2.156 2.812 2.075.425-.027.84-.19 1.26-.291.279-.094.343.028.279.278zM446.838 113.967c-1.72 1.374-3.747 1.402-5.088.071-1.311-1.3-1.354-3.775-.093-5.423 1.158-1.515 3.484-1.977 5.079-1.012.795.482.156 1.025.167 1.663-1.222-1.495-2.36-1.842-3.546-1.169-1.172.664-1.601 2.646-.921 4.255.573 1.361 1.906 2.051 3.288 1.683.291-.077.565-.222.846-.335.245-.066.35.007.268.267z" fill="#515151"/><path d="M484.384 110.89l.023-.294c.909-.985 2.001-1.776 2.685-3.005.374-.671 1.243-.178 1.927-.127-1.171.64-2.141 1.495-3.068 2.412-.375.372-.473.634-.011 1.036 1.478 1.283 2.808 2.744 4.563 3.683-1.591.403-2.414.251-3.499-.8-.937-.906-1.929-1.773-2.62-2.905zM498.831 114.741l-2.859.001c1.404-1.087 1.537-5.877.104-6.835l2.356-.781c.184 2.589-.733 5.183.399 7.615zM497.636 105.01c-.658-.128-1.049-.445-1.019-1.054.032-.64.391-1.03 1.079-1.01.636.018.925.367.909.991-.017.688-.44.965-.969 1.073zM356.756 79.335c.796-.168 1.655.223 2.415-.27.26.022.487.102.697.455-1.102 0-2.128 0-3.153-.003-.011 0-.037-.056-.029-.077.013-.039.045-.07.07-.105zM468.651 79.073c.652.462 1.407.091 2.095.26.046.092.59.111.173.188-.942.172-1.936.054-3.01.054.185-.416.448-.482.742-.502zM384.653 79.318c.787-.149 1.64.275 2.379-.28.26.042.479.141.686.546-1.101-.112-2.102.21-3.065-.266zM322.375 79.383c.251-.146.63.057.805-.295.263-.024.487.034.691.41-.55.18-1.023.154-1.496-.115zM320.594 79.09c.166.36.544.143.789.288-.285.076-.566.18-.856.219-.182.023-.508.118-.514-.177-.006-.332.318-.334.581-.33zM474.412 114.226l-.306-.281 1.121-.868c-.099.658-.378.959-.815 1.149zM446.838 113.967a67.59 67.59 0 00-.268-.267l.63-.872c.247.736-.068.933-.362 1.139zM432.947 78.815l-.279-.278.78-.585c.056.538-.201.715-.501.863zM453.972 100.108l.239.487c-.26-.027-.635.101-.684-.285-.035-.277.252-.222.445-.202z" fill="#515151"/><path d="M193.533 438.978c-2.9-1.863-4.13-4.169-3.622-6.79.507-2.616 2.586-4.663 5.072-4.994 2.874-.383 5.341.914 6.578 3.465.152.313.272.642.406.964 1.699 2.675-.995 7.519-4.809 7.977-1.249.151-2.525.214-3.625-.622z" fill="#8E664A"/><path d="M193.533 438.978c2.032.51 4.026.663 5.86-.64 2.349-1.667 3.095-3.948 2.574-6.715 1.848 2.318 1.639 5.659-.472 7.572-2.382 2.156-5.636 2.067-7.962-.217z" fill="#FEB980"/><path d="M96.883 289.612c-3.022-1.039-4.222-2.376-4.248-4.733-.023-2.09 1.165-3.806 3.122-4.507a4.708 4.708 0 015.199 1.437c.249.301.461.633.69.95 1.048 1.419 1.005 3.132-.122 4.826-1.114 1.676-2.86 2.438-4.641 2.027z" fill="#8E664A"/><path d="M96.883 289.612c3.187-.44 4.603-1.609 5.11-4.163.188-.949-.171-1.802-.347-2.69 2.068 1.255 2.61 3.752 1.269 5.849-1.282 2.007-3.943 2.449-6.032 1.004z" fill="#FDB980"/><path d="M343.278 75.38c.081-.558.09-1.167.378-1.73.865-1.698 2.832-1.883 3.894-.308.816 1.21 1.041 2.564.601 3.99-.323 1.044-.964 1.775-2.104 1.852-1.091.073-1.776-.575-2.249-1.487-.368-.712-.457-1.49-.52-2.318zM459.472 76.929c-.006 1.25-.632 1.904-1.787 1.842-.698-.037-1.288-.304-1.369-1.108-.072-.718 1.583-1.722 2.761-1.67.794.035.229.664.395.936zM373.05 74.897c.136-1.775 1.111-2.72 2.334-2.475.396.079.77.218.865.662.099.463-.303.572-.603.706-.817.365-1.646.704-2.596 1.107zM405.21 74.934c.276-1.884 1.186-2.76 2.406-2.517.404.08.78.233.881.672.108.474-.326.57-.622.705-.829.376-1.672.719-2.665 1.14zM470.081 110.219c.3-1.881 1.143-2.705 2.334-2.544.457.062.869.231.957.724.08.446-.336.555-.643.69-.815.359-1.638.701-2.648 1.13z" fill="#fff"/><path d="M121.883 415.635c4.385 1.851 8.925 2.942 13.717 2.936 1.425-.001 2.412-.55 3.173-1.693 4.235-6.362 6.263-13.29 5.419-20.964-.196-1.78-.191-1.792 1.562-2.198 8.145-1.89 14.368-6.493 19.027-13.362.993-1.463 1.076-2.823.333-4.412-1.248-2.664-2.812-5.12-4.534-7.488 2.131 1.544 3.833 3.503 5.413 5.585 1.489 1.961 2.472 4.202 3.581 6.374.536 1.051.35 2.04-.255 2.972-2.664 4.107-5.979 7.549-10.208 10.088-3.134 1.883-6.473 3.177-10.071 3.811-.655.116-.872.337-.764 1.134 1.091 8.024-.745 15.36-5.322 22.033-.392.572-.847.975-1.448 1.26a14.31 14.31 0 01-3.922.003c-5.976-.346-11.366-2.244-16.035-6.051.103-.105.215-.11.334-.028z" fill="#FEE8B8"/><path d="M121.883 415.635l-.334.028c-1.186.608-1.594 1.888-2.365 2.839-4.385 5.414-9.98 8.838-16.691 10.526-.797.201-1.598.433-2.411.515-1.242.127-2.2-.486-2.883-1.472-.665-.961-1.446-1.693-2.656-1.836 8.893-1.022 15.963-5.207 21.251-12.383.784-1.064 1.349-1.211 2.409-.443 1.157.839 2.447 1.492 3.68 2.226zM144.381 358.121c-1.492-.301-2.973-.683-4.478-.876-1.131-.145-1.259-.477-.77-1.477 2.375-4.859 3.567-9.997 3.431-15.423-.146-5.818-1.912-11.129-5.015-16.021 1.286.042 2.063.92 2.733 1.822 2.758 3.708 4.827 7.754 5.809 12.308 1.312 6.087.714 12.019-1.412 17.834-.214.586-.712 1.14-.298 1.833zM69.06 392.505c3.448 1.415 6.965 2.569 10.72 2.799 1.09.067 2.184.119 3.275.115.891-.003 1.349.243 1.065 1.241-.179.627-.26 1.282-.385 1.925-.932-.174-1.866-.341-2.797-.522-4.256-.828-8.075-2.645-11.592-5.137-.13-.092-.192-.279-.286-.421z" fill="#FEE8B8"/><path d="M136.288 324.285c5.806 8.482 6.745 17.641 3.548 27.254-2.378 7.148-6.771 12.873-12.977 17.179-1.239.86-1.227 1.095.032 1.87 9.461 5.827 15.033 14.245 16.357 25.268.9 7.495-1.072 14.389-5.349 20.619-.589.858-1.358 1.096-2.354 1.102-12.524.066-23.393-7.222-28.405-19.079-1.351-3.196-2.314-6.496-2.683-9.958-.143-1.347-.52-1.501-1.674-.694-6.792 4.75-14.304 7.073-22.602 6.525-6.14-.405-11.646-2.533-16.382-6.527-.64-.699-.575-1.48-.365-2.336 2.7-10.992 9.357-18.468 19.944-22.432.947-.354 1.138-.77.712-1.638a47.423 47.423 0 01-1.121-2.512c6.338-1.589 12.608-1.278 18.819.68 1.673.528 2.047.18 1.844-1.531-.915-7.739.466-15.013 4.49-21.737 1.08.585 2.039 1.342 2.977 2.123 1.055.877 1.054.897 1.854-.286 1.973-2.915 4.303-5.501 7.075-7.676 4.482-3.516 9.624-5.431 15.216-6.247.352-.051.697.004 1.044.033z" fill="#FEE8B8"/><path d="M154.364 364.004c4.682 3.35 7.933 7.814 10.161 13.072.334.79.221 1.524-.237 2.24-4.413 6.901-10.52 11.469-18.513 13.425-1.636.401-1.946.169-2.37-1.47-2.267-8.756-7.164-15.643-14.689-20.661-1.357-.905-1.38-1.025-.097-1.985a33.65 33.65 0 008.609-9.438c.545-.89 1.179-1.178 2.153-1.061 1.434.172 2.852.403 4.228.85a.572.572 0 01.057.379c-.356 1.509-.362 1.539 1.123 1.752 3.34.481 6.523 1.468 9.575 2.897zM84.825 398.598c.012-.261-.005-.527.04-.782.43-2.411.427-2.453 2.857-2.821 5.04-.762 9.67-2.586 13.983-5.267 1.563-.972 1.719-.888 2.054.861 1.52 7.959 5.043 14.837 11.129 20.28.942.842.924 1.439.22 2.399-4.931 6.722-11.596 10.563-19.724 12.016-.382.068-.783.164-1.113-.164-3.165-4.196-5.179-8.89-5.732-14.115-.367-3.467-.399-6.965.337-10.42.346-1.618.323-1.593-1.386-1.637-.893-.022-1.843.257-2.665-.35zM104.494 334.31c2.52 1.651 2.51 1.647 1.281 4.318-2.722 5.911-3.883 12.094-3.217 18.593.124 1.205-.264 1.525-1.596 1.129-4.027-1.196-8.14-1.454-12.308-1.274-1.926.084-3.8.481-5.693.778-.524-.468-.663-1.119-.814-1.756-1.834-7.726-.892-15.096 2.77-22.147.795-1.53 1.95-2.296 3.62-2.382 5.302-.271 10.492.139 15.347 2.552.195.097.376.225.61.189z" fill="#FEE8B8"/><path d="M118.961 368.653c3.512 3.838 3.092 9.538-.946 12.855-3.694 3.033-9.531 2.295-12.45-1.576.648-.363 1.18.091 1.73.278 6.079 2.063 12.31-2.777 11.806-9.159-.063-.795-.644-1.57-.14-2.398z" fill="#FEB980"/><path d="M118.961 368.653c1.182 5.069-.258 8.941-4.268 11.228-3.008 1.715-6.077 1.464-9.128.051-2.398-1.585-4.042-3.681-4.516-6.589-.74-4.534 1.814-8.828 6.15-10.318 4.228-1.453 8.953.393 11.111 4.345.23.421.435.855.651 1.283z" fill="#8E6549"/><path d="M116.578 366.574c2.903 3.592 2.38 8.944-1.142 11.686-3.698 2.879-8.918 2.34-11.685-1.205-1.596-5.092 1.905-10.451 7.057-11.452 2.054-.399 3.98-.149 5.77.971z" fill="#FEB980"/><path d="M116.578 366.574c-.438.249-.73-.146-1.072-.265-6.471-2.253-12.793 3.138-11.597 9.901.054.304.123.606-.158.845-2.914-3.764-2.406-8.835 1.171-11.679 3.676-2.924 8.747-2.403 11.656 1.198z" fill="#FEE8B8"/><path d="M199.78 429.826c1.728 1.812 1.84 4.725.257 6.686-1.573 1.951-4.45 2.495-6.62 1.229-.678-.395-1.324-.848-1.724-1.561-.278-3.822 1.408-6.221 4.882-7.034 1.203-.282 2.236-.012 3.205.68z" fill="#FEB980"/><path d="M199.78 429.826c-4.485-1.267-7.658 1.012-7.859 5.647-.012.259.02.526-.228.706-1.529-2.703-1.013-5.553 1.299-7.176 2.22-1.558 5.024-1.217 6.788.823z" fill="#FDFDFC"/><path d="M99.555 281.786c1.731 1.595 2.023 3.669.746 5.314-1.256 1.619-3.312 1.904-5.21.723-.606-2.807.28-4.756 2.563-5.747.624-.271 1.258-.256 1.9-.29z" fill="#FEB980"/><path d="M99.555 281.786c-1.006.447-2.175.516-3.02 1.338-.985.959-1.452 2.105-1.33 3.484.036.41.281.843-.114 1.214-1.723-1.558-2.036-3.521-.829-5.192 1.23-1.701 3.25-2.023 5.293-.844z" fill="#FDFCFB"/></svg>