<svg width="24" height="24" fill="none" xmlns="http://www.w3.org/2000/svg"><path d="M19.36 7H18V5a1.92 1.92 0 00-1.83-2H7.83A1.92 1.92 0 006 5v2H4.64A2.66 2.66 0 002 9.67v6.66A2.66 2.66 0 004.64 19h.86a2 2 0 002 2h9a2 2 0 002-2h.86A2.66 2.66 0 0022 16.33V9.67A2.66 2.66 0 0019.36 7zM8 5h8v2H8V5zm-.5 14v-4h9v4h-9z" fill="url(#paint0_linear)"/><defs><linearGradient id="paint0_linear" x1="2" y1="3" x2="22.466" y2="20.453" gradientUnits="userSpaceOnUse"><stop stop-color="#FF8CA0"/><stop offset="1" stop-color="#FFD74B"/></linearGradient></defs></svg>