<svg width="72" height="72" fill="none" xmlns="http://www.w3.org/2000/svg"><circle cx="36" cy="36" r="36" fill="url(#a)"/><circle cx="36" cy="36" r="31" fill="url(#b)" stroke="#fff" stroke-width="2"/><path d="M36 38.5a1.5 1.5 0 1 0 0-3 1.5 1.5 0 0 0 0 3z" fill="#fff"/><path d="M43 30h-3v-1.5a2.5 2.5 0 0 0-2.5-2.5h-3a2.5 2.5 0 0 0-2.5 2.5V30h-3a3 3 0 0 0-3 3v8a3 3 0 0 0 3 3h14a3 3 0 0 0 3-3v-8a3 3 0 0 0-3-3zm-9-1.5a.5.5 0 0 1 .5-.5h3a.5.5 0 0 1 .5.5V30h-4v-1.5zm2 12a3.5 3.5 0 1 1 0-7 3.5 3.5 0 0 1 0 7z" fill="#fff"/><rect x="28.56" y="20.165" width="2" height="6.002" rx="1" transform="rotate(-36 28.56 20.165)" fill="#fff"/><rect x="35.134" y="18" width="2" height="6" rx="1" fill="#fff"/><rect x="42.09" y="18.983" width="2" height="6.002" rx="1" transform="rotate(36 42.09 18.983)" fill="#fff"/><path d="M28.234 48.812h-1.656v-.258h1.656v.258zm0 .696h-1.656v-.264h1.656v.264zm.684-1.416H25.93v1.872h2.988v-1.872zm-2.598 4.446v-.336h.462v.27l-.462.066zm0-1.074h.462v.276h-.462v-.276zm.462-.732v.264h-.462v-.264h.462zm2.022.198l-.114.012h-1.242v.54h1.044c-.054.216-.126.42-.222.6a3.083 3.083 0 0 1-.258-.552l-.504.132a4.1 4.1 0 0 0 .426.912 1.904 1.904 0 0 1-.564.414v-2.256h1.95v-.552h-3.912v.252l-.42.12v-.846h.462v-.654h-.462v-1.128h-.636v1.128h-.612v.654h.612v1.014c-.27.072-.516.132-.72.174l.156.684.564-.156v1.356c0 .084-.03.108-.102.108s-.282 0-.498-.012c.084.192.162.474.18.648.384.006.642-.018.816-.132.186-.108.24-.282.24-.612V51.23l.534-.162-.048-.336h.288v1.89c-.18.024-.342.042-.486.06l.162.594c.39-.072.864-.168 1.344-.264v.534h.588v-.444c.096.132.204.3.258.426.264-.126.492-.282.684-.48.198.198.426.366.678.486a2.17 2.17 0 0 1 .39-.486 2.302 2.302 0 0 1-.702-.462c.246-.414.414-.93.498-1.584l-.372-.072zm5.616-2.922c-.312.462-.918.924-1.422 1.182.186.138.39.354.51.51.57-.342 1.176-.846 1.596-1.41l-.684-.282zm.108 1.668c-.336.468-.972.948-1.506 1.218.186.138.39.354.51.51.588-.354 1.224-.876 1.656-1.446l-.66-.282zm-3.78-.558H32.2v.246h-1.452v-.246zm0-.6H32.2v.234h-1.452v-.234zm2.454 1.494H31.78v-.258h1.074v-1.638h-2.742v1.638h1.02v.258h-1.41v.546h3.48v-.546zm-2.928 2.154a2.56 2.56 0 0 1-.618.864c.144.078.39.24.51.342.258-.258.534-.66.702-1.044l-.594-.162zm.48-.906h1.41v.36h-1.41v-.36zm2.052.822v-1.278h-2.658v1.278h.984v.816c0 .06-.018.078-.096.078a5.574 5.574 0 0 1-.534-.006c.09.144.216.378.258.546.324 0 .57-.006.768-.102.198-.084.252-.222.252-.498v-.834h1.026zm1.848-.78c-.33.648-.96 1.188-1.644 1.524a7.65 7.65 0 0 0-.51-.654l-.528.258c.216.264.48.636.594.858l.402-.204c.138.138.264.3.342.438.852-.438 1.59-1.098 2.046-1.974l-.702-.246zm3.014-.318c0 .082.031.149.094.2.062.05.135.076.216.076a.29.29 0 0 0 .206-.076.262.262 0 0 0 .088-.2.222.222 0 0 0-.082-.175.285.285 0 0 0-.212-.077.351.351 0 0 0-.216.07.217.217 0 0 0-.094.182zm-.908.035c0-.308.117-.556.351-.744.239-.187.528-.289.867-.304.055-.004.143-.002.264.006V49.7l-2.408.123-.106-.797 2.514-.135v-.832h.908v.78l1.788-.1.1.809-1.888.1v.878c.051.223.077.489.077.797 0 .235-.04.463-.118.686a2.217 2.217 0 0 1-.275.562 2.66 2.66 0 0 1-.375.44c-.145.14-.275.25-.393.328a2.939 2.939 0 0 1-.334.21l-.609-.591c.192-.094.399-.24.621-.44.227-.199.387-.382.48-.55a.85.85 0 0 1-.345.052c-.3 0-.563-.087-.785-.263-.223-.18-.334-.426-.334-.739zm5.343.451c.27-.245.637-.62 1.102-1.124.465-.508.848-.95 1.148-1.325l-1.166.164-.21-.843 2.255-.252.598.58-1.213 1.389c.098-.032.236-.047.416-.047.574 0 1.03.146 1.365.44.336.292.504.696.504 1.212 0 .543-.191.953-.574 1.23-.383.278-.892.416-1.53.416-.433 0-.794-.103-1.083-.31-.285-.207-.428-.47-.428-.791 0-.258.1-.484.299-.68.2-.199.45-.299.75-.299.324 0 .59.116.797.346.21.227.332.502.363.826a.835.835 0 0 0 .375-.304.732.732 0 0 0 .152-.434c0-.223-.095-.418-.287-.586-.191-.168-.492-.252-.902-.252-.57 0-.975.123-1.213.37l-.855.89-.663-.615zm2.028.727c0 .106.056.192.17.258.113.063.273.094.48.094a.641.641 0 0 0-.129-.399c-.082-.117-.185-.175-.31-.175a.212.212 0 0 0-.147.058c-.043.035-.064.09-.064.164z" fill="#fff"/><defs><linearGradient id="a" x1="0" y1="0" x2="80.085" y2="61.465" gradientUnits="userSpaceOnUse"><stop stop-color="#FF8CA0"/><stop offset="1" stop-color="#FFD74B"/></linearGradient><linearGradient id="b" x1="4" y1="4" x2="75.187" y2="58.636" gradientUnits="userSpaceOnUse"><stop stop-color="#FF8CA0"/><stop offset="1" stop-color="#FFD74B"/></linearGradient></defs></svg>