<svg xmlns="http://www.w3.org/2000/svg" xmlns:xlink="http://www.w3.org/1999/xlink" width="280.7" height="819.6" overflow="visible"><style>.st0{fill:#dd7a90}.st1{fill:#e5cf76}.st4{fill:#fff}</style><path class="st0" d="M7.4 252.8c1.1-.8 2.1-1.3 3-1.6.8-.3 1.5-.5 2.2-.6 1.3-.2 2.7-.1 4.4.1 1.3.1 2.7.4 4.3.5 1.2.1 2.5.2 4 .3 2.1 0 4.5-.2 7-.9s5-1.9 7.5-3.7c1.9-1.4 3.6-2.8 4.9-4.4 1.2-1.4 2.1-2.8 2.9-4.3 1.3-2.5 2-5 2.6-7.1.4-1.6.7-3 1-4.3.2-.9.5-1.8.7-2.5.4-1.1.9-2.1 1.5-3 .7-.9 1.6-1.9 3-2.9 1.1-.8 2.1-1.3 3-1.6.8-.3 1.5-.5 2.2-.6 1.3-.2 2.7-.1 4.4.1 1.3.1 2.7.4 4.3.5 1.2.1 2.5.2 4 .3 2.1 0 4.5-.2 7-.9s5-1.9 7.5-3.7c1.9-1.4 3.6-2.8 4.9-4.4 1.2-1.4 2.1-2.8 2.9-4.3 1.3-2.5 2-5 2.6-7.1.4-1.6.7-3 1-4.3.2-.9.5-1.8.7-2.5.4-1.1.9-2.1 1.5-3 .7-.9 1.6-1.9 3-2.9 1.1-.8 2.1-1.3 3-1.6.8-.3 1.5-.5 2.2-.6 1.3-.2 2.7-.1 4.4.1 1.3.1 2.7.4 4.3.5 1.2.1 2.5.2 4 .3 2.1 0 4.5-.2 7-.9s5-1.9 7.5-3.7l-7.4-10.6c-1.1.8-2.1 1.3-3 1.6-.8.3-1.5.5-2.2.6-1.3.2-2.7.1-4.4-.1-1.3-.1-2.7-.4-4.3-.5-1.2-.1-2.5-.2-4-.3-2.1 0-4.5.2-7 .9s-5 1.9-7.5 3.7c-1.9 1.4-3.6 2.8-4.9 4.4-1.2 1.4-2.1 2.8-2.9 4.3-1.3 2.5-2 5-2.6 7.1-.4 1.6-.7 3-1 4.3-.2.9-.5 1.8-.7 2.5-.4 1.1-.9 2.1-1.5 3-.7.9-1.6 1.9-3 2.9-1.1.8-2.1 1.3-3 1.6-.8.3-1.5.5-2.2.6-1.3.2-2.7.1-4.4-.1-1.3-.1-2.7-.4-4.3-.5-1.2-.1-2.5-.2-4-.3-2.1 0-4.5.2-7 .9s-5 1.9-7.5 3.7c-1.9 1.4-3.6 2.8-4.9 4.4-1.2 1.4-2.1 2.8-2.9 4.3-1.3 2.5-2 5-2.6 7.1-.4 1.6-.7 3-1 4.3-.2.9-.5 1.8-.7 2.5-.4 1.1-.9 2.1-1.5 3-.7.9-1.6 1.9-3 2.9-1.1.8-2.1 1.3-3 1.6-.8.3-1.5.5-2.2.6-1.3.2-2.7.1-4.4-.1-1.3-.1-2.7-.4-4.3-.5-1.2-.1-2.5-.2-4-.3-2.1 0-4.5.2-7 .9s-5 1.9-7.5 3.7l7.4 10.6z"/><path class="st1" d="M79.7 693.3c1.1-.8 2.1-1.3 3-1.6.8-.3 1.5-.5 2.2-.6 1.3-.2 2.7-.1 4.4.1 1.3.1 2.7.4 4.3.5 1.2.1 2.5.2 4 .3 2.1 0 4.5-.2 7-.9s5-1.9 7.5-3.7c1.9-1.4 3.6-2.8 4.9-4.4 1.2-1.4 2.1-2.8 2.9-4.3 1.3-2.5 2-5 2.6-7.1.4-1.6.7-3 1-4.3.2-.9.5-1.8.7-2.5.4-1.1.9-2.1 1.5-3 .7-.9 1.6-1.9 3-2.9 1.1-.8 2.1-1.3 3-1.6.8-.3 1.5-.5 2.2-.6 1.3-.2 2.7-.1 4.4.1 1.3.1 2.7.4 4.3.5 1.2.1 2.5.2 4 .3 2.1 0 4.5-.2 7-.9s5-1.9 7.5-3.7c1.9-1.4 3.6-2.8 4.9-4.4 1.2-1.4 2.1-2.8 2.9-4.3 1.3-2.5 2-5 2.6-7.1.4-1.6.7-3 1-4.3.2-.9.5-1.8.7-2.5.4-1.1.9-2.1 1.5-3 .7-.9 1.6-1.9 3-2.9 1.1-.8 2.1-1.3 3-1.6.8-.3 1.5-.5 2.2-.6 1.3-.2 2.7-.1 4.4.1 1.3.1 2.7.4 4.3.5 1.2.1 2.5.2 4 .3 2.1 0 4.5-.2 7-.9s5-1.9 7.5-3.7l-7.4-10.6c-1.1.8-2.1 1.3-3 1.6-.8.3-1.5.5-2.2.6-1.3.2-2.7.1-4.4-.1-1.3-.1-2.7-.4-4.3-.5-1.2-.1-2.5-.2-4-.3-2.1 0-4.5.2-7 .9s-5 1.9-7.5 3.7c-1.9 1.4-3.6 2.8-4.9 4.4-1.2 1.4-2.1 2.8-2.9 4.3-1.3 2.5-2 5-2.6 7.1-.4 1.6-.7 3-1 4.3-.2.9-.5 1.8-.7 2.5-.4 1.1-.9 2.1-1.5 3-.7.9-1.6 1.9-3 2.9-1.1.8-2.1 1.3-3 1.6-.8.3-1.5.5-2.2.6-1.3.2-2.7.1-4.4-.1-1.3-.1-2.7-.4-4.3-.5-1.2-.1-2.5-.2-4-.3-2.1 0-4.5.2-7 .9s-5 1.9-7.5 3.7c-1.9 1.4-3.6 2.8-4.9 4.4-1.2 1.4-2.1 2.8-2.9 4.3-1.3 2.5-2 5-2.6 7.1-.4 1.6-.7 3-1 4.3-.2.9-.5 1.8-.7 2.5-.4 1.1-.9 2.1-1.5 3-.7.9-1.6 1.9-3 2.9-1.1.8-2.1 1.3-3 1.6-.8.3-1.5.5-2.2.6-1.3.2-2.7.1-4.4-.1-1.3-.1-2.7-.4-4.3-.5-1.2-.1-2.5-.2-4-.3-2.1 0-4.5.2-7 .9s-5 1.9-7.5 3.7l7.4 10.6z"/><circle cx="225.3" cy="407.4" r="35.7" fill="#6ac5e3"/><defs><circle id="SVGID_1_" cx="225.3" cy="407.4" r="35.7"/></defs><clipPath id="SVGID_2_"><use xlink:href="#SVGID_1_" overflow="visible"/></clipPath><g clip-path="url(#SVGID_2_)"><path class="st4" d="M190.2 411.8l6.1-1.8c17.5-5.1 34.5-12.2 50.4-21.1l6.8-3.8-1.9-3.5-6.8 3.8c-15.7 8.7-32.4 15.7-49.6 20.8l-6.1 1.8 1.1 3.8zM200.1 435.8l6.1-1.8c17.5-5.1 34.5-12.2 50.4-21.1l6.8-3.8-1.9-3.5-6.8 3.8c-15.7 8.7-32.4 15.7-49.6 20.8L199 432l1.1 3.8z"/></g><circle class="st4" cx="202.1" cy="395.4" r="3.3"/><g><circle class="st0" cx="177.1" cy="783.9" r="35.7"/><defs><circle id="SVGID_3_" cx="177.1" cy="783.9" r="35.7"/></defs><clipPath id="SVGID_4_"><use xlink:href="#SVGID_3_" overflow="visible"/></clipPath><g clip-path="url(#SVGID_4_)"><path class="st4" d="M142 788.3l6.1-1.8c17.5-5.1 34.5-12.2 50.4-21.1l6.8-3.8-1.9-3.5-6.8 3.8c-15.7 8.7-32.4 15.7-49.6 20.8l-6.1 1.8 1.1 3.8zM151.8 812.3l6.1-1.8c17.5-5.1 34.5-12.2 50.4-21.1l6.8-3.8-1.9-3.5-6.8 3.8c-15.7 8.7-32.4 15.7-49.6 20.8l-6.1 1.8 1.1 3.8z"/></g><circle class="st4" cx="153.9" cy="771.8" r="3.3"/></g><g><circle class="st1" cx="242.7" cy="35.7" r="35.7"/><defs><circle id="SVGID_5_" cx="242.7" cy="35.7" r="35.7"/></defs><clipPath id="SVGID_6_"><use xlink:href="#SVGID_5_" overflow="visible"/></clipPath><g clip-path="url(#SVGID_6_)"><path class="st4" d="M207.5 40.1l6.1-1.8c17.5-5.1 34.5-12.2 50.4-21.1l6.8-3.8-1.9-3.5-6.8 3.8c-15.7 8.7-32.4 15.7-49.6 20.8l-6.1 1.8 1.1 3.8zM217.4 64.1l6.1-1.8c17.5-5.1 34.5-12.2 50.4-21.1l6.8-3.8-1.9-3.5-6.8 3.8c-15.7 8.7-32.4 15.7-49.6 20.8l-6.1 1.8 1.1 3.8z"/></g><circle class="st4" cx="219.4" cy="23.6" r="3.3"/></g></svg>