<svg height="900.1" width="279.2" xmlns="http://www.w3.org/2000/svg"><clipPath id="a"><circle cx="36.3" cy="249.4" r="35.7"/></clipPath><clipPath id="b"><circle cx="73.5" cy="728.6" r="35.7"/></clipPath><path d="M130 499.1c1.1-.8 2.1-1.3 3-1.6.8-.3 1.5-.5 2.2-.6 1.3-.2 2.7-.1 4.4.1 1.3.1 2.7.4 4.3.5 1.2.1 2.5.2 4 .3 2.1 0 4.5-.2 7-.9s5-1.9 7.5-3.7c1.9-1.4 3.6-2.8 4.9-4.4 1.2-1.4 2.1-2.8 2.9-4.3 1.3-2.5 2-5 2.6-7.1.4-1.6.7-3 1-4.3.2-.9.5-1.8.7-2.5.4-1.1.9-2.1 1.5-3 .7-.9 1.6-1.9 3-2.9 1.1-.8 2.1-1.3 3-1.6.8-.3 1.5-.5 2.2-.6 1.3-.2 2.7-.1 4.4.1 1.3.1 2.7.4 4.3.5 1.2.1 2.5.2 4 .3 2.1 0 4.5-.2 7-.9s5-1.9 7.5-3.7c1.9-1.4 3.6-2.8 4.9-4.4 1.2-1.4 2.1-2.8 2.9-4.3 1.3-2.5 2-5 2.6-7.1.4-1.6.7-3 1-4.3.2-.9.5-1.8.7-2.5.4-1.1.9-2.1 1.5-3 .7-.9 1.6-1.9 3-2.9 1.1-.8 2.1-1.3 3-1.6.8-.3 1.5-.5 2.2-.6 1.3-.2 2.7-.1 4.4.1 1.3.1 2.7.4 4.3.5 1.2.1 2.5.2 4 .3 2.1 0 4.5-.2 7-.9s5-1.9 7.5-3.7l-7.4-10.6c-1.1.8-2.1 1.3-3 1.6-.8.3-1.5.5-2.2.6-1.3.2-2.7.1-4.4-.1-1.3-.1-2.7-.4-4.3-.5-1.2-.1-2.5-.2-4-.3-2.1 0-4.5.2-7 .9s-5 1.9-7.5 3.7c-1.9 1.4-3.6 2.8-4.9 4.4-1.2 1.4-2.1 2.8-2.9 4.3-1.3 2.5-2 5-2.6 7.1-.4 1.6-.7 3-1 4.3-.2.9-.5 1.8-.7 2.5-.4 1.1-.9 2.1-1.5 3-.7.9-1.6 1.9-3 2.9-1.1.8-2.1 1.3-3 1.6-.8.3-1.5.5-2.2.6-1.3.2-2.7.1-4.4-.1-1.3-.1-2.7-.4-4.3-.5-1.2-.1-2.5-.2-4-.3-2.1 0-4.5.2-7 .9s-5 1.9-7.5 3.7c-1.9 1.4-3.6 2.8-4.9 4.4-1.2 1.4-2.1 2.8-2.9 4.3-1.3 2.5-2 5-2.6 7.1-.4 1.6-.7 3-1 4.3-.2.9-.5 1.8-.7 2.5-.4 1.1-.9 2.1-1.5 3-.7.9-1.6 1.9-3 2.9-1.1.8-2.1 1.3-3 1.6-.8.3-1.5.5-2.2.6-1.3.2-2.7.1-4.4-.1-1.3-.1-2.7-.4-4.3-.5-1.2-.1-2.5-.2-4-.3-2.1 0-4.5.2-7 .9s-5 1.9-7.5 3.7z" fill="#6ac5e3"/><path d="M148.4 900.1c1.1-.8 2.1-1.3 3-1.6.8-.3 1.5-.5 2.2-.6 1.3-.2 2.7-.1 4.4.1 1.3.1 2.7.4 4.3.5 1.2.1 2.5.2 4 .3 2.1 0 4.5-.2 7-.9s5-1.9 7.5-3.7c1.9-1.4 3.6-2.8 4.9-4.4 1.2-1.4 2.1-2.8 2.9-4.3 1.3-2.5 2-5 2.6-7.1.4-1.6.7-3 1-4.3.2-.9.5-1.8.7-2.5.4-1.1.9-2.1 1.5-3 .7-.9 1.6-1.9 3-2.9 1.1-.8 2.1-1.3 3-1.6.8-.3 1.5-.5 2.2-.6 1.3-.2 2.7-.1 4.4.1 1.3.1 2.7.4 4.3.5 1.2.1 2.5.2 4 .3 2.1 0 4.5-.2 7-.9s5-1.9 7.5-3.7c1.9-1.4 3.6-2.8 4.9-4.4 1.2-1.4 2.1-2.8 2.9-4.3 1.3-2.5 2-5 2.6-7.1.4-1.6.7-3 1-4.3.2-.9.5-1.8.7-2.5.4-1.1.9-2.1 1.5-3 .7-.9 1.6-1.9 3-2.9 1.1-.8 2.1-1.3 3-1.6.8-.3 1.5-.5 2.2-.6 1.3-.2 2.7-.1 4.4.1 1.3.1 2.7.4 4.3.5 1.2.1 2.5.2 4 .3 2.1 0 4.5-.2 7-.9s5-1.9 7.5-3.7l-7.4-10.6c-1.1.8-2.1 1.3-3 1.6-.8.3-1.5.5-2.2.6-1.3.2-2.7.1-4.4-.1-1.3-.1-2.7-.4-4.3-.5-1.2-.1-2.5-.2-4-.3-2.1 0-4.5.2-7 .9s-5 1.9-7.5 3.7c-1.9 1.4-3.6 2.8-4.9 4.4-1.2 1.4-2.1 2.8-2.9 4.3-1.3 2.5-2 5-2.6 7.1-.4 1.6-.7 3-1 4.3-.2.9-.5 1.8-.7 2.5-.4 1.1-.9 2.1-1.5 3-.7.9-1.6 1.9-3 2.9-1.1.8-2.1 1.3-3 1.6-.8.3-1.5.5-2.2.6-1.3.2-2.7.1-4.4-.1-1.3-.1-2.7-.4-4.3-.5-1.2-.1-2.5-.2-4-.3-2.1 0-4.5.2-7 .9s-5 1.9-7.5 3.7c-1.9 1.4-3.6 2.8-4.9 4.4-1.2 1.4-2.1 2.8-2.9 4.3-1.3 2.5-2 5-2.6 7.1-.4 1.6-.7 3-1 4.3-.2.9-.5 1.8-.7 2.5-.4 1.1-.9 2.1-1.5 3-.7.9-1.6 1.9-3 2.9-1.1.8-2.1 1.3-3 1.6-.8.3-1.5.5-2.2.6-1.3.2-2.7.1-4.4-.1-1.3-.1-2.7-.4-4.3-.5-1.2-.1-2.5-.2-4-.3-2.1 0-4.5.2-7 .9s-5 1.9-7.5 3.7z" fill="#dd7a90"/><path d="M121.4 85.3c1.1-.8 2.1-1.3 3-1.6.8-.3 1.5-.5 2.2-.6 1.3-.2 2.7-.1 4.4.1 1.3.1 2.7.4 4.3.5 1.2.1 2.5.2 4 .3 2.1 0 4.5-.2 7-.9s5-1.9 7.5-3.7c1.9-1.4 3.6-2.8 4.9-4.4 1.2-1.4 2.1-2.8 2.9-4.3 1.3-2.5 2-5 2.6-7.1.4-1.6.7-3 1-4.3.2-.9.5-1.8.7-2.5.4-1.1.9-2.1 1.5-3 .7-.9 1.6-1.9 3-2.9 1.1-.8 2.1-1.3 3-1.6.8-.3 1.5-.5 2.2-.6 1.3-.2 2.7-.1 4.4.1 1.3.1 2.7.4 4.3.5 1.2.1 2.5.2 4 .3 2.1 0 4.5-.2 7-.9s5-1.9 7.5-3.7c1.9-1.4 3.6-2.8 4.9-4.4 1.2-1.4 2.1-2.8 2.9-4.3 1.3-2.5 2-5 2.6-7.1.4-1.6.7-3 1-4.3.2-.9.5-1.8.7-2.5.4-1.1.9-2.1 1.5-3 .7-.9 1.6-1.9 3-2.9 1.1-.8 2.1-1.3 3-1.6.8-.3 1.5-.5 2.2-.6 1.3-.2 2.7-.1 4.4.1 1.3.1 2.7.4 4.3.5 1.2.1 2.5.2 4 .3 2.1 0 4.5-.2 7-.9s5-1.9 7.5-3.7L244.7 0c-1.1.8-2.1 1.3-3 1.6-.8.3-1.5.5-2.2.6-1.3.2-2.7.1-4.4-.1-1.3-.1-2.7-.4-4.3-.5-1.2-.1-2.5-.2-4-.3-2.1 0-4.5.2-7 .9s-5 1.9-7.5 3.7c-1.9 1.4-3.6 2.8-4.9 4.4-1.2 1.4-2.1 2.8-2.9 4.3-1.3 2.5-2 5-2.6 7.1-.4 1.6-.7 3-1 4.3-.2.9-.5 1.8-.7 2.5-.4 1.1-.9 2.1-1.5 3-.7.9-1.6 1.9-3 2.9-1.1.8-2.1 1.3-3 1.6-.8.3-1.5.5-2.2.6-1.3.2-2.7.1-4.4-.1-1.3-.1-2.7-.4-4.3-.5-1.2-.1-2.5-.2-4-.3-2.1 0-4.5.2-7 .9s-5 1.9-7.5 3.7c-1.9 1.4-3.6 2.8-4.9 4.4-1.2 1.4-2.1 2.8-2.9 4.3-1.3 2.5-2 5-2.6 7.1-.4 1.6-.7 3-1 4.3-.2.9-.5 1.8-.7 2.5-.4 1.1-.9 2.1-1.5 3-.7.9-1.6 1.9-3 2.9-1.1.8-2.1 1.3-3 1.6-.8.3-1.5.5-2.2.6-1.3.2-2.7.1-4.4-.1-1.3-.1-2.7-.4-4.3-.5-1.2-.1-2.5-.2-4-.3-2.1 0-4.5.2-7 .9s-5 1.9-7.5 3.7z" fill="#e5cf76"/><circle cx="36.3" cy="249.4" fill="#dd7a90" r="35.7"/><g clip-path="url(#a)"><path d="M1.1 253.8l6.1-1.8c17.5-5.1 34.5-12.2 50.4-21.1l6.8-3.8-1.9-3.5-6.8 3.8c-15.7 8.7-32.4 15.7-49.6 20.8L0 250zm9.9 24l6.1-1.8c17.5-5.1 34.5-12.2 50.4-21.1l6.8-3.8-1.9-3.5-6.8 3.8c-15.7 8.7-32.4 15.7-49.6 20.8L9.9 274z" fill="#fff"/></g><circle cx="13" cy="237.4" fill="#fff" r="3.3"/><circle cx="73.5" cy="728.6" fill="#e5cf76" r="35.7"/><g clip-path="url(#b)"><path d="M38.4 733l6.1-1.8C62 726.1 79 719 94.9 710.1l6.8-3.8-1.9-3.5-6.8 3.8c-15.7 8.7-32.4 15.7-49.6 20.8l-6.1 1.8zm9.9 24l6.1-1.8c17.5-5.1 34.5-12.2 50.4-21.1l6.8-3.8-1.9-3.5-6.8 3.8c-15.7 8.7-32.4 15.7-49.6 20.8l-6.1 1.8z" fill="#fff"/></g><circle cx="50.3" cy="716.5" fill="#fff" r="3.3"/></svg>