<svg xmlns="http://www.w3.org/2000/svg" width="408.1" height="130" overflow="visible"><style>.st1{fill:#fff}</style><g opacity=".4"><path class="st1" d="M11.9 129.1c-2.2-.3-2.8-.6-3.4-1.3-2.4-2-4.9-4.8-7.1-8.1l-.9-9.3c-1.4-8.7.3-17.1 2.2-25.5.1-1.7.8-3.1 1.5-4 1-1.5 2.9-1.4 4.1.2.3 0 .6.8.7 1.6l-2.4 18.1c-.7 4.5-.5 9.4.7 15.6.7 4.1 3.1 6.6 7.1 7.8.5-.1.5-.1 2 .4.6.5.9.5 1.4.7 1.1.2 2.8.3 4.4-.1 3.8-.9 6.6-2.8 10.6-6.5 3.6-3.1 6.8-6.2 9.2-10 .9-1.7 1.6-2.9 2.9-4.4 1.5-2.1 3.1-4.4 5-8.5.6-2 1.1-2.6 3.5-3.6.5-.3 1.4.1 1.7.9.1 1.4.2 1.6-.3 2.5-.4 1.1-.7 1.7-.8 2.8-1 1.5-2.1 4.1-2.5 5.2-.5.6-.7 1.2-1.7 2.6-1.7 2.6-4.1 6.2-7.3 9.8-2.9 3.9-6.2 7.2-9.3 9.1-7.3 4.3-12.9 5.9-18.8 4.3-.8-.2-1.6-.1-2.5-.3zM9.7 40.2c-.5-1.9 0-3 1-4.2.8-.4 1-.7 2.3-1.6l1.3-.9c1.6-1 3.3 0 3.7 1.6.9 3.8-1.7 7.6-4.8 7.6-1.6-.2-3.1-1.1-3.5-2.5z"/><path class="st1" d="M173.3 86.3c-1.4 2.3-2.1 4-3.2 6.9-1.6 3.5-2.7 6.6-5.3 10.4-1.4 2.3-3.2 4.2-6.8 7-.2.6-.5.6-1 1.2-.2.3-.5.6-.7.9l-.8.4c-1 .7-1.8 1.3-2.9 1.4h-.3c-3.7 1.7-7.4 3.5-12.2 4.2-1.4-.1-2.8 0-4.1.1-6.6-.2-10.4-2.3-15.5-6.5l-.9-1.3c-.6-.8-1.2-1.3-1.9-2.3-.9-.7-1.2-1.3-1.9-2.8-1.4-2.6-2.2-5.6-3-8.5-.2-1.9-1.5-3.7-3-5.5-1.1 2.6-2.1 4.1-3.1 4.4l-.2.6c-2.3 4.6-3.9 8.1-7 13-1.2 2-2.7 3.6-7 7-1.3 1.2-3.1 2.5-4 4-5.7 3.3-11.8 6.4-17.5 6.4l-2.5-.6c-1.9-.1-2.5 0-3.9-.7l-2-.9c-4-1.3-5.2-2.5-6.5-4.9l-.3-.2-2.1-2.3.3.2c-.6-.8-1-1.8-1.4-2.9-.7-1.9-1.1-2.6-2-3.7.1-2.2-.1-4.1-.3-6.3-.3-3.3-.6-6.5.5-9.4 1-3.9 1.3-6.7.7-10.2-.3-3-.8-5.7.9-7.8-.9-4 .1-7.4 1.4-11.1.2-.6.4-1.4.4-2 .5-.9.7-1.4.6-2-1.3-5.4.1-10.2 1.9-15 .4-1.7 1-3.7 1.4-5.1l.6-2c1-3.7 1.1-5.3.7-7.2-.1-.8.1-1.9.4-2 1.7-2.6 2.3-4.6 3.2-9.4-.1-.8.1-1.7.3-2.2.2-1.1.6-2 1.5-4s2.1-4 2.4-6 1-3.4 3.5-6.4c.5-.6 1-1.5 1.5-1.8.5-.6.7-.9 2.3-1.3.8-.4 1.6-.2 3 0 4.7.4 7.2 3.7 6.6 9 0 .3.1.8-.2 1.1-.1 2.2 0 3 .4 4.6.3 0 .4 1.3.5 1.9-1.4 2.9-2.2 6-1.9 9.3-2.4 3.8-2.3 7.9-2.4 12.1-.2.8-.7 1.7-1.6 3.7-.2.6-.2.6-.2.8-1.4 2.6-2 4.6-3 9.1l-1.5 4.5c-2.5 8.8-4.6 15.3-5.3 16.7-2.3 4.9-4.8 10.1-7.6 15.3-.4 1.1-.9 1.7-2.1 3.5-2.6 4.1-3.6 5.8-3.1 8.3.1 1.4.5 2.2.5 2.7.1 1.1.1 1.4 0 2.8-.3 2.2.1 3.6 1.1 5.9l1.1 2.9c.5 2.4 1.7 3.4 4.6 5.1.8.2 1.1.4 1.7.9 3.5 1.6 5.4 1.4 9.4 1 6.5-.6 13.7-5.7 19-13.7.7-.9 1-1.5 2.2-3 2.2-3 4.9-6.2 5.7-9.6.2-.8.4-1.4 1.4-2.9.7-1.2 1.2-1.8 1.4-2.3l.5-.9s.2-.3.2-.6c.2-1.1 2.3-4.9 2.1-4 1.9-3.2 2.5-5.2 3.7-10.5.4-2 .7-3.9 1.4-5.6.5-.6.7-1.2.4-2-.1-4.4.4-7.7.8-11.4.3-2.2.9-4.8 1-7.2.2-3.9 1.7-7.6 3-11.3.4-2 .7-3.6 1.8-6.8.4-1.1.9-2.6 1.3-3.4.7-1.4.9-2 .8-2.8-1-4.3.9-7.5 2.5-11.2.5-.6.9-1.7 1.2-2 .5-.9.4-1.1.9-2.3.2-.8.4-1.7.6-2 1.4-2.3 3.5-3.4 6.1-2.8 1.5 1 2.4 2.5 2.2 2.8.5 2.4 1.1 5.4.2 8.2-.6 2.8-.8 5.6-1.4 8.4-2 10.9-3.9 22.1-7.6 32.3-1.2 2-1.8 4-3.1 8.3-1.1 3.1-2.1 6.5-3 8.8-1.8 4-2.7 6.6-1.9 8.4.7 4.3.6 6.3.2 10.2-.4 4.2.1 6.3 3 10.7.9 1.3 1.3 2.1 2 3.4.7 1.9 2.5 3.6 5.4 5 2.8 3.3 8.3 3.9 15.3 2.4l-.3-.2c11.7-3.9 21.6-18.8 22.5-22.8.7-1.2.9-2 1.8-3.8l.9-2c.9-2 2-2.4 3.2-1.4 1.9.7 2.4 3.4 1.4 4.6zM57.2 79.9c2.2 3.1 6.1-5.5 7.4-11.4C66 65.6 69 54 69.9 51.2c.6-2 1-3.7 1.8-7 .5-3.1 1.3-6.2 2.5-8.8 1.4-2.9 2-4.9 2.9-9.9.1-1.7.5-3.3.9-4.8.4-1.7.5-3.3.7-6.7.2-.8.4-2 .3-2.8-.6-.5-.3 0-.3-.5-.3-.5-1.2-.7-1.7-.7h-.3c-.6-.2-1.9.2-1.9.5-1.8 1.5-3.6 3.1-3.9 5.6-.4 2-.8 3.1-2.2 6-1.3 3.2-2.9 6.6-2.6 10.4-.2.3-.2.6-.2.6-1.7 2.1-1.8 4.6-2.1 6.8l-1.5 7c-1.4 5.1-3 11.3-3 17.6.1.5-.2.8-.5 3.1-2 7.7-2.5 11-1.6 12.3z"/><path class="st1" d="M257.9 76.8c-1.6 3.2-3.2 6.6-4.6 9.2-5 8.2-10 13.6-18.3 18-2.9 1.7-4 1.8-5.9 1.9-1.1.1-2.5.2-4.1.7-3.8.9-7.3-1.2-11.9-3.5-.3 0-1.2-.7-2.1-2-2.3-3.6-4.8-7.2-5-12.2-.2-2.2-2.7-2.5-3.9-1-1.3 1.2-2.2 2.4-3 3.6-1.4 2.6-2.6 4.4-5.8 8.3-.7 1.2-2 2.4-2.7 3.3-3.9 5-10.1 6.7-16.2 6.2-1.1-.2-1.7-.4-2.3-1.2-1.2-1.3-2.8-3-4-4.8-.1-.5-.5-1.9-.2-2.2-1.6-8.4 0-13.8 1.9-20.5 1.8-7 3.3-13.8 4.3-20.8.3-2.5 2.6-4.1 4.7-2.6.3 0 1.2.7 2.1 1.5.3 0 .3.2.3.2.3.2.4.8-.1 1.7-.2.6-.5.9-.7 1.2-1.4 2.9-2.2 6-2.1 9.8-.1 1.7-.5 3.1-1.5 4.8-.9 2.3-1.3 3.4-1.5 4.5-.1 1.4-.3 2.2-.7 3.9-.6 2.8-1.1 6.2-1.3 8.9-.3 3 1.1 5.4 4.1 8.7.6.5 2.5.3 2.8.3 4.4-2.6 8.3-4.9 10.5-8.2 1.7-2.6 2.5-4.9 4.8-10.1 1.8-3.8 3.7-7.8 5.5-11 1.7-2.6 2.1-3.8 2.2-5.4.1-1.4.1-1.4 2.7-3 2.3-1.3 4.7-.2 4.9 2.5.3 2.7.3 5.5-.1 8-.3 2.2-.4 4.4-.2 9.4-.2.6-.2 1.1-.1 1.7.1 3.6 1.7 6.4 4.8 10.3 4.6 5.1 9.3 5.7 15.7 2.9 2.9-1.1 4.5-1.5 6.5-3.7.2-.3.5-.3 1.3-.7.8-.6 2.1-1.3 3-2.8 4.6-3.5 6.7-7.8 9-12.7l3-6.1c1-.6 1.6-1 2.5-.2 1.5 1 1.9 2.6 1.7 3.2z"/><path class="st1" d="M265.2 107.2c-1.1.1-1.7-.1-2.5 0-3.3-.2-5.1-1.4-7.4-5.1l-.1-1.1c-.1-.5-.4-.8-.4-1.1-.3-2.7.2-3.6 1-3.7 2.1-1.3 3.2-1.1 4.4-.4.6 1 1.2 1.5 2.4 2.5.6.5.9 1 1.5 1.2 2.1 1.7 5.7 1.7 7.2.1 4.1-3.1 6.5-7.2 7.1-11.7.1-2.2.2-3.3-.1-4.4-2.1-4.5-4.2-9.2-6-13.7-1.4-2.6-1.8-4-2.5-5.8 0 0 0-.3-.3-.5-1.3-2.1-1.5-4.5-2.4-4.4-.5.3-1.9 3.2-2.6 4.1l-.5.9c-.5.6-.7 1.2-1.4 2.3-.2.8-.4 1.7-1.3 3.2-1 1.5-1.4 2.6-2.3 4.9-.6 2-1.5 4-2.7 5.8-1.8 1.8-2 1.8-4.9.5v-.3c1-3.4 2.1-6.8 4-9.7 2.6-4.1 3.7-7.5 5-10.7 1-3.4 1.3-4 3.4-7.5 1-1.5.3-3-.4-4.6-.4-1.3.1-4.4.8-5.9 1.4-2.6 6-3.9 8.8-3.3.3 0 1.2 1.5.9 1.3-.9 2-1.1 2.9-1.2 4.5-.2 1.1-.3 2.5-.9 4.5-1.6 3.5-1.4 5.4.9 9.8.7 1.6 1.3 2.3 1.8 4 .7 1.6 2.3 3.9 3.8 5.7 2.2 2.8 2.8 3.6 3.2 4.9 3.2 7.1 3.7 15.3 1.3 22.4l-.5.9v.3c-.9 2 2.2 3.4 3.6 2.7 1.3-.4 2.1-.8 4-1.2 3.5-1.2 7.5-2.4 10.3-4.8l6.9-5.3.2-.3c.2-.3.2-.6 1-1.2 1-.6 2.3-1.9 2.7-3 3.3-2.8 8.2-9.6 11.4-15.7.2-.8 2.2-2.4 4.1-.4l.1 1.1-.2.8c-.2 1.1-.4 1.7-1.1 2.6-.4 1.7-1.4 2.9-3.1 4.7-1.2 1.5-3 3.6-3.6 5.6.3.2-1.9 3.2-2.4 3.3-1.9 2.7-3.4 4.5-6.8 7-1.5 1.2-3 2.8-4.5 4.3-1.9 2.7-3.5 3.6-7.5 5.1-1.9.7-4 1.5-5.8 2.5-2.1 1.3-4 1.5-8.6 2.2-2.2.2-4.1.4-6 .9-4.3-.7-7.9-.9-11.8-.8z"/><path class="st1" d="M333.2 96c-1.4-.7-2.3-.9-3.1-1.1-.3 0-.6-.2-1.2-1-.3-.5-.9-1-2-1.2-1.4-.4-4.2-6.5-4.4-11.4-.7-7.4-.8-13.7 1.1-20.4.2-.8.1-1.4.8-3.1l1-3.7c-.2-1.6 0-2.5 0-3 1.4-2.6 2.1-4.3 2.5-8.2.4-1.7.5-3.3 1.2-5.1.3-2.2-1.4-2.9-4.3-2.3-.5.1-.8.1-1.1-.2-1.1-.2-2.5 0-5.2.8l-2.2.2c-2.2.5-3.2.6-4.4.4-.5.1-1.2-.7-1.3-1.8-.4-.8-.6-.5.2-.8l.5-.3c2.6-1.6 5-2.1 7.5-2.1 3.3 0 4.4-.4 5.4-.8.5-.3 1.6-.7 3.8-.9 2.2-.2 3.7-2 4.2-4.5 1-1.5 1.6-3.7 1.2-4.8-.4-1.3-.2-2.2.5-3.6 1.2-1.8 1.4-2.6 1-3.9l3.2-9.4c.6-2.3 1.7-2.6 3.4-1.4l1.2 1c.6.5.9 1 1 1.8l.2 2.5c.1 1.4.2 2.2 0 2.7-.6 2.3-1 3.9-1.3 6.5-.1 1.7-.5 3.6-1.3 6.4l-.5.9c-1.2 2-1.3 3.2.4 3.8 2.5.3 4.7-.2 6.5-.9 7.4-2.9 12.6-2.9 20-3.3.3 0 .8-.1 1.1.2l.6.8c.6.2.3.2.3.2.1.5-.4 1.7-.6 2-.8.4-1.6.7-2.4.8-1.6.2-3 .6-4.1.7-2.2.5-3.8.9-6.5 1.2-.8.1-1.4.1-1.9.5l-.5.1c-2.2.2-4.1.7-5.7.8-1.6.4-3.2.6-5.4.8-3.8.6-4.8 1.6-5.1 4.6-.6 2.5-1 3.7-1.7 4.8-1.6 2.9-2 4.6-1.7 7.6 0 .3-.2 1.1-.9 2.3-.5.9-.7 1.7-.9 2-5.6 15.7-5.3 21.7-3.2 31.9.2 1.6.8 2.1 2.9 4.1 5.7 4.7 11.8 5.5 19.2 2 5.3-2.4 10-4.5 14-9 1.2-1.8 1.7-2.1 3-2.8.8-.3 2.1-.8 3.4-2 2.3-1.9 4.3-3.7 6-6.1.7-.9 1.2-1.8 2.7-3.8 1.2-2.3 2.8-4.7 4.1-5.9.5-.3.8-.6 1.6-.2l.9.7c1.2 1 1 1.6.9 1.3-.2.8-.5.9-.7 1.7-.4 1.4-.8 2.8-1.6 3.7-1.5 1.2-2.2 2.4-4.4 5.4-1.2 1.8-2.7 3.8-3.6 5-3.7 3.9-5.8 5.5-9.2 7.8-1.3.7-2.8 1.9-4.4 2.9-4.1 3.1-6.7 4.2-11.5 6.3-10.1 3.6-15.5 1.3-19.2-.2zM399.6 89.8c-.8-.2-1.2-1-1.3-2.1-.5-4.9 2.7-9.3 7.1-9.2.5-.6 2 .4 2.3 1.4.9 3.2.1 6.6-1.9 9-1 .7-1.6 1-4.8 1.3l-1.4-.4z"/></g><path class="st1" d="M109.4 86.1c-.5 0-1-.4-1-.9V63.8c-7.5 2.7-12.9 3.8-13.5 3.8-.4 0-.8-.2-1-.7l-3-7.5c0-.2-.1-.2-.1-.4 0-.4.2-.8.6-.9 10.1-3.9 24.1-11.1 32.2-15.1.2 0 .3-.1.5-.1.5 0 1.1.2 1.3.6l5.3 8.9c0 .1.1.2.1.4 0 .4-.2.9-.7 1.2-4 2.3-10.5 5.3-17.3 8h6.6c.5 0 1 .5 1 1v22c0 .6-.4.9-1 .9h-10zM160.4 84.3c-.5-.2-1-.5-1-1 0-.2.1-.5.2-.8 3.5-5.7 6.6-13.4 6.6-14.4 0-.6-.5-.7-.8-.8l-19.6-1.6c-.5 0-.9-.4-.9-.9v-.1l.8-7.8c.1-.5.5-.9 1-.9h.1l28.6 2.2c3 .2 5.2 2.2 5.2 5 0 2.9-2.9 14.6-11.5 22.9-.2.2-.9.7-1.7.7-.2 0-.5-.1-.7-.2l-6.3-2.3zm12-30.7c-6.3-.2-14.8-.8-20-.9-.7 0-1.2-.7-1.2-1.2v-.1l.6-7.4c.1-.6.6-1.1 1.3-1.1h.1c5.5.2 15.4.4 20 .6.7.1 1.2.7 1.2 1.2v.1l-.5 7.6c0 .7-.7 1.2-1.3 1.2h-.2zM191.8 80c-.2-.2-.4-.5-.4-.8 0-.4.3-.8 1-1.1 10.2-5 17.7-17.3 17.7-19.8 0-.6-.3-.9-1.1-.9l-10.6-.9c-.5-.1-1-.5-1-1.1v-.1l.8-8.2c0-.6.5-1 1-1h.1l20 1.6c2.2.2 5.3 2.2 5.3 5.6v.5C223.5 66.2 212 81 198.7 85.6c-.5.2-.8.3-1.3.3s-.9-.2-1.4-.8l-4.2-5.1zm28.6-9c.3-.5.8-.7 1.2-.7.4 0 6.5.8 12.7 4.3.5.3.8.7.8 1.1 0 .3-.2.6-.4.9-1.2 2.1-3.9 6.3-5.2 8.5-.2.4-.5.6-.9.6-.3 0-.6-.2-.9-.3-2.7-1.8-8.5-5.3-11-6.8-.4-.2-.8-.5-.8-.9 0-.2.1-.4.3-.7l4.2-6zM253.6 86c-.5 0-1-.4-1-.9V42.9c0-.6.5-1 1-1h9.9c.5 0 1 .4 1 1V60l2.6-3.6c.4-.5.8-.7 1.3-.7 1.5 0 9.5 2 13.8 4.3.5.3.8.7.8 1.1 0 .4-.2.8-5.7 9.7-.2.4-.6.5-1 .5s-.7-.1-1-.3c-2.5-1.6-7.7-4.3-11-5.9V85c0 .5-.4.9-1 .9h-9.7z"/><g><path class="st1" d="M56.9 57.4c2.9.8 5.9 1.7 8.8 2.5 1.1.3 1.6 1.7.9 2.6-1.6 2.2-3.4 4.5-5.2 6.8.1 3 .1 6-.1 9-.1 1-1 1.8-2 1.5-2.6-.6-5.3-1.4-8.1-2.3-2.7 1.1-5.3 2.2-7.7 3.1-1 .4-2.1-.3-2.2-1.4-.3-3-.6-6.1-.7-9.1-1.9-2.2-3.9-4.4-5.7-6.5-.8-.9-.4-2.3.7-2.7 2.9-1 5.8-2.1 8.6-3.1 1.6-2.5 3.2-5.1 4.8-7.6.6-1 2.1-1.1 2.8-.1 1.5 2.5 3.3 4.9 5.1 7.3z"/></g><g><path class="st1" d="M327.2 57.4c2.9.8 5.9 1.7 8.8 2.5 1.1.3 1.6 1.7.9 2.6-1.6 2.2-3.4 4.5-5.2 6.8.1 3 .1 6-.1 9-.1 1-1 1.8-2 1.5-2.6-.6-5.3-1.4-8.1-2.3-2.7 1.1-5.3 2.2-7.7 3.1-1 .4-2.1-.3-2.2-1.4-.3-3-.6-6.1-.7-9.1-1.9-2.2-3.9-4.4-5.7-6.5-.8-.9-.4-2.3.7-2.7 2.9-1 5.8-2.1 8.6-3.1 1.6-2.5 3.2-5.1 4.8-7.6.6-1 2.1-1.1 2.8-.1 1.6 2.5 3.3 4.9 5.1 7.3z"/></g><g><path class="st1" d="M69.5 6.5c.1-.1.2-.1.3-.1.5 0 1.9 2.2 2.1 2.6.7-.2 1.5-.3 2.4-.3.7 0 1.5.1 2.2.3.5-.8 1-1.6 1.4-2.4.1-.2.2-.3.4-.3h.1c2.8 1.4 3.2 1.6 3.2 1.9 0 .1-.3.7-1.6 2.5 1.8 1.7 1.9 4.2 1.9 4.8 0 2.1-.9 4.1-2.7 6-.2.2-.3.3-.5.3-.3 0-2.6-1.2-2.7-1.2-.2-.1-.3-.2-.3-.3s.1-.2.2-.3c1.3-1.2 2.2-3.1 2.2-4.6 0-.5-.1-1-.3-1.5 0-.1-.1-.1-.1-.1-3.7 4.6-6.4 6.7-7.4 6.7-.3 0-.5-.1-.6-.4-1.4-2.2-1.9-4.1-1.9-5.7 0-1.4.5-2.6 1.3-3.5C67 8.6 67 8.5 67 8.3c0-.1 0-.2.1-.3l2.4-1.5zm2.3 7.3c-.1.1-.2.1-.2.1-.1 0-.3-.1-.6-.5-.1.3-.2.6-.2.9 0 .6.4 1.5.6 1.5.1 0 1.2-1.2 3.3-4.1h-.4c-.3 0-.7 0-1 .1.1.2.2.4.2.6 0 .1.1.2.1.3s0 .2-.2.3l-1.6.8zM92.2 16.7c-.2-.1-.3-.2-.3-.4v-.1c.6-1.6 1.2-3.3 1.7-5l-1.6-.1c-.2 0-.3-.2-.3-.3l.3-2.9c0-.2.2-.3.3-.3l2.3.2c.1-.6.3-1.1.4-1.5 0-.3.1-.4.4-.4h.1l3.2.3c.3 0 .3.3.3.5 0 .1-.2 1.1-.3 1.5l.9.1c.2 0 .3.2.3.3l-.3 2.9c0 .2-.2.3-.3.3l-1.5-.1c-.5 1.9-1.2 3.7-2.1 5.3-.1.2-.2.3-.5.3h-.1l-2.9-.6zm12.5 4.3c0 .4-.3.4-1.2.4-3.2 0-6.1-1.3-6.1-1.8v-.2l1-2.5c.1-.2.1-.3.3-.3.1 0 .2 0 .3.1 1.3.4 3.3.8 5.3.9.2 0 .4.1.4.5V21zm-3.6-8.4c-.1-.1-.2-.1-.2-.3 0-.1 0-.1.1-.2l1.1-2.4c.1-.2.1-.2.3-.2.5 0 3.3 1 3.9 1.3.1.1.3.1.3.3 0 .1 0 .2-.1.3l-1.2 2.8c-.1.2-.2.3-.3.3-.1 0-.1 0-.2-.1l-3.7-1.8zM118.6 21.2c-.2 0-.4-.1-.4-.6v-3.7c-.2.3-.3.7-.5 1-.1.1-.2.2-.3.2-.1 0-.2 0-.4-.1-.5-.3-1.5-.7-2-1-.2-.1-.3-.3-.3-.4 0-.3 1.8-3.3 2-3.7l-2-.9c-.1-.1-.1-.1-.1-.2s0-.1.1-.2l1.4-2.2c.1-.1.1-.2.3-.2.3 0 1.2.3 1.8.6V6.7c0-.2.2-.4.4-.4h2.9c.2 0 .4.2.4.4v2.2c.5-.1 1.1-.2 1.6-.2 3.1 0 6.4 1.9 6.4 5.8.2 0 .5 0 .8.1.2 0 .3.1.3.7 0 .8-.1 2-.1 2.5 0 .3-.1.4-.4.4-.4 0-.7 0-.9-.1-.5 1.8-2.2 2.9-3.9 2.9-.9 0-3.2-.5-3.2-3 0-1.6 1-3.4 3.8-3.4-.2-1.9-1.6-2.6-2.9-2.6-.5 0-1 .1-1.5.3v8.3c0 .4-.2.6-.5.6h-2.8zm7.5-4.1c-.6 0-1.2.2-1.2.6 0 .4.3.6.6.6.4 0 .9-.5 1-1.2h-.4zM148.7 16.9c0 1-4.5 2.6-5.7 2.6-.3 0-.5-.1-.7-.3-1.4-2.3-2-4.3-2-6 0-4.2 3.6-6 7.1-6 5 0 8 3.2 8 7.2 0 2.3-1 4.4-3 6.4-.2.2-.4.3-.6.3-.1 0-.3-.1-.4-.1-2.8-1.4-2.8-1.4-2.8-1.6 0-.1.1-.2.2-.3 1.5-1.4 2.4-3.1 2.4-4.6 0-1.4-1-3.7-3.9-3.7-2 0-3.5 1.1-3.5 2.7 0 .1.1 1.6.7 1.6h.1c.6-.3 1.9-1.1 2.4-1.4.1-.1.3-.1.3-.1.1 0 .2.1.3.2.1 0 1.1 2.9 1.1 3.1zM172.2 18c0 2-1.7 3-3.5 3s-4.1-1-4.1-3.8c0-2.4 1.7-4.1 3.9-4.8v-1.2l-2.4.1c-.2 0-.3-.1-.3-.3l-.1-2.6c0-.2.2-.3.3-.3l2.4-.1v-.9c0-.2 0-.4.4-.4h2.9c.3 0 .4.3.4.5v.7h1.1c.2 0 .3.2.3.3v2.6c0 .2-.1.3-.3.4H172v.8c4.1.4 6.7 3.3 6.7 6.3 0 1.9-1.1 3.5-1.5 3.5-.3 0-2.6-1.1-2.7-1.2-.1-.1-.2-.2-.2-.3 0-.1 0-.1.1-.2.3-.4.4-1.1.4-1.8 0-2-1.6-2.6-2.8-2.8l.2 2.5zm-3.7-2.3c-.6.2-1.1.6-1.1 1.3 0 .6.5.6.5.6.3 0 .5-.2.5-.6v-1.3zm9.3-2.2c-.1.1-.2.1-.2.1-.1 0-.2-.1-.3-.1-.6-.7-2-2.4-2.6-3.1 0-.1-.1-.1-.1-.2s0-.2.1-.2l1.7-1.4c.1-.1.1-.1.2-.1.4 0 3.2 2.5 3.2 3 0 .1 0 .2-.1.3l-1.9 1.7zM199.4 7.4c.1.1.3.2.3.4 0 .1-.1.2-.1.4-1.4 1.8-3.4 5-3.4 5.5 0 .1 0 .2.2.3 1.7 1.7 4.2 4.5 4.2 5.2 0 .3-.2.5-2.3 2.2-.1.1-.2.1-.3.1-.1 0-.3 0-.4-.1 0 0-3.9-3.9-5.4-5.5-.5-.5-.6-.8-.6-1.2 0-1.3 1.8-5.4 4.8-8.7.1-.1.2-.1.4-.1.1 0 .2 0 .3.1l2.3 1.4zM223.5 11.3c.1 1 .1 2.1.1 3.1.4.6.6 1.4.6 2.3 0 1.2-.4 2.7-1.4 4.3-.2.4-.4.4-2.7.4-.7 0-.7-.1-.7-.2s0-.1.1-.2c.3-.7.5-1.3.6-1.8-.4.1-.8.1-1.1.1-1.7 0-3.8-.8-3.8-3.4 0-2.6 2.1-3.9 4.2-3.9h.1l-.1-1-5.7-.2c-.2 0-.3-.1-.3-.3l.1-2.9c0-.2.2-.3.4-.3l5.3.2-.2-1.4V6c0-.2.1-.3.3-.3l3-.2c.4 0 .4.2.7 2.2l4.1.2c.2 0 .3.2.3.4l-.1 2.9c0 .2-.2.3-.4.3l-3.4-.2zm-4.4 3.7c-.4 0-.8.3-.8.7 0 .3.2.8.7.8.6 0 .7-.6.7-1.2-.2-.2-.4-.3-.6-.3zM238.6 13.9c-.2-.1-.3-.2-.3-.5 0-1.2.7-3.9.7-4.2.1-.2.2-.4.5-.4h.1l3.2.6c.2 0 .4.2.4.5v.2l-.5 3.9c0 .2-.3.5-.6.5h-.1l-3.4-.6zm6.6 6.6c-.2-.1-.2-.2-.2-.3s0-.3.1-.4c.7-1.2.9-2.6.9-4.1 0-2.7-.8-5.5-1.5-7.7 0-.1-.1-.2-.1-.3 0-.2.1-.4.3-.4l3.2-.8h.3c.4 0 .5.2.5.4 1 2.4 1.9 5.4 1.9 8.3 0 2.2-.5 4.4-1.8 6.1-.2.2-.3.3-.6.3-.1 0-.3 0-.4-.1l-2.6-1zM262.4 20.5h-.2c-.2 0-.3-.1-.3-.4l-.4-6.5-.8-.1c-.3 0-.4-.2-.4-.5v-.2l2.1-6.4c.1-.2.2-.3.4-.3h.2l2.7.9c.2.1.3.2.3.4v.2l-1.6 4.8h.4c.3 0 .4.2.4.4l.5 6.3v.1c0 .3-.2.6-.5.6l-2.8.7zm13.7 1.1l-8.9-.2c-.5 0-.9-.3-.9-.8l-.2-13.9c0-.5.4-.8.8-.8l7.7-.5h.2c1.6 0 2.4 1 2.4 2.8v.1l-.2 12.2c0 .7-.4 1.1-.9 1.1zm-2.2-11.9c0-.6-.3-.8-.7-.8h-.1l-4.2.1.1 9.7 4.8.1.1-9.1zm-3.8 8.5c-.3 0-.4-.1-.4-.4l-.1-3c0-.3.2-.4.4-.4h.1v-1.2h-.4c-.2 0-.3-.1-.3-.3v-1.6c0-.3.1-.3.3-.3h.5v-1c0-.2.1-.3.3-.3l1.7.1c.2 0 .3.1.3.3v.7h.5c.2 0 .3.2.3.4v1.5c0 .3-.1.4-.3.4h-.6v1.2c.5.1.8.5.8 1v.1l-.1 2.3c0 .3-.3.5-.5.5h-2.5zm1.5-2.2c0-.2-.1-.3-.3-.3l-.6.1V17h.8l.1-1zM294.1 18.2l.1 1 1-.1h.1c.1 0 .2.1.2.2l-.1 1.7c0 .3-.2.4-.4.5l-4.4.4h-.1c-.3 0-.5-.2-.5-.4l-.2-1.7v-.1c0-.2.1-.3.3-.3l.8-.1-.1-1.1-1.6.1c-.1.9-.3 1.8-.6 2.5-.2.3-.5.5-.9.5-.1 0-.3 0-.4-.1l-2.4-.8c-.2-.1-.3-.2-.3-.4v-.2c.6-1.3 1-3.7 1-4.4l.1-7.6c0-1.6 1-2.4 2-2.4l10.7-.3h.1c1.4 0 2.3.6 2.3 2.3l.1 3.2c0 .6-.4 1-1 1l-10.5.2-.1 3.9v.5l2-.1-.1-1.1h-.9c-.2 0-.3-.1-.3-.3v-1.4c0-.2.1-.3.2-.3h.8v-.3c0-.2.1-.3.3-.3l2.3-.1c.2 0 .3.1.3.3v.5h1.9v-.5c0-.3.2-.3.4-.3l2.7.1c.2 0 .3.1.3.3v.4h1c.2 0 .3.1.3.3v1.4c0 .2-.1.3-.3.3h-1.1l-.1.8 1.7-.1h.1c.2 0 .3.1.4.3l.1 1.5v.1c0 .2-.1.3-.3.3l-6.9.2zm2.8-9.6c0-.3-.2-.5-.5-.5h-.1l-6.3.2c-.4 0-.5.3-.5.6v.9l7.5-.2-.1-1zm-.9 6.3h-1.7l.1 1.2 1.5-.1.1-1.1zm4.5 6.8c-.1.2-.4.3-.6.3-.2 0-.4 0-.6-.1l-3.3-1.6c-.1-.1-.2-.2-.2-.3 0-.1 0-.2.1-.3l1-1.5c.1-.1.2-.2.3-.2.1 0 .1 0 .2.1l1.3.5.2-.3c.1-.1.2-.2.3-.2.1 0 .1 0 .2.1l1.5.6c.1.1.2.2.2.3 0 .1 0 .1-.1.2l-.2.3.4.2c.2.1.2.2.2.3 0 .1-.1.2-.1.3l-.8 1.3z"/></g></svg>