<svg height="126.9" width="397.8" xmlns="http://www.w3.org/2000/svg"><g fill="#fff"><g opacity=".4"><path d="M13.8 126.4c-1.1.1-1.7-.1-2.5 0-3.3-.2-5.1-1.4-7.4-5.1l-.1-1.1c-.1-.5-.4-.8-.4-1.1-.3-2.7.2-3.6 1-3.7 2.1-1.3 3.2-1.1 4.4-.4.6 1 1.2 1.5 2.4 2.5.6.5.9 1 1.5 1.2 2.1 1.7 5.7 1.7 7.2.1 4.1-3.1 6.5-7.2 7.1-11.7.1-2.2.2-3.3-.1-4.4-2.1-4.5-4.2-9.2-6-13.7-1.4-2.6-1.8-4-2.5-5.8 0 0 0-.3-.3-.5-1.3-2.1-1.5-4.5-2.4-4.4-.5.3-1.9 3.2-2.6 4.1l-.5.9c-.5.6-.7 1.2-1.4 2.3-.2.8-.4 1.7-1.3 3.2-1 1.5-1.4 2.6-2.3 4.9-.6 2-1.5 4-2.7 5.8-1.8 1.8-2 1.8-4.9.5v-.3c1-3.4 2.1-6.8 4-9.7 2.6-4.1 3.7-7.5 5-10.7 1-3.4 1.3-4 3.4-7.5 1-1.5.3-3-.4-4.6-.4-1.3.1-4.4.8-5.9 1.4-2.6 6-3.9 8.8-3.3.3 0 1.2 1.5.9 1.3-.9 2-1.1 2.9-1.2 4.5-.2 1.1-.3 2.5-.9 4.5-1.6 3.5-1.4 5.4.9 9.8.7 1.6 1.3 2.3 1.8 4 .7 1.6 2.3 3.9 3.8 5.7 2.2 2.8 2.8 3.6 3.2 4.9 3.2 7.1 3.7 15.3 1.3 22.4l-.5.9v.3c-.9 2 2.2 3.4 3.6 2.7 1.3-.4 2.1-.8 4-1.2 3.5-1.2 7.5-2.4 10.3-4.8l6.9-5.3.2-.3c.2-.3.2-.6 1-1.2 1-.6 2.3-1.9 2.7-3 3.3-2.8 8.1-9.6 11.4-15.7.2-.8 2.2-2.4 4.1-.4l.1 1.1-.2.8c-.2 1.1-.4 1.7-1.1 2.6-.4 1.7-1.4 2.9-3.1 4.7-1.2 1.5-3 3.6-3.6 5.6.3.2-1.9 3.2-2.4 3.3-1.9 2.7-3.4 4.5-6.8 7-1.5 1.2-3 2.8-4.5 4.3-1.9 2.7-3.5 3.6-7.5 5.1-1.9.7-4 1.5-5.8 2.5-2.1 1.3-4 1.5-8.6 2.2-2.2.2-4.1.4-6 .9-4.3-.7-7.9-.9-11.8-.8z"/><path d="M156.5 80.2c-.3 2.5-1.4 5.1-3.7 7.5-.5.9-1 1.2-2 2.1-1.7 2.1-3.2 3.9-4.3 7-.5.9-1.5 1.8-3.3 3.3-1.3.9-2 1.8-3.8 3.7-2.8 2.7-5.3 5.2-8.6 7.4-3.8 3.1-8.4 3.8-12.5 1.8-2.3-.9-2.8-.8-4-1.5-6.7-3.5-10-12.8-8.3-20.9l1.8-7v-.3c0-2.5-.1-4.1-1.4-5.6-.7-1.6-3.8-1.8-5-.9-3.8 3.1-7.9 6.3-10.5 10.4-.9 1.7-1.6 2.9-3.6 5.8-3.6 5.8-7.4 12-10.1 17.7-.9 1.7-1.6 2.9-2.8 5.5-.5.6-.7 1.4-.9 1.7-1.2 2.3-3 3-5.5 2.5-1.1-.2-2.1-2-1.9-3.1l1.4-8.1c.6-4.7 1.3-9.7 2.8-14 .2-1.1.3-2.2.3-3-.3-3 .2-6.3 2.1-10.1l.5-.6c.7-1.7 1.1-2.9.5-3.6-.7-1.6-.6-3.2.5-5.8.2-.8.7-1.7.9-2.3l.6-2.3c1.1-2.9 1.5-4.3 1.1-5.9-.1-.8.4-1.7 1.3-3.2 0-.3.2-.6.4-1.1.7-1.2.9-1.7.9-2.3-.6-3.2.2-6.1 1.1-8.9.6-2 1.2-4.2 1.4-5.9.3-3 .9-5.3 1.4-7.8.6-2.5 1.2-5.1 1.5-7.6 0-3.3 1.1-6.2 2.4-9.6.4-1.1.9-2.3 1-3.4.7-1.2 1.2-1.8 3.2-1.4 1.1.2 1.4.7 1.2 1.5 1.7 3.4 2 9.2.5 13.7-1.2 4.5-2 8.2-2.7 12.1-.6 2-1 4.2-1.6 6.5-.1 1.4-2.4 9.3-2.8 10.4-.2.6-.2 1.1-.9 2.3-1.8 4.6-2.1 6.5-1.6 9.2-1.7 2.6-1.7 2.4-1.9 5.7-.3 2.5-1.2 4.5-2.1 6.5-1.3 3.2-1.6 5.9-1 9.4 0 .3.6 1 .6 1 .9.5 3 .3 2.8.6 2.5-2.4 3.7-4.2 7.4-8.7 1.3-1.2 2.5-2.7 3.5-3.9 1.9-2.9 4-4.2 8.7-6.6 3.2-1.1 5.4-1.1 8 .3 1.1.4 1.5 1.2 1.9 2.6l1.2 4.3c.6 3.8-.2 6.6-.8 8.9-.3 2.5-.1 4.4.3 8.5l.6 6.3c2.7 5.5 5.7 10.2 14 5.5 1.1-.4 1.8-1 3.1-1.7 2.3-1.3 3.9-2.8 6.6-6.1 1.5-1.5 2.7-3.3 4-4.2 3.8-3.1 6.2-4.4 7.9-9.3.9-2 1.6-3.2 3.6-5.8 1-1.5 2-2.1 3.7-1.5.7.7 1.1 1.5.9 2.3z"/><path d="M237.2 73.8c-.2.3-.2.6-.2.8l-.2.3c-.7 1.7-.9 2.6-1.1 2.6l-8.3 14c-1.9 3.2-3.4 4.7-6.5 6.9-.2.3-1 .6-1.3.7-4.6 3.7-6.7 4.2-10.2 5.4-1.4.1-2.9.8-4.6 1.3l-2.7.3c-.8-.2-1.4-.1-1.9-.1-7.2-.4-9.9-2.6-14.9-8.7-.3-.5-.9-1.3-1.5-1.8-.3-.5-2.5-.6-3.6-.2-1 1.2-1.8 1.8-3.8 3.7l-3.5 3.4c-.5.3-.8.4-1.3.9-1 .9-2 1.8-3.1 2.2-4.9 3.8-9 3.9-14.2.5-2.3-1.4-3.3-2.7-3.2-4.9-.2-1.6-.6-3-.7-4.1-.5-2.4-.6-3.8-.1-6.3l.6-2.8c1-3.7 1.4-5.4.9-7.5-.3 0-.4-.8.4-2 1.8-3.8 3.7-7.5 5.2-11.8 2.1-4 3.6-5.3 7.8-7.9.7-1.2 1-1.5 2.8-2.7.8-.4 2.1-1 2.6-1.9 2-1.8 3.4-2.2 5.6-2.2 7.5.4 11.8 3 15.1 8.4.1.5.7 1 1 1.6.6 1 1 1.6 1.1 2.9-.1 1.7-1.1 2.9-2.2 3.2-1.6.4-3-.3-3.5-1.9-.4-.8-.7-1.3-1.6-2.3-.6-.5-.9-.7-1-1.6-1.4-2.9-3.4-3.8-7.5-3.7-4.4.4-7.5 2.1-9.4 4.8-.7 1.2-1.2 1.8-2.5 3s-2.5 2.7-3.4 4.7c-.5.9-.4 1.1-1.2 2-1.7 2.6-2.1 3.5-2 5.1.1.8-.1 1.7-.3 2.2-2.8 4.9-2.9 7.4-2.5 11.2.1 1.1-.1 2.2.1 3.6.1.8.4 1.6.8 2.9.1.5.4 1.1.5 1.9.5 2.4 4.8 3.9 7.1 2.6 2.6-1.6 5.2-3.2 6.6-5.6 1.2-2.3 2.1-3.5 3.6-5 1.8-1.5 3.5-3.6 4.8-7.6l.8-2.8c.5-.9.9-2 1.1-2.9.7-1.4 1.7-2.4 3.8-3.4.5-.3 2 .6 2.1 1.5.5 2.7.9 4 .5 5.2-.8 5.6.2 10.2 3.6 14.2 1.6 2.6 5.1 4.5 9 4.6 1.9-.5 3.5-.9 5.1-1.6 3.5-.9 9.4-2 14.6-8.6l3-3.6c1.8-1.5 3.6-3.1 4.7-5.4.4-1.1 1-1.5 1.6-3.2.7-1.7 1.6-3.5 2.6-4.9.2-.6.5-.9 1-1.5.2-.6.7-1.2 1-1.5.5-.9 1.6-.7 3 .3.3.9.4 2-.1 3.1z"/><path d="M268.4 94.7c-2.8 0-5.1-1.4-6.4-4.1-2-3.4-4.2-6.7-3.2-10.7l2.6-10.4c.2-.6.2-.8.9-1.7 1.7-2.1 2.2-3 1-4.2-.7-1.3-2.9-1.9-4.6-2.3-1.1-.2-1.1-.2-1.7-.4-.5.1-1.4-.7-2.6-1.4-3.3-2.4-5.5-3-7.6-2-2.3 1.6-3.7 4.2-4 6.7l-5.6 10.4c-.2.6-.5.6-.7 1.2-.9 1.7-1.9 3.5-3.1 4.7l-1.1.1c-.8.1-2.7-1.9-2.4-2.2.7-1.2.9-2 1.8-3.8.6-2 1.3-4 2.5-5.2 1.9-2.9 2.8-4.9 4.8-10.1.7-1.7 1.3-3.7 2-5.1 1.2-2.3.9-4.8-.6-8.7-.7-1.6-.9-3.5.3-5.3l2.4-4.1c.2-.6.7-1.4.7-1.7 2.2-2.7 4.3-3.7 8-2.7 1.7.4 3 3 2.1 4.5-1.7 2.6-3 5.5-4.1 9.2-1.2 2-.8 3.4.8 5.7 2.2 3.4 7.8 6.4 13.6 7.2 1.4.1 3.1.8 4.8 1.2.8.2 1.1.4 1.7.4.6.2 1.3 2.3 1.1 3.2-.7.9-1.2 1.8-2.1 3.5-.4 1.1-1.4 2.6-1.9 3.5-2.8 4.7-3.2 9.4-1.6 14.5 1.4 5.6 3.7 7.3 9.5 7.1 1.6-.2 1.9-.2 2.5 0 3.5-.6 7-1.2 11.2-3.8.7-1.4 1.5-2.1 2-2.1 2.1-1 3.4-2 4.6-3.5 1-.9 1.5-1.8 2.5-2.2 2.5-2.2 4.5-4.3 5.1-6.8.5-.9.7-1.2 1.7-2.4.7-.9 1.5-1.8 1.5-2.1 1.6-3.7 2.8-5.5 3.6-5.6.5-.1 1.4.7 2.4 2 .1.5-.7 4.2-1.2 4.2l-.9 1.7c-.4 1.1-.9 2-1.6 2.9-.2.6-.5.9-1.2 1.5-1.5 1.2-1.8 1.8-2.4 3.5-.4 1.4-2.8 4.7-3.6 5-1.3.9-1.8 1.5-3.6 2.5-1.6 1-3.6 2.3-5.1 4.3-3.8 3.1-5.8 3-10.4 3.7-5.1 2.4-9.5 3.1-14.4.2z"/><path d="M309.9 85.5c-2.7-4.7-3.5-7.6-3.2-10.7.1-1.9.2-3.3.2-6.1-.1-3.6-.1-6.9 1.2-10.3.2-1.1.4-1.7 1-3.7.2-1.1.6-2.5 1-3.7 1.2-4.2 3.1-7.4 5.4-9.9 3.7-3.9 6.9-5.6 11-5.7 1.6-.2 3 .3 4.8 1.7 3.3 2.7 4.1 5.1 2.4 8.3-.8 2.8-1.2 4.8-1 6.4-.2 6.6-3.9 10.6-8.2 14.8-1 .6-1.5 1.2-3.9 2.3-6.3 3.4-8 2.1-5.4 12.6 1.4 2.9 3.8 4.9 8 6.4 8.5 2.8 12.8 1.5 18.5-1.8l2.6-1.4c1.6-.7 2.9-1.6 4.5-2.1.8-.4 1.8-1 2.6-1.6 2-1.8 3.3-3.1 6.1-5.3 3.3-2.5 6.7-5 9.8-9.7l3.6-5.6c.7-1.4 2.4-3.3 3.2-4.2.8-.6 1.3-.7 2.5.3.5-.1.9 1.3.5 2.7-.2.3-.5.9-.7 1.7-.4 1.4-.6 2.3-.9 2.3-1.7 2.6-2.4 3.8-4.4 6.2-.7 1.2-1.9 2.7-3.2 4.2-2.7 3.8-5.7 6.9-9.3 8.9-2.1 1.3-4.4 2.4-5.7 4.1-7.2 5.4-11.5 6.1-19.1 7.6l-1.4.1c-8.3 1.7-18.1-2.3-22.5-8.8zm8.4-20.6c3.1-1.7 5.4-4.4 5.9-6.9.4-1.7.9-2.6 1.5-4 1.9-2.9 2.3-4.3 2.1-6.3l-.1-1.4c-.3-3-1.6-4.8-3.7-4.6-1.4-.1-2.7.5-3.7 2-.8.6-.7.9-.7.9-1.5 1.5-2.2 2.7-3.3 5.5-.4 1.1-.2.8-.4 1.1-1.2 2-1.6 3.7-1.7 7.6-.1 1.4-.3 3-.7 4.5.1.5.1 1.4.5 1.9.1 1.5 3.6.6 4.3-.3zm71 20.9c-.8-.2-1.2-1-1.3-2.1-.5-4.9 2.7-9.3 7.1-9.2.5-.6 2 .4 2.3 1.4.9 3.2.1 6.6-1.9 9-1 .7-1.6 1-4.8 1.3z"/></g><path d="M121.9 63.5c-.5.2-.8.3-1 .3-.5 0-.6-.3-.9-.7-5.5-8.3-5.9-9.2-5.9-9.7 0-.3.1-.5.4-.6l7-3c.3-.2.8-.2 1.1-.2.4 0 .7.1 1.1.3 1.8 1.6 7.2 6.8 7.2 9 0 .4-.2.8-.7 1zm35.4.6c0 .2.1.2.1.4 0 .3-.2.7-.6.9-9 7.1-19.1 12.4-29 15.3-.1.1-.3.1-.4.1-.4 0-.7-.2-.9-.5l-4.8-8.4c-.1-.1-.2-.3-.2-.4 0-.4.2-.7.6-.9 7.8-3 23.4-10.3 29.6-14.2.1 0 .3-.1.5-.1.3 0 .7.2.9.6zm-21.7-11.5c-.5.5-.8.6-1 .6-.3 0-.6-.2-.9-.4-7.8-6.6-8.4-7.3-8.4-8 0-.2.1-.4.2-.5l5.7-4.7c.4-.3.9-.7 1.4-.7 1.1 0 10.1 4.8 10.1 7.1 0 .2-.2.6-.5.8zm37.9 26.7h-.1c-.5 0-.9-.4-.9-.9l-.4-5.9c0-.4.1-1 .8-1l8.4-.4V59.9l-6.2-.1c-.5 0-1-.4-1-.9v-6c.1-.5.5-.9 1.1-.9l21.1.3c.6.1 1 .5 1 1.1l-.1 5.8c0 .5-.5 1-1 1h-.1l-6.1-.1v10.6l9-.4c.5 0 1.3.4 1.3 1l.4 5.8c0 .6-.4 1.1-1 1.1zm44.4-29c-.5-.1-1-.5-1-1.1v-.1l.8-8.1c0-.6.5-1 1-1h.1l32.1 2.6c2.2.2 5.5 1.7 5.5 4.9 0 2.9-2 9.8-7 14.7-.2.2-.7.7-1.3.7-.2 0-.4 0-.6-.1-6.2-2.1-7.4-2.4-7.4-3.6 0-.3.1-.5.2-.8 1.3-4.3 1.3-4.9 1.3-5.1 0-.5-.3-.8-1-.9zm1.4 26.6c-.6-.3-.7-.7-.7-1.1 0-.5.3-1.1.5-1.4 2.8-4 5.7-12.1 6.9-16.5.1-.8.7-1.2 1.5-1.2.1 0 .3 0 .5.1l8.8 2c1.1.2 1.6.8 1.6 1.6v.2c-1 9-9.4 19.9-12.2 19.9-.4 0-.8-.2-1.3-.4zm-141-24.7c2.9.8 5.9 1.7 8.8 2.5 1.1.3 1.6 1.7.9 2.6-1.6 2.2-3.4 4.5-5.2 6.8.1 3 .1 6-.1 9-.1 1-1 1.8-2 1.5-2.6-.6-5.3-1.4-8.1-2.3-2.7 1.1-5.3 2.2-7.7 3.1-1 .4-2.1-.3-2.2-1.4-.3-3-.6-6.1-.7-9.1-1.9-2.2-3.9-4.4-5.7-6.5-.8-.9-.4-2.3.7-2.7 2.9-1 5.8-2.1 8.6-3.1 1.6-2.5 3.2-5.1 4.8-7.6.6-1 2.1-1.1 2.8-.1 1.5 2.5 3.3 4.9 5.1 7.3zm232.3 0c2.9.8 5.9 1.7 8.8 2.5 1.1.3 1.6 1.7.9 2.6-1.6 2.2-3.4 4.5-5.2 6.8.1 3 .1 6-.1 9-.1 1-1 1.8-2 1.5-2.6-.6-5.3-1.4-8.1-2.3-2.7 1.1-5.3 2.2-7.7 3.1-1 .4-2.1-.3-2.2-1.4-.3-3-.6-6.1-.7-9.1-1.9-2.2-3.9-4.4-5.7-6.5-.8-.9-.4-2.3.7-2.7 2.9-1 5.8-2.1 8.6-3.1 1.6-2.5 3.2-5.1 4.8-7.6.6-1 2.1-1.1 2.8-.1 1.6 2.5 3.3 4.9 5.1 7.3zM71.9 1.4c.1-.1.2-.1.3-.1.5 0 1.9 2.2 2.1 2.6.7-.2 1.5-.3 2.4-.3.7 0 1.5.1 2.2.3.5-.8 1-1.6 1.4-2.4 0-.4.1-.5.2-.5h.1c2.8 1.4 3.2 1.6 3.2 1.9 0 .1-.3.7-1.6 2.5 1.8 1.7 1.9 4.2 1.9 4.8 0 2.1-.9 4.1-2.7 6-.2.2-.3.3-.5.3-.3 0-2.6-1.2-2.7-1.2-.2-.1-.3-.2-.3-.3s.1-.2.2-.3c1.3-1.2 2.2-3.1 2.2-4.6 0-.5-.1-1-.3-1.5v-.1c-3.7 4.6-6.4 6.7-7.4 6.7-.3 0-.5-.1-.6-.4-1.4-2.2-1.9-4.1-1.9-5.7 0-1.4.5-2.6 1.3-3.5-1.8-2.2-1.9-2.3-1.9-2.4s.1-.2.2-.3l2.2-1.5zm2.3 7.3c-.1.1-.2.1-.2.1-.1 0-.3-.1-.6-.5-.1.3-.2.6-.2.9 0 .6.4 1.5.6 1.5.1 0 1.2-1.2 3.3-4.1h-.4c-.3 0-.7 0-1 .1.1.2.2.4.2.6 0 .1.1.2.1.3s0 .2-.2.3zm20.4 2.9c-.2-.1-.3-.2-.3-.4v-.1c.6-1.6 1.2-3.3 1.7-5L94.4 6c-.2 0-.3-.2-.3-.3l.3-2.9c0-.2.2-.3.3-.3l2.3.1c.1-.6.3-1.1.4-1.5.1-.2.1-.3.4-.3h.1l3.1.2c.3 0 .3.3.3.5 0 .1-.2 1.1-.3 1.5h1c.2 0 .3.2.3.3l-.3 3.1c0 .2-.2.3-.3.3l-1.5-.1c-.5 1.9-1.2 3.7-2.1 5.3-.1.2-.2.3-.5.3h-.1zm12.5 4.3c0 .4-.3.4-1.2.4-3.2 0-6.1-1.3-6.1-1.8v-.2l1-2.5c.1-.2.1-.3.3-.3.1 0 .2 0 .3.1 1.3.4 3.3.8 5.3.9.2 0 .4.1.4.5zm-3.6-8.4c-.1-.1-.2-.1-.2-.3 0-.1 0-.1.1-.2l1.1-2.4c.1-.2.1-.2.3-.2.5 0 3.3 1 3.9 1.3.1.1.3.1.3.3 0 .1 0 .2-.1.3L107.7 9c-.1.2-.2.3-.3.3s-.1 0-.2-.1zm17.5 8.6c-.2 0-.4-.1-.4-.6v-3.7c-.2.3-.3.7-.5 1-.1.1-.2.2-.3.2s-.2 0-.4-.1c-.5-.3-1.5-.7-2-1-.2-.1-.3-.3-.3-.4 0-.3 1.8-3.3 2-3.7l-2-.9c-.1-.1-.1-.1-.1-.2s0-.1.1-.2l1.4-2.2c.1-.1.1-.2.3-.2.3 0 1.2.3 1.8.6V1.6c0-.2.2-.4.4-.4h2.9c.2 0 .4.2.4.4v2.2c.5-.1 1.1-.2 1.6-.2 3.1 0 6.4 1.9 6.4 5.8.2 0 .5 0 .8.1.2 0 .3.1.3.7 0 .8-.1 2-.1 2.5 0 .3-.1.4-.4.4-.4 0-.7 0-.9-.1-.5 1.8-2.2 2.9-3.9 2.9-.9 0-3.2-.5-3.2-3 0-1.6 1-3.4 3.8-3.4-.2-1.9-1.6-2.6-2.9-2.6-.5 0-1 .1-1.5.3v8.3c0 .4-.2.6-.5.6zm7.5-4.1c-.6 0-1.2.2-1.2.6s.3.6.6.6c.4 0 .9-.5 1-1.2zm22.6-.2c0 1-4.5 2.6-5.7 2.6-.3 0-.5-.1-.7-.3-1.4-2.3-2-4.3-2-6 0-4.2 3.6-6 7.1-6 5 0 8 3.2 8 7.2 0 2.3-1 4.4-3 6.4-.2.2-.4.3-.6.3-.1 0-.3-.1-.4-.1-2.8-1.4-2.8-1.4-2.8-1.6 0-.1.1-.2.2-.3 1.5-1.4 2.4-3.1 2.4-4.6 0-1.4-1-3.7-3.9-3.7-2 0-3.5 1.1-3.5 2.7 0 .1.1 1.6.7 1.6h.1c.6-.3 1.9-1.1 2.4-1.4.1-.1.3-.1.3-.1.1 0 .2.1.3.2.1 0 1.1 2.9 1.1 3.1zm23.5 1.1c0 2-1.7 3-3.5 3s-4.1-1-4.1-3.8c0-2.4 1.7-4.1 3.9-4.8V6.1l-2.4.1c-.2 0-.3-.1-.3-.3l-.1-2.6c0-.2.2-.3.3-.3l2.4-.1V2c0-.2 0-.4.4-.4h2.9c.3 0 .4.3.4.5v.7h1.1c.2 0 .3.2.3.3v2.6c0 .2-.1.3-.3.4h-1.2v.8c4.1.4 6.7 3.3 6.7 6.3 0 1.9-1.1 3.5-1.5 3.5-.3 0-2.6-1.1-2.7-1.2s-.2-.2-.2-.3 0-.1.1-.2c.3-.4.4-1.1.4-1.8 0-2-1.6-2.6-2.8-2.8zm-3.7-2.3c-.6.2-1.1.6-1.1 1.3 0 .6.5.6.5.6.3 0 .5-.2.5-.6v-1.3zm9.3-2.2c-.1.1-.2.1-.2.1-.1 0-.2-.1-.3-.1-.6-.7-2-2.4-2.6-3.1 0-.1-.1-.1-.1-.2s0-.2.1-.2l1.7-1.4c.1-.1.1-.1.2-.1.4 0 3.2 2.5 3.2 3 0 .1 0 .2-.1.3zm21.6-6.1c.1.1.3.2.3.4 0 .1-.1.2-.1.4-1.4 1.8-3.4 5-3.4 5.5 0 .1 0 .2.2.3 1.7 1.7 4.2 4.5 4.2 5.2 0 .3-.2.5-2.3 2.2-.1.1-.2.1-.3.1s-.3 0-.4-.1c0 0-3.9-3.9-5.4-5.5-.5-.5-.6-.8-.6-1.2 0-1.3 1.8-5.4 4.8-8.7.1-.1.2-.1.4-.1.1 0 .2 0 .3.1l2.3 1.4zm24.1 3.9c.1 1 .1 2.1.1 3.1.4.6.6 1.4.6 2.3 0 1.2-.4 2.7-1.4 4.3-.2.4-.4.4-2.7.4-.7 0-.7-.1-.7-.2s0-.1.1-.2c.3-.7.5-1.3.6-1.8-.4.1-.8.1-1.1.1-1.7 0-3.8-.8-3.8-3.4s2.1-3.9 4.2-3.9h.1l-.1-1-5.7-.2c-.2 0-.3-.1-.3-.3l.1-2.9c0-.2.2-.3.4-.3l5.3.2-.1-1.5c0-.2.1-.3.3-.3l3-.2c.4 0 .4.2.7 2.2l4.1.2c.2 0 .3.2.3.4l-.1 2.8c0 .2-.2.3-.4.3zm-4.4 3.7c-.4 0-.8.3-.8.7 0 .3.2.8.7.8.6 0 .7-.6.7-1.2-.2-.2-.4-.3-.6-.3zM241 8.8c-.2-.1-.3-.2-.3-.5 0-1.2.7-3.9.7-4.2.1-.2.2-.4.5-.4h.1l3.2.6c.2 0 .4.2.4.5V5l-.5 3.9c0 .2-.3.5-.6.5h-.1zm6.6 6.6c-.2-.1-.2-.2-.2-.3s0-.3.1-.4c.7-1.2.9-2.6.9-4.1 0-2.7-.8-5.5-1.5-7.7 0-.1-.1-.2-.1-.3 0-.2.1-.4.3-.4l3.2-.8h.3c.4 0 .5.2.5.4 1 2.4 1.9 5.4 1.9 8.3 0 2.2-.5 4.4-1.8 6.1-.2.2-.3.3-.6.3-.1 0-.3 0-.4-.1zm17.2 0h-.2c-.2 0-.3-.1-.3-.4l-.4-6.5-.9-.1c-.3 0-.4-.2-.4-.5v-.2l2.1-6.4c.1-.2.2-.3.4-.3h.2l2.7.9c.2.1.3.2.3.4v.2l-1.6 4.8h.4c.3 0 .4.2.4.4l.5 6.3v.1c0 .3-.2.6-.5.6zm13.7 1l-8.9-.2c-.5 0-.9-.3-.9-.8l-.2-13.9c0-.5.4-.8.8-.8l7.7-.5h.2c1.6 0 2.4 1 2.4 2.8v.1l-.2 12.2c0 .8-.4 1.1-.9 1.1zm-2.2-11.9c0-.6-.3-.8-.7-.8h-.1l-4.3.2.1 9.7 4.8.1zm-3.8 8.5c-.3 0-.4-.1-.4-.4l-.1-3c0-.3.2-.4.4-.4h.1V8h-.4c-.2 0-.3-.1-.3-.3V6.1c0-.3.1-.3.3-.3h.5v-1c0-.2.1-.3.3-.3l1.7.1c.2 0 .3.1.3.3v.7h.5c.2 0 .3.2.3.4v1.5c0 .3-.1.4-.3.4h-.6v1.2c.5.1.8.5.8 1v.1l-.1 2.3c0 .3-.3.5-.5.5zm1.5-2.1c0-.2-.1-.3-.3-.3l-.6.1v1.2h.8zm22.5 2.2l.1 1 1-.1h.1c.1 0 .2.1.2.2l-.1 1.7c0 .3-.2.4-.4.5l-4.4.4h-.1c-.3 0-.5-.2-.5-.4l-.2-1.7v-.1c0-.2.1-.3.3-.3l.8-.1-.1-1.1-1.6.1c-.1.9-.3 1.8-.6 2.5-.2.3-.5.5-.9.5-.1 0-.3 0-.4-.1l-2.4-.8c-.2-.1-.3-.2-.3-.4v-.2c.6-1.3 1-3.7 1-4.4l.1-7.6c0-1.6 1-2.4 2-2.4l10.8-.3h.1c1.4 0 2.3.6 2.3 2.3l.1 3.2c0 .6-.4 1-1 1l-10.5.2-.1 3.9v.5l2-.1-.1-1.1h-.9c-.2 0-.3-.1-.3-.3V8.2c0-.2.1-.3.2-.3h.8v-.3c0-.2.1-.3.3-.3l2.3-.1c.2 0 .3.1.3.3V8h1.9v-.5c0-.3.2-.3.4-.3l2.7.1c.2 0 .3.1.3.3V8h1c.2 0 .3.1.3.3v1.4c0 .2-.1.3-.3.3h-1.1l-.1.8 1.7-.1h.1c.2 0 .3.1.4.3l.1 1.5v.1c0 .2-.1.3-.3.3zm2.8-9.7c0-.3-.2-.5-.5-.5h-.1l-6.3.2c-.4 0-.5.3-.5.6v.9l7.5-.2zm-.9 6.4h-1.7l.1 1.2 1.5-.1zm4.5 6.8c-.1.2-.4.3-.6.3s-.4 0-.6-.1l-3.3-1.6c-.1-.1-.2-.2-.2-.3s0-.2.1-.3l1-1.5c.1-.1.2-.2.3-.2s.1 0 .2.1l1.3.5.2-.3c.1-.1.2-.2.3-.2s.1 0 .2.1l1.5.6c.1.1.2.2.2.3s0 .1-.1.2l-.2.3.4.2c.2.1.2.2.2.3s-.1.2-.1.3z"/></g></svg>