<svg xmlns="http://www.w3.org/2000/svg" width="223.4" height="50" overflow="visible"><style>.st0{fill:#fff}.st1{fill:#55291e}</style><path class="st0" d="M198.4 50H25C11.2 50 0 38.8 0 25S11.2 0 25 0h173.4c13.8 0 25 11.2 25 25s-11.1 25-25 25z"/><circle class="st1" cx="198.1" cy="25" r="16.8"/><path class="st0" d="M204 25.9l-7.5 7c-.5.5-1.4.5-1.9 0l-1.2-1.2c-.5-.5-.5-1.3 0-1.7l5.3-5-5.3-5c-.5-.5-.5-1.3 0-1.7l1.2-1.2c.5-.5 1.4-.5 1.9 0l7.5 7c.5.5.5 1.3 0 1.8z"/><g><path class="st1" d="M73.2 32.8H73c-.3 0-.5-.2-.5-.5l-.5-7.7-2.1-.5c-.3-.1-.4-.3-.4-.5 0-.1 0-.2.1-.3l3.8-8.6c.1-.2.3-.3.5-.3.1 0 .2 0 .3.1l3.7 1.5c.2.1.3.3.3.5 0 .1 0 .2-.1.3l-2.8 6h1c.3 0 .6.2.6.5l.6 8v.1c0 .5-.2.7-.6.8l-3.7.6zm12-.6l-.1 1.9c0 .3-.2.7-.7.7l-3.7.2h-.1c-.4 0-.5-.2-.5-.4v-.1l.6-12.3-2.7-.7c-.2-.1-.5-.3-.5-.6 0-.1 0-.1.1-.2l3.3-6.8c.1-.2.3-.3.5-.3h.3l3.6 1.2c.2.1.3.2.3.4 0 .1 0 .2-.1.3l-.7 1.5 5.7.5c.3 0 .4.2.4.5v.1l-.3 3.2c0 .2-.2.4-.5.4H90l-4.5-.3-.1 2.5 3.5.3c.2 0 .4.1.4.4l-.2 2.3c0 .2-.2.4-.5.4l-3.1-.3-.1 1.9 4.1-.1c.3 0 .5.1.5.4v2.4c0 .2-.1.5-.4.5l-4.4.1zM101.6 34.5c-.7 0-1.1-.5-1.1-1.1l.3-6.9c0-.7.5-1.1 1.1-1.1l5.7.2c1.6 0 2.4 1.1 2.4 2.6v.2l-.3 5c0 1-.8 1.2-1.3 1.2l-6.8-.1zm2.2-10.1c-.7 0-1.4-.4-1.4-1.2l-.2-7.5c0-.7.5-1.3 1.3-1.4l12.5-.5h.2c2 0 3.4 1.3 3.4 3.3v5.5c0 1-.7 1.4-1.4 1.4l-14.4.4zm3 5.4c0-.6-.2-.9-.7-.9h-1.5l-.1 2.7 2.2.1.1-1.9zm7-11.1c0-.6-.3-.8-.8-.8h-.1l-5.8.2v3l6.8-.2-.1-2.2zm-1.7 16c-.7 0-1.1-.5-1.1-1.1l.3-6.9c0-.7.5-1.1 1.1-1.1l6.3.2c1.6 0 2.4 1.1 2.4 2.6v.2l-.3 5c0 1-.8 1.2-1.3 1.2l-7.4-.1zm5.4-4.7c0-.6-.2-.9-.7-.9h-1.6l-.1 2.7 2.3.1.1-1.9zM149.9 31.5c-.1.2-.2.3-.4.3-.1 0-.2-.1-.4-.2-2.8-2.1-9-6.1-10-6.1-.2 0-.3.1-.5.3-1.2 1-3.8 2.8-4.4 2.8-.3 0-.6-.2-2.6-2.9-.1-.1-.1-.2-.1-.4s0-.4.2-.5c0 0 3.1-3 4.7-4.7.5-.5.9-.7 1.4-.7 2.4 0 10.9 5.4 13.9 8.1.1.1.2.2.2.3 0 .1 0 .2-.1.3l-1.9 3.4z"/></g></svg>