<svg height="1297.2" width="558.5" xmlns="http://www.w3.org/2000/svg"><path d="M113.9 140.2c6.8-.1 13.8-.2 20.7-.2 2.6 0 4.5 2.6 3.6 5.1-2.1 5.7-4.4 11.8-6.7 18.1 2.2 6.4 4.1 12.9 5.7 19.5.6 2.3-1.1 4.5-3.4 4.7-6.1.3-12.4.4-19 .2-5 4.2-9.9 8.1-14.7 11.7-1.9 1.4-4.7.6-5.7-1.6-2.7-6.3-5.2-12.7-7.5-19.2-5.6-3.6-11.2-7.1-16.6-10.3-2.3-1.4-2.4-4.7-.2-6.2 5.6-4 11.1-8.2 16.5-12.3 1.9-6.5 3.7-13 5.3-19.5.7-2.7 3.8-3.7 6-2 5.2 4 10.6 8 16 12z" fill="#dd7a90"/><circle cx="99.6" cy="141.6" fill="#fff" r="5"/><path d="M84.2 1163.8c.8-6.8 1.6-13.7 2.3-20.6.3-2.6 3.1-4.1 5.5-2.9 5.4 2.8 11.2 5.9 17.1 8.9 6.7-1.3 13.3-2.4 20-3.2 2.3-.3 4.4 1.6 4.2 4-.4 6-1.2 12.4-2.2 18.9 3.5 5.5 6.8 10.9 9.7 16.1 1.2 2.1 0 4.8-2.3 5.4-6.6 1.9-13.3 3.6-19.9 5-4.3 5.2-8.4 10.3-12.3 15.1-1.7 2.1-4.9 1.8-6.2-.5-3.3-6-6.7-12-10.1-17.9-6.2-2.7-12.5-5.3-18.6-7.7-2.5-1-3.2-4.3-1.3-6.2 4.8-4.7 9.5-9.5 14.1-14.4z" fill="#6ac5e3"/><circle cx="83.8" cy="1178.1" fill="#fff" r="5"/><path d="M112 593.6c5.3 4.3 10.6 8.8 16 13.2 2 1.7 1.8 4.9-.5 6.2-5.3 3-11 6.2-16.8 9.5-2.5 6.3-5.2 12.5-8.2 18.6-1 2.1-3.7 2.8-5.6 1.4-4.8-3.7-9.7-7.7-14.6-12.1-6.5 0-12.8-.2-18.8-.6-2.4-.2-4-2.6-3.3-4.9 2-6.6 4.2-13.1 6.7-19.5-2-6.4-4-12.6-6-18.5-.8-2.5 1.2-5.1 3.8-4.9 6.9.5 13.7.9 20.5 1.3 5.6-3.7 11.2-7.5 16.6-11.4 2.2-1.6 5.3-.4 5.9 2.3 1.2 6.3 2.7 12.9 4.3 19.4z" fill="#e5cf76"/><circle cx="100.2" cy="585.5" fill="#fff" r="5"/><path d="M270.2 85.3c1.1-.8 2.1-1.3 3-1.6.8-.3 1.5-.5 2.2-.6 1.3-.2 2.7-.1 4.4.1 1.3.1 2.7.4 4.3.5 1.2.1 2.5.2 4 .3 2.1 0 4.5-.2 7-.9s5-1.9 7.5-3.7c1.9-1.4 3.6-2.8 4.9-4.4 1.2-1.4 2.1-2.8 2.9-4.3 1.3-2.5 2-5 2.6-7.1.4-1.6.7-3 1-4.3.2-.9.5-1.8.7-2.5.4-1.1.9-2.1 1.5-3 .7-.9 1.6-1.9 3-2.9 1.1-.8 2.1-1.3 3-1.6.8-.3 1.5-.5 2.2-.6 1.3-.2 2.7-.1 4.4.1 1.3.1 2.7.4 4.3.5 1.2.1 2.5.2 4 .3 2.1 0 4.5-.2 7-.9s5-1.9 7.5-3.7c1.9-1.4 3.6-2.8 4.9-4.4 1.2-1.4 2.1-2.8 2.9-4.3 1.3-2.5 2-5 2.6-7.1.4-1.6.7-3 1-4.3.2-.9.5-1.8.7-2.5.4-1.1.9-2.1 1.5-3 .7-.9 1.6-1.9 3-2.9 1.1-.8 2.1-1.3 3-1.6.8-.3 1.5-.5 2.2-.6 1.3-.2 2.7-.1 4.4.1 1.3.1 2.7.4 4.3.5 1.2.1 2.5.2 4 .3 2.1 0 4.5-.2 7-.9s5-1.9 7.5-3.7l-7-10.6c-1.1.8-2.1 1.3-3 1.6-.8.3-1.5.5-2.2.6-1.3.2-2.7.1-4.4-.1-1.3-.1-2.7-.4-4.3-.5-1.2-.1-2.5-.2-4-.3-2.1 0-4.5.2-7 .9s-5 1.9-7.5 3.7c-1.9 1.4-3.6 2.8-4.9 4.4-1.2 1.4-2.1 2.8-2.9 4.3-1.3 2.5-2 5-2.6 7.1-.4 1.6-.7 3-1 4.3-.2.9-.5 1.8-.7 2.5-.4 1.1-.9 2.1-1.5 3-.7.9-1.6 1.9-3 2.9-1.1.8-2.1 1.3-3 1.6-.8.3-1.5.5-2.2.6-1.3.2-2.7.1-4.4-.1-1.3-.1-2.7-.4-4.3-.5-1.2-.1-2.5-.2-4-.3-2.1 0-4.5.2-7 .9s-5 1.9-7.5 3.7c-1.9 1.4-3.6 2.8-4.9 4.4-1.2 1.4-2.1 2.8-2.9 4.3-1.3 2.5-2 5-2.6 7.1-.4 1.6-.7 3-1 4.3-.2.9-.5 1.8-.7 2.5-.4 1.1-.9 2.1-1.5 3-.7.9-1.6 1.9-3 2.9-1.1.8-2.1 1.3-3 1.6-.8.3-1.5.5-2.2.6-1.3.2-2.7.1-4.4-.1-1.3-.1-2.7-.4-4.3-.5-1.2-.1-2.5-.2-4-.3-2.1 0-4.5.2-7 .9s-5 1.9-7.5 3.7z" fill="#e5cf76"/><path d="M7.4 954.8c1.1-.8 2.1-1.3 3-1.6.8-.3 1.5-.5 2.2-.6 1.3-.2 2.7-.1 4.4.1 1.3.1 2.7.4 4.3.5 1.2.1 2.5.2 4 .3 2.1 0 4.5-.2 7-.9s5-1.9 7.5-3.7c1.9-1.4 3.6-2.8 4.9-4.4 1.2-1.4 2.1-2.8 2.9-4.3 1.3-2.5 2-5 2.6-7.1.4-1.6.7-3 1-4.3.2-.9.5-1.8.7-2.5.4-1.1.9-2.1 1.5-3 .7-.9 1.6-1.9 3-2.9 1.1-.8 2.1-1.3 3-1.6.8-.3 1.5-.5 2.2-.6 1.3-.2 2.7-.1 4.4.1 1.3.1 2.7.4 4.3.5 1.2.1 2.5.2 4 .3 2.1 0 4.5-.2 7-.9s5-1.9 7.5-3.7c1.9-1.4 3.6-2.8 4.9-4.4 1.2-1.4 2.1-2.8 2.9-4.3 1.3-2.5 2-5 2.6-7.1.4-1.6.7-3 1-4.3.2-.9.5-1.8.7-2.5.4-1.1.9-2.1 1.5-3 .7-.9 1.6-1.9 3-2.9 1.1-.8 2.1-1.3 3-1.6.8-.3 1.5-.5 2.2-.6 1.3-.2 2.7-.1 4.4.1 1.3.1 2.7.4 4.3.5 1.2.1 2.5.2 4 .3 2.1 0 4.5-.2 7-.9s5-1.9 7.5-3.7l-7.4-10.6c-1.1.8-2.1 1.3-3 1.6-.8.3-1.5.5-2.2.6-1.3.2-2.7.1-4.4-.1-1.3-.1-2.7-.4-4.3-.5-1.2-.1-2.5-.2-4-.3-2.1 0-4.5.2-7 .9s-5 1.9-7.5 3.7c-1.9 1.4-3.6 2.8-4.9 4.4-1.2 1.4-2.1 2.8-2.9 4.3-1.3 2.5-2 5-2.6 7.1-.4 1.6-.7 3-1 4.3-.2.9-.5 1.8-.7 2.5-.4 1.1-.9 2.1-1.5 3-.7.9-1.6 1.9-3 2.9-1.1.8-2.1 1.3-3 1.6-.8.3-1.5.5-2.2.6-1.3.2-2.7.1-4.4-.1-1.3-.1-2.7-.4-4.3-.5-1.2-.1-2.5-.2-4-.3-2.1 0-4.5.2-7 .9s-5 1.9-7.5 3.7c-1.9 1.4-3.6 2.8-4.9 4.4-1.2 1.4-2.1 2.8-2.9 4.3-1.3 2.5-2 5-2.6 7.1-.4 1.6-.7 3-1 4.3-.2.9-.5 1.8-.7 2.5-.4 1.1-.9 2.1-1.5 3-.7.9-1.6 1.9-3 2.9-1.1.8-2.1 1.3-3 1.6-.8.3-1.5.5-2.2.6-1.3.2-2.7.1-4.4-.1-1.3-.1-2.7-.4-4.3-.5-1.2-.1-2.5-.2-4-.3-2.1 0-4.5.2-7 .9s-5 1.9-7.5 3.7l7.4 10.6z" fill="#dd7a90"/><path d="M427.7 1297.2c1.1-.8 2.1-1.3 3-1.6.8-.3 1.5-.5 2.2-.6 1.3-.2 2.7-.1 4.4.1 1.3.1 2.7.4 4.3.5 1.2.1 2.5.2 4 .3 2.1 0 4.5-.2 7-.9s5-1.9 7.5-3.7c1.9-1.4 3.6-2.8 4.9-4.4 1.2-1.4 2.1-2.8 2.9-4.3 1.3-2.5 2-5 2.6-7.1.4-1.6.7-3 1-4.3.2-.9.5-1.8.7-2.5.4-1.1.9-2.1 1.5-3 .7-.9 1.6-1.9 3-2.9 1.1-.8 2.1-1.3 3-1.6.8-.3 1.5-.5 2.2-.6 1.3-.2 2.7-.1 4.4.1 1.3.1 2.7.4 4.3.5 1.2.1 2.5.2 4 .3 2.1 0 4.5-.2 7-.9s5-1.9 7.5-3.7c1.9-1.4 3.6-2.8 4.9-4.4 1.2-1.4 2.1-2.8 2.9-4.3 1.3-2.5 2-5 2.6-7.1.4-1.6.7-3 1-4.3.2-.9.5-1.8.7-2.5.4-1.1.9-2.1 1.5-3 .7-.9 1.6-1.9 3-2.9 1.1-.8 2.1-1.3 3-1.6.8-.3 1.5-.5 2.2-.6 1.3-.2 2.7-.1 4.4.1 1.3.1 2.7.4 4.3.5 1.2.1 2.5.2 4 .3 2.1 0 4.5-.2 7-.9s5-1.9 7.5-3.7l-7.4-10.6c-1.1.8-2.1 1.3-3 1.6-.8.3-1.5.5-2.2.6-1.3.2-2.7.1-4.4-.1-1.3-.1-2.7-.4-4.3-.5-1.2-.1-2.5-.2-4-.3-2.1 0-4.5.2-7 .9s-5 1.9-7.5 3.7c-1.9 1.4-3.6 2.8-4.9 4.4-1.2 1.4-2.1 2.8-2.9 4.3-1.3 2.5-2 5-2.6 7.1-.4 1.6-.7 3-1 4.3-.2.9-.5 1.8-.7 2.5-.4 1.1-.9 2.1-1.5 3-.7.9-1.6 1.9-3 2.9-1.1.8-2.1 1.3-3 1.6-.8.3-1.5.5-2.2.6-1.3.2-2.7.1-4.4-.1-1.3-.1-2.7-.4-4.3-.5-1.2-.1-2.5-.2-4-.3-2.1 0-4.5.2-7 .9s-5 1.9-7.5 3.7c-1.9 1.4-3.6 2.8-4.9 4.4-1.2 1.4-2.1 2.8-2.9 4.3-1.3 2.5-2 5-2.6 7.1-.4 1.6-.7 3-1 4.3-.2.9-.5 1.8-.7 2.5-.4 1.1-.9 2.1-1.5 3-.7.9-1.6 1.9-3 2.9-1.1.8-2.1 1.3-3 1.6-.8.3-1.5.5-2.2.6-1.3.2-2.7.1-4.4-.1-1.3-.1-2.7-.4-4.3-.5-1.2-.1-2.5-.2-4-.3-2.1 0-4.5.2-7 .9s-5 1.9-7.5 3.7z" fill="#6ac5e3"/></svg>