<svg xmlns="http://www.w3.org/2000/svg" width="508.5" height="1183.5" overflow="visible"><style>.st0{fill:#dd7a90}.st1{fill:#fff}.st2{fill:#6ac5e3}.st3{fill:#e5cf76}</style><path class="st0" d="M396.6 1024.1c4.4 5.2 8.9 10.5 13.4 15.8 1.7 2 .9 5.1-1.6 6-5.8 2-11.9 4.1-18.2 6.4-3.6 5.8-7.4 11.4-11.4 16.8-1.4 1.9-4.2 2.1-5.8.3-4.1-4.4-8.2-9.3-12.3-14.5-6.4-1.2-12.6-2.5-18.4-3.9-2.3-.6-3.5-3.2-2.4-5.4 3.1-6.1 6.5-12.1 10-18-.8-6.6-1.7-13.2-2.6-19.3-.4-2.6 2.1-4.8 4.6-4.2 6.7 1.7 13.4 3.3 20 4.9 6.2-2.7 12.4-5.4 18.4-8.3 2.5-1.2 5.3.6 5.4 3.3.2 6.6.5 13.3.9 20.1z"/><circle class="st1" cx="386.4" cy="1014" r="5"/><path class="st2" d="M194.7 23.9c4.1 5.4 8.3 11 12.5 16.5 1.6 2.1.6 5.1-1.9 5.9-5.9 1.7-12.1 3.5-18.5 5.4-3.9 5.6-8 11-12.3 16.2-1.5 1.8-4.3 1.8-5.8 0-3.9-4.7-7.7-9.8-11.5-15.1-6.4-1.6-12.5-3.2-18.1-4.9-2.3-.7-3.3-3.4-2.1-5.5 3.5-5.9 7.1-11.7 11-17.4-.5-6.7-1-13.2-1.6-19.4-.2-2.7 2.3-4.7 4.9-3.9 6.6 2.1 13.2 4 19.7 6 6.3-2.3 12.7-4.8 18.8-7.3 2.5-1 5.3.9 5.2 3.6-.2 6.4-.3 13.2-.3 19.9z"/><circle class="st1" cx="185.1" cy="13.3" r="5"/><path class="st3" d="M407.5 422.2c6.7-1.5 13.4-3 20.2-4.6 2.6-.6 4.9 1.6 4.5 4.2-.9 6.1-1.8 12.5-2.8 19.1 3.5 5.8 6.7 11.8 9.7 17.9 1 2.1-.1 4.7-2.4 5.3-5.8 1.6-12.1 2.9-18.5 4.2-4 5.1-8 10-12 14.5-1.6 1.8-4.5 1.6-5.9-.4-4-5.6-7.7-11.3-11.3-17.2-6.3-2.3-12.5-4.5-18.3-6.6-2.5-.9-3.3-4.1-1.5-6 4.6-5.1 9.1-10.3 13.6-15.4.5-6.7.9-13.5 1.2-20.1.1-2.7 3-4.4 5.4-3.2 5.8 2.6 11.9 5.5 18.1 8.3z"/><circle class="st1" cx="393.8" cy="426.5" r="5"/><g><path class="st3" d="M7.4 1183.5c1.1-.8 2.1-1.3 3-1.6.8-.3 1.5-.5 2.2-.6 1.3-.2 2.7-.1 4.4.1 1.3.1 2.7.4 4.3.5 1.2.1 2.5.2 4 .3 2.1 0 4.5-.2 7-.9s5-1.9 7.5-3.7c1.9-1.4 3.6-2.8 4.9-4.4 1.2-1.4 2.1-2.8 2.9-4.3 1.3-2.5 2-5 2.6-7.1.4-1.6.7-3 1-4.3.2-.9.5-1.8.7-2.5.4-1.1.9-2.1 1.5-3 .7-.9 1.6-1.9 3-2.9 1.1-.8 2.1-1.3 3-1.6.8-.3 1.5-.5 2.2-.6 1.3-.2 2.7-.1 4.4.1 1.3.1 2.7.4 4.3.5 1.2.1 2.5.2 4 .3 2.1 0 4.5-.2 7-.9s5-1.9 7.5-3.7c1.9-1.4 3.6-2.8 4.9-4.4 1.2-1.4 2.1-2.8 2.9-4.3 1.3-2.5 2-5 2.6-7.1.4-1.6.7-3 1-4.3.2-.9.5-1.8.7-2.5.4-1.1.9-2.1 1.5-3 .7-.9 1.6-1.9 3-2.9 1.1-.8 2.1-1.3 3-1.6.8-.3 1.5-.5 2.2-.6 1.3-.2 2.7-.1 4.4.1 1.3.1 2.7.4 4.3.5 1.2.1 2.5.2 4 .3 2.1 0 4.5-.2 7-.9s5-1.9 7.5-3.7l-7.4-10.6c-1.1.8-2.1 1.3-3 1.6-.8.3-1.5.5-2.2.6-1.3.2-2.7.1-4.4-.1-1.3-.1-2.7-.4-4.3-.5-1.2-.1-2.5-.2-4-.3-2.1 0-4.5.2-7 .9s-5 1.9-7.5 3.7c-1.9 1.4-3.6 2.8-4.9 4.4-1.2 1.4-2.1 2.8-2.9 4.3-1.3 2.5-2 5-2.6 7.1-.4 1.6-.7 3-1 4.3-.2.9-.5 1.8-.7 2.5-.4 1.1-.9 2.1-1.5 3-.7.9-1.6 1.9-3 2.9-1.1.8-2.1 1.3-3 1.6-.8.3-1.5.5-2.2.6-1.3.2-2.7.1-4.4-.1-1.3-.1-2.7-.4-4.3-.5-1.2-.1-2.5-.2-4-.3-2.1 0-4.5.2-7 .9s-5 1.9-7.5 3.7c-1.9 1.4-3.6 2.8-4.9 4.4-1.2 1.4-2.1 2.8-2.9 4.3-1.3 2.5-2 5-2.6 7.1-.4 1.6-.7 3-1 4.3-.2.9-.5 1.8-.7 2.5-.4 1.1-.9 2.1-1.5 3-.7.9-1.6 1.9-3 2.9-1.1.8-2.1 1.3-3 1.6-.8.3-1.5.5-2.2.6-1.3.2-2.7.1-4.4-.1-1.3-.1-2.7-.4-4.3-.5-1.2-.1-2.5-.2-4-.3-2.1 0-4.5.2-7 .9s-5 1.9-7.5 3.7l7.4 10.6z"/></g><g><path class="st0" d="M301.1 180.2c1.1-.8 2.1-1.3 3-1.6.8-.3 1.5-.5 2.2-.6 1.3-.2 2.7-.1 4.4.1 1.3.1 2.7.4 4.3.5 1.2.1 2.5.2 4 .3 2.1 0 4.5-.2 7-.9s5-1.9 7.5-3.7c1.9-1.4 3.6-2.8 4.9-4.4 1.2-1.4 2.1-2.8 2.9-4.3 1.3-2.5 2-5 2.6-7.1.4-1.6.7-3 1-4.3.2-.9.5-1.8.7-2.5.4-1.1.9-2.1 1.5-3 .7-.9 1.6-1.9 3-2.9 1.1-.8 2.1-1.3 3-1.6.8-.3 1.5-.5 2.2-.6 1.3-.2 2.7-.1 4.4.1 1.3.1 2.7.4 4.3.5 1.2.1 2.5.2 4 .3 2.1 0 4.5-.2 7-.9s5-1.9 7.5-3.7c1.9-1.4 3.6-2.8 4.9-4.4 1.2-1.4 2.1-2.8 2.9-4.3 1.3-2.5 2-5 2.6-7.1.4-1.6.7-3 1-4.3.2-.9.5-1.8.7-2.5.4-1.1.9-2.1 1.5-3 .7-.9 1.6-1.9 3-2.9 1.1-.8 2.1-1.3 3-1.6.8-.3 1.5-.5 2.2-.6 1.3-.2 2.7-.1 4.4.1 1.3.1 2.7.4 4.3.5 1.2.1 2.5.2 4 .3 2.1 0 4.5-.2 7-.9s5-1.9 7.5-3.7l-7.4-10.6c-1.1.8-2.1 1.3-3 1.6-.8.3-1.5.5-2.2.6-1.3.2-2.7.1-4.4-.1-1.3-.1-2.7-.4-4.3-.5-1.2-.1-2.5-.2-4-.3-2.1 0-4.5.2-7 .9s-5 1.9-7.5 3.7c-1.9 1.4-3.6 2.8-4.9 4.4-1.2 1.4-2.1 2.8-2.9 4.3-1.3 2.5-2 5-2.6 7.1-.4 1.6-.7 3-1 4.3-.2.9-.5 1.8-.7 2.5-.4 1.1-.9 2.1-1.5 3-.7.9-1.6 1.9-3 2.9-1.1.8-2.1 1.3-3 1.6-.8.3-1.5.5-2.2.6-1.3.2-2.7.1-4.4-.1-1.3-.1-2.7-.4-4.3-.5-1.2-.1-2.5-.2-4-.3-2.1 0-4.5.2-7 .9s-5 1.9-7.5 3.7c-1.9 1.4-3.6 2.8-4.9 4.4-1.2 1.4-2.1 2.8-2.9 4.3-1.3 2.5-2 5-2.6 7.1-.4 1.6-.7 3-1 4.3-.2.9-.5 1.8-.7 2.5-.4 1.1-.9 2.1-1.5 3-.7.9-1.6 1.9-3 2.9-1.1.8-2.1 1.3-3 1.6-.8.3-1.5.5-2.2.6-1.3.2-2.7.1-4.4-.1-1.3-.1-2.7-.4-4.3-.5-1.2-.1-2.5-.2-4-.3-2.1 0-4.5.2-7 .9s-5 1.9-7.5 3.7l7.4 10.6z"/></g><g><path class="st2" d="M377.8 794.6c1.1-.8 2.1-1.3 3-1.6.8-.3 1.5-.5 2.2-.6 1.3-.2 2.7-.1 4.4.1 1.3.1 2.7.4 4.3.5 1.2.1 2.5.2 4 .3 2.1 0 4.5-.2 7-.9s5-1.9 7.5-3.7c1.9-1.4 3.6-2.8 4.9-4.4 1.2-1.4 2.1-2.8 2.9-4.3 1.3-2.5 2-5 2.6-7.1.4-1.6.7-3 1-4.3.2-.9.5-1.8.7-2.5.4-1.1.9-2.1 1.5-3 .7-.9 1.6-1.9 3-2.9 1.1-.8 2.1-1.3 3-1.6.8-.3 1.5-.5 2.2-.6 1.3-.2 2.7-.1 4.4.1 1.3.1 2.7.4 4.3.5 1.2.1 2.5.2 4 .3 2.1 0 4.5-.2 7-.9s5-1.9 7.5-3.7c1.9-1.4 3.6-2.8 4.9-4.4 1.2-1.4 2.1-2.8 2.9-4.3 1.3-2.5 2-5 2.6-7.1.4-1.6.7-3 1-4.3.2-.9.5-1.8.7-2.5.4-1.1.9-2.1 1.5-3 .7-.9 1.6-1.9 3-2.9 1.1-.8 2.1-1.3 3-1.6.8-.3 1.5-.5 2.2-.6 1.3-.2 2.7-.1 4.4.1 1.3.1 2.7.4 4.3.5 1.2.1 2.5.2 4 .3 2.1 0 4.5-.2 7-.9s5-1.9 7.5-3.7l-7.4-10.6c-1.1.8-2.1 1.3-3 1.6-.8.3-1.5.5-2.2.6-1.3.2-2.7.1-4.4-.1-1.3-.1-2.7-.4-4.3-.5-1.2-.1-2.5-.2-4-.3-2.1 0-4.5.2-7 .9s-5 1.9-7.5 3.7c-1.9 1.4-3.6 2.8-4.9 4.4-1.2 1.4-2.1 2.8-2.9 4.3-1.3 2.5-2 5-2.6 7.1-.4 1.6-.7 3-1 4.3-.2.9-.5 1.8-.7 2.5-.4 1.1-.9 2.1-1.5 3-.7.9-1.6 1.9-3 2.9-1.1.8-2.1 1.3-3 1.6-.8.3-1.5.5-2.2.6-1.3.2-2.7.1-4.4-.1-1.3-.1-2.7-.4-4.3-.5-1.2-.1-2.5-.2-4-.3-2.1 0-4.5.2-7 .9s-5 1.9-7.5 3.7c-1.9 1.4-3.6 2.8-4.9 4.4-1.2 1.4-2.1 2.8-2.9 4.3-1.3 2.5-2 5-2.6 7.1-.4 1.6-.7 3-1 4.3-.2.9-.5 1.8-.7 2.5-.4 1.1-.9 2.1-1.5 3-.7.9-1.6 1.9-3 2.9-1.1.8-2.1 1.3-3 1.6-.8.3-1.5.5-2.2.6-1.3.2-2.7.1-4.4-.1-1.3-.1-2.7-.4-4.3-.5-1.2-.1-2.5-.2-4-.3-2.1 0-4.5.2-7 .9s-5 1.9-7.5 3.7l7.4 10.6z"/></g></svg>