<svg xmlns="http://www.w3.org/2000/svg" width="339.2" height="20.5" overflow="visible"><style>.st0{fill:#fff}</style><path class="st0" d="M9.6 19.9c-5.3 0-9.6-4.3-9.6-9.6S4.3.7 9.6.7s9.6 4.3 9.6 9.6-4.4 9.6-9.6 9.6zm0-18c-4.6 0-8.4 3.8-8.4 8.4 0 4.6 3.8 8.4 8.4 8.4S18 15 18 10.4c0-4.7-3.8-8.5-8.4-8.5zm5.5 11.5c.1.2.2.3.2.5s-.1.4-.3.6c-1.6 1.6-3.5 2.3-5.2 2.3-3.4 0-6.4-2.6-6.4-6.4 0-4.9 3.9-6.6 6.9-6.6 1.4 0 3.8.6 3.8 1.4v.2l-.8 2.3c-.1.2-.2.5-.5.5-.1 0-.2 0-.3-.1-.4-.3-1.1-.5-1.8-.5-2.5 0-2.6 2.1-2.6 2.5 0 1.5 1.1 2.4 2.5 2.4.9 0 1.9-.4 2.7-1.3.1-.2.3-.2.4-.2.2 0 .3.2.4.3l1 2.1zM39.8 1.6c.2 0 .2-.1.4-.1.7 0 2.3 2.7 2.5 3.1.9-.3 1.9-.4 2.9-.4.9 0 1.8.1 2.6.3.6-1 1.2-2 1.7-2.9.2-.3.3-.4.4-.4h.2c3.4 1.7 3.9 2 3.9 2.3 0 .1-.4.8-2 3.1 2.2 2 2.3 5 2.3 5.8 0 2.5-1.1 5-3.3 7.2-.3.3-.4.4-.6.4-.3 0-3.1-1.4-3.2-1.5-.2-.1-.3-.2-.3-.4s.1-.3.2-.4c1.6-1.5 2.7-3.7 2.7-5.6 0-.6-.1-1.3-.4-1.8 0-.1-.1-.1-.1-.2-4.5 5.6-7.8 8.1-9 8.1-.3 0-.6-.1-.8-.5-1.7-2.7-2.4-5-2.4-6.9 0-1.7.6-3.1 1.5-4.2-2.2-2.6-2.3-2.8-2.3-2.9 0-.1.1-.3.2-.4l2.9-1.7zm2.8 9c-.1.1-.2.1-.3.1-.2 0-.3-.1-.7-.7-.1.3-.2.7-.2 1.1 0 .8.5 1.8.7 1.8.1 0 1.4-1.4 4-5h-.4c-.4 0-.9 0-1.3.2.1.2.2.5.3.7 0 .1.1.2.1.3 0 .1 0 .2-.2.3l-2 1.2zM69.4 14.1c-.2-.1-.4-.2-.4-.5v-.2c.8-2 1.4-4.1 2-6l-2-.2c-.2 0-.4-.2-.4-.4l.4-3.6c0-.2.2-.4.4-.4l2.8.3c.2-.7.3-1.3.4-1.8.1-.2.2-.4.5-.4h.1l3.8.3c.3 0 .4.3.4.5s-.3 1.4-.4 1.9l1.1.1c.2 0 .4.2.4.4l-.3 3.6c0 .2-.2.4-.4.4L76 7.9c-.7 2.3-1.5 4.5-2.5 6.5-.1.2-.3.4-.5.4h-.2l-3.4-.7zm15.1 5.2c0 .5-.4.5-1.4.5-3.9 0-7.4-1.6-7.4-2.2v-.2l1.3-3c.1-.2.2-.3.3-.3.1 0 .2 0 .4.1 1.6.5 4 1 6.4 1.1.2 0 .5.1.5.6l-.1 3.4zM80.2 9c-.1 0-.2-.1-.2-.3 0-.1 0-.2.1-.2l1.4-2.9c.1-.2.2-.3.3-.3.7 0 4 1.2 4.7 1.6.1.1.3.1.3.4 0 .1 0 .2-.1.3L85.3 11c-.1.2-.2.3-.4.3-.1 0-.2 0-.3-.1L80.2 9zM103.4 19.5c-.3 0-.5-.1-.5-.7v-4.5l-.6 1.2c-.1.2-.2.3-.4.3-.1 0-.3 0-.4-.2-.6-.4-1.8-.9-2.4-1.3-.3-.2-.3-.3-.3-.5 0-.4 2.2-4 2.4-4.5l-2.4-1.1c-.1-.1-.2-.2-.2-.3 0-.1 0-.1.1-.2l1.7-2.7c.1-.2.2-.2.3-.2.3 0 1.5.4 2.2.7V1.8c0-.3.2-.5.5-.5h3.6c.3 0 .5.2.5.5v2.7c.6-.1 1.3-.2 2-.2 3.8 0 7.8 2.3 7.8 7.1.2 0 .6 0 .9.1.3 0 .3.2.3.9 0 .9-.1 2.4-.1 3 0 .4-.2.5-.5.5-.4 0-.8 0-1-.1-.6 2.1-2.7 3.5-4.8 3.5-1.1 0-3.9-.6-3.9-3.6 0-1.9 1.2-4.1 4.6-4.1-.2-2.3-1.9-3.1-3.5-3.1-.6 0-1.2.1-1.8.4v10c0 .4-.2.7-.6.7h-3.5zm9.1-4.9c-.7 0-1.4.2-1.4.7 0 .4.3.7.7.7.5 0 1.1-.5 1.2-1.4h-.5zM141.9 14.3c0 1.2-5.5 3.2-6.9 3.2-.3 0-.6-.1-.8-.4-1.7-2.8-2.4-5.2-2.4-7.2 0-5.1 4.4-7.2 8.6-7.2 6 0 9.7 3.9 9.7 8.8 0 2.7-1.3 5.4-3.6 7.7-.3.3-.5.4-.7.4-.2 0-.3-.1-.5-.1-3.3-1.6-3.3-1.6-3.3-1.9 0-.1.1-.3.2-.4 1.8-1.6 2.9-3.8 2.9-5.6 0-1.7-1.2-4.4-4.7-4.4-2.4 0-4.2 1.3-4.2 3.3 0 .1.2 1.9.8 1.9h.2c.8-.4 2.4-1.4 3-1.7.2-.1.3-.1.4-.1.2 0 .3.1.3.2-.2-.2 1 3.2 1 3.5zM172.4 15.6c0 2.4-2.1 3.6-4.3 3.6-2.1 0-5-1.2-5-4.6 0-3 2-5 4.7-5.9V7.4l-2.8.1c-.2 0-.4-.2-.4-.4l-.1-3.1c0-.2.2-.4.4-.4l2.9-.1V2.4c0-.3 0-.5.4-.5h3.5c.4 0 .5.4.5.6v.9h1.4c.2 0 .4.2.4.4v3.1c0 .2-.2.4-.4.4h-1.4v1c5 .4 8.1 4 8.1 7.7 0 2.4-1.3 4.2-1.8 4.2-.3 0-3.1-1.4-3.3-1.4-.2-.1-.2-.2-.2-.3 0-.1 0-.1.1-.2.3-.5.5-1.3.5-2.1 0-2.4-1.9-3.2-3.3-3.5l.1 2.9zm-4.5-2.7c-.7.3-1.3.7-1.3 1.6 0 .8.6.8.7.8.3 0 .7-.2.7-.7v-1.7zm11.3-2.8c-.1.1-.2.1-.3.1-.1 0-.2-.1-.3-.2-.7-.9-2.4-2.9-3.2-3.7 0-.1-.1-.1-.1-.2s0-.2.2-.3l2.1-1.7c.1-.1.2-.1.3-.1.5 0 3.9 3 3.9 3.7 0 .1 0 .2-.2.3l-2.4 2.1zM207.4 2.8c.2.1.3.3.3.5 0 .1-.1.3-.2.4-1.6 2.2-4.1 6.1-4.1 6.7 0 .1 0 .2.2.4 2 2.1 5.1 5.5 5.1 6.3 0 .3-.2.6-2.8 2.7-.1.1-.2.1-.3.1-.2 0-.3 0-.5-.2 0 0-4.7-4.8-6.6-6.6-.5-.5-.7-1-.7-1.5 0-1.6 2.2-6.6 5.9-10.6.1-.1.3-.2.5-.2.1 0 .2 0 .3.1l2.9 1.9zM238.6 7.5c.1 1.3.1 2.5.1 3.8.4.8.7 1.7.7 2.8 0 1.5-.5 3.2-1.6 5.3-.3.5-.5.5-3.3.5-.8 0-.9-.1-.9-.2s0-.1.1-.2c.3-.8.6-1.5.7-2.2-.5.1-.9.1-1.4.1-2.1 0-4.6-1-4.6-4.2 0-3.1 2.5-4.7 5.1-4.7h.2l-.1-1.3-6.9-.2c-.2 0-.4-.2-.4-.4l.1-3.5c0-.2.2-.4.5-.4l6.4.3-.2-1.8V1c0-.2.1-.4.4-.4l3.7-.2c.4 0 .5.2.8 2.7l4.9.2c.2 0 .4.2.4.4l-.1 3.5c0 .2-.2.4-.4.4l-4.2-.1zm-5.4 4.5c-.5 0-.9.3-.9.8 0 .3.3 1 .9 1 .8 0 .9-.8.9-1.5-.3-.2-.6-.3-.9-.3zM258.9 10.7c-.2-.1-.4-.2-.4-.6 0-1.5.8-4.7.9-5 .1-.3.3-.5.5-.5h.2l3.9.7c.2 0 .5.2.5.7v.2l-.6 4.7c0 .3-.3.5-.7.5h-.2l-4.1-.7zm8 7.9c-.2-.1-.3-.2-.3-.4s0-.3.1-.5c.8-1.4 1.1-3.2 1.1-5 0-3.2-.9-6.7-1.9-9.4 0-.1-.1-.2-.1-.3 0-.2.1-.4.4-.5l3.9-1h.3c.4 0 .6.3.7.5 1.2 2.9 2.3 6.6 2.3 10.1 0 2.7-.6 5.3-2.2 7.4-.2.2-.4.4-.7.4-.1 0-.3 0-.5-.1l-3.1-1.2zM289.7 18.7h-.2c-.3 0-.4-.2-.4-.4l-.5-7.9-1-.1c-.3 0-.5-.3-.5-.5v-.2l2.5-7.8c.1-.2.3-.3.5-.3h.3l3.3 1.1c.2.1.3.3.3.5v.3l-2 5.9h.5c.3 0 .5.2.5.5l.5 7.6v.1c0 .4-.2.7-.6.8l-3.2.4zm16.7 1.2l-10.8-.2c-.6 0-1.1-.3-1.1-.9L294.3 2c0-.5.4-1 .9-1l9.4-.6h.3c1.9 0 2.9 1.2 2.9 3.4V4l-.2 14.8c-.1.7-.6 1.1-1.2 1.1zm-2.7-14.4c0-.8-.3-1-.8-1h-.1l-5.2.2.1 11.8 5.9.2.1-11.2zm-4.5 10.3c-.3 0-.5-.2-.5-.4l-.1-3.6c0-.3.2-.5.5-.5h.1V9.7h-.5c-.3 0-.4-.2-.4-.4V7.4c0-.3.1-.4.3-.4h.6V5.8c0-.2.2-.3.3-.3l2.1.1c.2 0 .4.2.4.4v.8h.7c.2 0 .3.2.3.5v1.9c0 .3-.1.5-.4.5h-.8v1.5c.6.1 1 .6 1 1.3v.1l-.1 2.8c0 .4-.3.5-.6.5l-2.9-.1zm1.8-2.6c0-.2-.1-.3-.3-.3l-.7.1v1.4h1v-1.2zM330.3 15.8l.1 1.2 1.2-.1h.1c.2 0 .3.1.3.3l-.1 2.1c0 .3-.2.5-.5.5l-5.3.5h-.1c-.4 0-.6-.2-.6-.5l-.3-2.1v-.1c0-.2.1-.3.3-.3l1-.1-.1-1.4-2 .1c-.2 1.1-.4 2.2-.7 3-.2.4-.6.6-1 .6-.2 0-.3 0-.5-.1l-2.9-.9c-.3-.1-.4-.3-.4-.5v-.2c.8-1.6 1.2-4.5 1.2-5.3l.2-9.2c0-2 1.2-2.9 2.4-3l13-.4h.2c1.7 0 2.8.8 2.8 2.7l.1 3.9c0 .7-.5 1.2-1.2 1.2l-12.7.2-.1 4.7v.6l2.5-.1-.1-1.4H326c-.3 0-.4-.1-.4-.3V9.7c0-.2.1-.3.2-.3h1v-.3c0-.2.2-.4.4-.4l2.8-.1c.2 0 .4.1.4.3v.5h2.3v-.6c0-.3.2-.4.4-.4l3.3.2c.3 0 .4.1.4.3v.5h1.2c.3 0 .4.1.4.3v1.7c0 .2-.1.4-.3.4h-1.3l-.1 1 2-.1h.1c.3 0 .4.1.4.4l.1 1.8v.1c0 .3-.1.4-.4.4l-8.6.4zm3.4-11.6c0-.4-.3-.6-.6-.6h-.1l-7.6.2c-.4 0-.7.4-.7.8v1l9-.2V4.2zm-1.2 7.7h-2l.1 1.4 1.9-.1v-1.3zm5.5 8.2c-.2.2-.5.3-.8.3-.2 0-.5 0-.7-.2l-4-1.9c-.2-.1-.3-.2-.3-.4 0-.1 0-.2.1-.3l1.2-1.8c.1-.1.2-.2.4-.2.1 0 .2 0 .3.1l1.6.7.2-.4c.1-.2.2-.3.4-.3.1 0 .2 0 .3.1l1.9.7c.2.1.3.2.3.4 0 .1 0 .1-.1.2l-.3.4.5.2c.2.1.3.2.3.3 0 .1-.1.2-.1.3l-1.2 1.8z"/></svg>