<svg xmlns="http://www.w3.org/2000/svg" width="268.9" height="60.2" overflow="visible"><style>.st0{fill:#fff}.st1{fill:#223963}</style><path class="st0" d="M238.8 60.2H30.1C13.5 60.2 0 46.7 0 30.1S13.5 0 30.1 0h208.7c16.6 0 30.1 13.5 30.1 30.1s-13.5 30.1-30.1 30.1z"/><circle class="st1" cx="238.4" cy="30.1" r="20.2"/><path class="st0" d="M245.5 31.1l-9 8.4c-.6.6-1.6.6-2.3 0l-1.5-1.4c-.6-.6-.6-1.5 0-2.1l6.4-6-6.4-6c-.6-.6-.6-1.5 0-2.1l1.5-1.4c.6-.6 1.6-.6 2.3 0l9 8.4c.6.7.6 1.7 0 2.2z"/><path class="st1" d="M98.2 42c-.5 0-.8-.3-.8-.7l-.9-17.2-4.9.3c-.4 0-.8-.3-.8-.7l-.3-5.6V18c0-.4.3-.7.7-.7l5.6-.3 11.9-.6c.4 0 .8.3.8.7l.3 5.5c0 .4-.3.8-.7.8l-4.7.2.9 17.2c0 .4-.3.7-.7.7l-6.4.5zm21.2-.1c-.4 0-.7-.2-.7-.6l-.8-15.6c0-.4.3-.7.6-.7l3.5-.2c1.6-.5 3.2-.8 4.7-.8 1 0 2 .1 2.9.3.5.1.6.4.6.7 0 .1 0 .2-.1.4l-.9 4.2c-.1.4-.4.6-.8.6-.1 0-.2 0-.3-.1-.5-.2-1-.2-1.5-.2-.4 0-.8.1-1.3.2l.6 10.6v.3c0 .3-.3.6-.6.6l-5.9.3zm21.7-16.8c-2.5 0-4.4-2-4.4-4.4 0-2.5 2-4.4 4.4-4.4 2.4 0 4.4 2 4.4 4.4 0 2.5-1.9 4.4-4.4 4.4zm-1.9 16.7c-.4 0-.6-.3-.7-.6l-.8-14.6c0-.4.2-.6.6-.7l6-.3h.1c.3 0 .6.3.6.6l.8 14.7v.1c0 .3-.3.6-.6.6l-6 .2zm14.4 7.7c-.3 0-.6-.3-.6-.6v-.1l1.2-23.7c0-.3.3-.6.6-.6h.1l5 .3c1.3-.5 2.6-.7 3.9-.7 5.3 0 10 3.8 10 9.3s-3.9 8.9-9.6 8.9c-1.3 0-2.5-.2-3.6-.5l-.4 7.5c0 .4-.3.6-.7.6l-5.9-.4zm7.3-13.3c.7.3 1.5.6 2.4.6.2 0 3.1 0 3.1-3.3 0-2.1-1.6-3.5-3.7-3.5-.5 0-1 .1-1.5.2l-.3 6z"/></svg>